<svg xmlns="http://www.w3.org/2000/svg" width="33" height="40"><path d="M27.201 21.252c-.045-5.062 4.134-7.492 4.323-7.611-2.352-3.441-6.012-3.912-7.318-3.968-3.113-.315-6.078 1.833-7.656 1.833s-4.018-1.787-6.6-1.737c-3.398.05-6.527 1.974-8.276 5.014-3.527 6.118-.9 15.186 2.534 20.152 1.681 2.428 3.683 5.163 6.315 5.062 2.536-.101 3.494-1.639 6.554-1.639s3.922 1.639 6.602 1.591c2.725-.053 4.454-2.481 6.123-4.916 1.926-2.818 2.723-5.546 2.768-5.69-.06-.025-5.314-2.039-5.369-8.092zM22.166 6.388c1.397-1.692 2.339-4.044 2.08-6.388-2.012.081-4.447 1.341-5.891 3.033-1.293 1.495-2.428 3.89-2.12 6.186 2.244.174 4.535-1.142 5.932-2.831z"/></svg>