<svg xmlns="http://www.w3.org/2000/svg" width="102" height="29" fill="none"><path fill="#5f01d1" fill-opacity=".8" d="M.613 7.322H6.62l3.487 8.935 3.538-8.935H19.5L10.693 28.5h-5.88l2.418-5.6L.613 7.322zm24.971-.356c-4.505 0-7.356 4.047-7.356 8.069 0 4.531 3.131 8.12 7.28 8.12 3.105 0 4.276-1.884 4.276-1.884v1.476h5.244V7.322h-5.244v1.4c-.025 0-1.324-1.756-4.2-1.756zm1.12 4.964c2.087 0 3.156 1.655 3.156 3.131 0 1.604-1.145 3.182-3.156 3.182-1.655 0-3.156-1.349-3.156-3.105 0-1.782 1.196-3.207 3.156-3.207zM36.81 22.748V.5h5.473v8.273s1.298-1.807 4.022-1.807c3.335 0 5.295 2.495 5.295 6.033v9.749h-5.447v-8.425c0-1.196-.56-2.367-1.858-2.367-1.324 0-2.011 1.171-2.011 2.367v8.426h-5.473zM60.94 6.965c-5.167 0-8.247 3.92-8.247 8.145 0 4.785 3.716 8.069 8.273 8.069 4.404 0 8.247-3.131 8.247-7.993 0-5.32-4.047-8.222-8.273-8.222zm.051 4.989c1.833 0 3.08 1.527 3.08 3.131 0 1.375-1.171 3.08-3.08 3.08-1.756 0-3.055-1.4-3.055-3.106 0-1.604 1.069-3.106 3.055-3.106zm17.334-4.989c-5.167 0-8.247 3.92-8.247 8.145 0 4.785 3.716 8.069 8.273 8.069 4.404 0 8.247-3.131 8.247-7.993 0-5.32-4.022-8.222-8.273-8.222zm.051 4.989c1.833 0 3.08 1.527 3.08 3.131 0 1.375-1.171 3.08-3.08 3.08-1.756 0-3.054-1.4-3.054-3.106 0-1.604 1.094-3.106 3.054-3.106zm12.549 3.844a3.64 3.64 0 0 1 0 7.28 3.64 3.64 0 1 1 0-7.28zm4.836-1.324H89.22L95.024.5h6.516l-5.778 13.975z"/></svg>