<svg xmlns="http://www.w3.org/2000/svg" width="126" height="23"><path d="M.184 0H9.4c1.755 0 3.072.436 4.047 1.162 1.073.872 1.658 2.13 1.658 3.68 0 1.791-.732 2.905-2.194 3.583v.097c1.951.629 3.072 2.373 3.072 4.455 0 1.985-.78 3.534-2.048 4.503-1.073.775-2.438 1.114-4.291 1.114H.184V0zm8.29 7.263c.975 0 1.707-.533 1.707-1.646 0-1.065-.731-1.598-1.756-1.598h-3.17v3.196h3.218v.048zm.439 7.214c1.122 0 1.95-.678 1.95-1.888 0-1.307-.878-1.888-1.95-1.888H5.305v3.825h3.608v-.048zM16.813 0h4.828v18.641h-4.828V0zm5.803 12.008c0-4.212 2.731-7.021 6.973-7.021s6.924 2.857 6.924 7.021c0 4.212-2.682 7.021-6.924 7.021s-6.973-2.808-6.973-7.021zm9.07 0c0-2.324-.732-3.777-2.194-3.777s-2.146 1.453-2.146 3.777.683 3.825 2.146 3.825c1.463-.048 2.194-1.501 2.194-3.825zm5.364 0c0-4.212 2.731-7.021 6.973-7.021s6.876 2.808 6.876 7.021-2.682 7.021-6.924 7.021c-4.194 0-6.925-2.808-6.925-7.021zm9.07 0c0-2.324-.732-3.777-2.194-3.777s-2.146 1.453-2.146 3.777.683 3.825 2.146 3.825c1.463-.048 2.194-1.501 2.194-3.825zm5.754-6.682h4.486v1.985h.097c.878-1.549 2.097-2.373 4.047-2.373 1.707 0 2.975.823 3.608 2.276h.098c1.073-1.743 2.487-2.276 4.145-2.276 3.121 0 4.438 2.276 4.438 5.326v8.328h-4.681v-7.505c0-1.356-.439-2.227-1.609-2.227s-1.755 1.065-1.755 2.518v7.214h-4.681v-7.505c0-1.356-.439-2.227-1.609-2.227s-1.755 1.065-1.755 2.518v7.214h-4.828V5.326zm26.82 11.524h-.049v1.743h-4.486V0h4.681v6.682h.097c.878-1.162 2.097-1.791 3.803-1.791 3.365 0 5.315 3.002 5.315 7.021 0 4.503-2.097 7.118-5.608 7.118-1.463 0-2.975-.678-3.755-2.179zm4.535-4.987c0-2.13-.78-3.535-2.194-3.535-1.463 0-2.341 1.404-2.341 3.535s.926 3.534 2.341 3.534 2.194-1.356 2.194-3.534zm5.364.096c0-4.164 2.78-7.021 6.778-7.021 1.999 0 3.511.629 4.681 1.743 1.56 1.501 2.243 3.825 2.194 6.537h-8.972c.195 1.646.975 2.518 2.389 2.518.829 0 1.56-.387 1.853-1.259h4.535c-.78 3.05-3.169 4.551-6.534 4.551-4.145-.048-6.924-2.857-6.924-7.069zm4.681-1.404h4.291c-.097-1.598-.975-2.421-2.097-2.421-1.317-.048-2.048.872-2.194 2.421zm14.288-2.953h.097c.975-1.84 2.243-2.566 3.852-2.566.391 0 .634.048.781.145v4.067h-.098c-2.779-.484-4.389.823-4.389 3.825v5.568h-4.73V5.326h4.487v2.276zm5.217 11.039h4.535c.195.581.781 1.114 1.902 1.114 1.512 0 2.048-.92 2.048-2.324v-.968h-.097c-.732.872-1.756 1.501-3.219 1.501-2.877 0-5.412-2.13-5.412-6.294 0-3.825 2.048-6.779 5.168-6.779 1.805 0 2.878.726 3.609 1.84h.098V5.278h4.486v11.524c0 2.13-.732 3.777-1.853 4.745-1.171 1.017-2.829 1.453-4.73 1.453-3.609.049-6.096-1.404-6.535-4.358zm8.68-7.166c0-1.646-.78-3.002-2.145-3.002-1.317 0-2.146 1.162-2.146 3.002 0 1.792.829 3.05 2.146 3.05s2.145-1.307 2.145-3.05z"/></svg>