<svg xmlns="http://www.w3.org/2000/svg" width="127" height="19" fill="none"><path fill="#fff" d="M14.85 2.523A4.42 4.42 0 0 1 16.673.814c1.254-.57 2.906-.285 3.989.57.969.855 1.539 2.108 1.254 3.475.285 0 .456-.171.741-.285 1.539-.456 3.134 0 4.16 1.31.741.969.969 2.393.456 3.475-.171.57-.57 1.026-1.026 1.538l.114.114c1.425.114 2.849 1.139 3.305 2.564s.114 2.849-.969 3.874c-.855.855-1.88 1.139-3.02 1.026H4.25c-1.824 0-3.134-.741-3.761-2.279-.57-1.31-.285-3.02.741-4.045.684-.684 1.539-.968 2.45-1.139-1.026-.969-1.539-2.279-1.254-3.703.114-1.026 1.026-2.279 2.165-2.678.969-.399 2.279-.285 3.191.171-.285-1.538.399-2.906 1.71-3.76 1.14-.741 2.906-.741 4.046.114.57.342 1.026.912 1.311 1.367z"/><path fill="#645fa9" d="M20.89 3.093c-.171-.399-.456-.741-.798-1.026-.855-.741-2.279-.855-3.305-.285-.969.456-1.539 1.538-1.539 2.564h1.254c.114.114.171.114.285.171-.513.399-1.482.741-1.254 1.538l1.311 8.432 3.704-8.318c.57-.969.855-2.108.342-3.077z"/><path fill="#c8234a" d="m12.969 14.374 1.539-9.629c.114-.684-.114-1.31-.399-1.88-.285-.627-.855-1.026-1.425-1.31-1.026-.456-2.393-.171-3.134.57s-1.14 1.88-.741 3.02l3.761 8.432.399.798z"/><path fill="#0088cf" d="M26.418 6.853c.456.855.399 2.165-.171 2.906-.399.57-.969.855-1.425 1.253l-7.864 5.413.114-.285 4.16-9.344c.684-1.139 1.824-1.709 3.02-1.538.855.228 1.71.798 2.165 1.595z"/><path fill="#f26f21" d="m4.193 10.386 8.719 5.982h.114L8.695 6.796a3.073 3.073 0 0 0-3.704-1.31c-.855.399-1.539 1.139-1.71 1.994-.456 1.083-.057 2.222.912 2.906z"/><path fill="#0db04b" d="M28.298 16.653c.684-.741.741-2.108.399-2.906a2.902 2.902 0 0 0-1.539-1.538c-.855-.399-1.994-.285-2.735.171l-7.75 5.356h9.289c.912 0 1.653-.342 2.336-1.082z"/><path fill="#fcb813" d="m13.14 17.735-7.75-5.469c-.741-.456-1.881-.57-2.735-.171a2.906 2.906 0 0 0-1.539 1.538c-.456.969-.285 2.165.399 2.906.57.741 1.425 1.139 2.393 1.139l9.232.057z"/><path fill="#095692" d="M47.901 7.423c-.399-1.709-1.71-2.165-3.305-2.279-5.015-.456-5.87 3.304-5.87 4.9 0 2.735.741 4.9 5.699 4.9.969 0 3.419-.969 3.419-2.45h7.123c-.285 4.558-7.864 5.583-11.169 5.583-6.838 0-12.708-1.253-12.423-8.033.171-4.843 4.73-8.204 13.79-7.976 5.015.114 9.858 1.709 9.858 5.299H47.9v.057zm71.003 0c-.398-1.709-1.709-2.165-3.305-2.279-5.014-.456-5.869 3.304-5.869 4.843 0 2.735.741 4.9 5.698 4.9.969 0 3.419-.969 3.419-2.45h7.124c-.285 4.558-7.864 5.583-11.169 5.583-6.839 0-12.708-1.253-12.423-8.033.171-4.843 4.73-8.204 13.79-7.976 5.015.114 9.916 1.709 9.916 5.299h-7.181v.114zM56.335 2.409h9.175l7.864 10.996h.114V2.409h5.87v15.212h-8.776L62.375 6.625h-.114v10.996h-5.926V2.409zm24.788 0h11.169c5.414 0 8.491 1.538 8.491 3.76 0 1.31-1.311 3.02-4.274 3.475 3.476.171 4.844 2.45 4.844 3.76 0 2.735-3.02 4.159-9.061 4.159H81.123V2.409zm6.553 5.982h1.881c2.849 0 4.331-.171 4.331-1.424s-1.254-1.709-3.761-1.709h-2.393v3.134h-.057zm0 6.153h1.881c3.419 0 4.73-.399 4.73-1.538 0-1.254-1.596-1.709-4.16-1.709h-2.393v3.191h-.057v.057z"/></svg>