<svg xmlns="http://www.w3.org/2000/svg" width="155" height="23" fill="none"><path fill="#2e2e2e" d="m38.164 9.714-.264 1.301h-.066c-.33-.727-1.254-1.741-3.301-1.741-3.301 0-6.668 2.557-7.416 6.591-.638 3.527 1.056 6.635 4.973 6.635 1.43 0 3.081-.551 3.939-1.764h.066l-.242 1.323h3.653l2.289-12.345h-3.631zm-1.188 6.15c-.242 1.213-1.386 3.174-3.675 3.174-2.245 0-2.707-1.984-2.509-3.13.264-1.411 1.518-3.174 3.653-3.174 2.091.022 2.795 1.675 2.531 3.13zm6.887-6.15h3.433l-.242 1.301h.066c.44-.595 1.298-1.741 3.411-1.741l-.682 3.747c-1.738.022-2.993.375-3.323 2.271l-1.254 6.768h-3.697l2.288-12.345zm9.155-4.827h3.697l-1.738 9.303h.066l4.269-4.475h4.335l-5.633 5.423 3.235 6.922h-4.181l-2.377-5.952h-.066l-1.078 5.952h-3.719l3.191-17.172zm16.548 4.387c-3.741 0-7.064 3.218-7.68 6.657-.682 3.659 1.782 6.547 5.325 6.547a6.786 6.786 0 0 0 3.697-1.124c1.166-.705 2.245-1.764 3.081-3.152h-3.763c-.616.639-1.32 1.146-2.465 1.146-1.43 0-2.509-.86-2.443-2.337h9.242a4.93 4.93 0 0 0 .264-.97c.704-3.77-1.496-6.768-5.259-6.768zm-3.741 5.246c.286-.727 1.298-2.116 3.213-2.116s2.377 1.389 2.377 2.116h-5.589zM22.232 4.887l-6.514 9.788h-.044V4.887h-3.147L.997 22.059h4.467l6.47-9.788H12v9.788h3.169l6.47-9.788h.066v9.788h3.697V4.887h-3.169zm61.945 4.827h-2.333l.682-3.659h-3.235l-.264 1.411c-.286 1.609-1.298 2.094-2.641 2.249h-.022l-.55 2.8h1.827l-1.76 9.545h3.675l1.76-9.545h2.355l.506-2.8z"/><path fill="#00ac4e" d="M141.216 17.386c-1.211 2.8-4.093 5.092-7.416 5.092-3.741 0-6.052-2.954-5.391-6.635.682-3.615 4.027-6.569 7.723-6.569 3.257 0 5.502 2.182 5.568 5.202h-3.741c-.242-.86-.792-1.742-2.355-1.742-1.738-.088-3.168 1.345-3.499 3.13-.33 1.808.595 3.152 2.355 3.152 1.518 0 2.443-.882 2.971-1.653h3.785v.022zM110.672.5l-7.174 4.387h2.025l-6.492 9.788h-.066V4.887h-3.169l-6.492 9.788h-.066V4.887h-3.697v17.172h3.213l6.492-9.788h.066v9.788h3.169l11.487-17.172h1.826L110.672.5zm6.998 21.559h-3.653l.242-1.323h-.066c-.858 1.212-2.509 1.764-3.939 1.764-3.917 0-5.611-3.086-4.973-6.635.726-4.034 4.115-6.591 7.416-6.591 2.024 0 2.97.992 3.3 1.741h.066l.264-1.301h3.653l-2.31 12.345zm-6.206-2.998c2.289 0 3.433-1.984 3.675-3.174.264-1.477-.44-3.13-2.53-3.13-2.113 0-3.389 1.763-3.653 3.174-.198 1.146.264 3.13 2.508 3.13zm17.715-9.347h-2.311l.682-3.659h-3.234l-.265 1.411c-.286 1.609-1.298 2.094-2.64 2.249h-.044l-.528 2.8h1.826l-1.76 9.545h3.675l1.76-9.545h2.355l.484-2.8zm15.514-4.828h3.675l-1.123 6.128h.066c.792-1.146 1.849-1.741 3.477-1.741 1.166 0 2.509.441 3.125 1.389.792 1.212.704 2.293.286 4.497l-1.254 6.9h-3.675l1.232-6.723c.11-.595.462-2.601-1.496-2.601-2.069 0-2.421 1.852-2.531 2.469l-1.254 6.834h-3.675l3.147-17.15z"/></svg>