<svg xmlns="http://www.w3.org/2000/svg" xmlns:xlink="http://www.w3.org/1999/xlink" width="432" height="356" fill="none"><path fill="#f9dee7" d="M354.84 118.068c-2.327-5.235-4.946-10.76-8.146-16.285-17.894-31.842-50.334-53.361-84.52-66.593s-70.555-19.193-106.05-27.626C140.995 3.93 125.72-.142 110.154.004 77.569.295 47.019 19.633 28.253 46.241S1.486 105.854.177 138.423c-1.164 29.226 3.2 59.759 19.493 83.896 8.728 12.94 20.512 23.409 32.295 33.877l54.553 48.564c9.746 8.724 19.784 17.593 31.567 23.554 38.551 19.484 97.031 3.781 127.289-23.264 7.274-6.542 14.984-12.358 22.839-18.174 14.984-11.051 30.404-22.101 42.479-36.641 10.183-12.359 18.038-26.462 23.566-41.584 12.22-34.459 13.529-60.34.582-90.583z"/><path fill="#3f1901" d="M135.742 70.066c1.639 19.263 8.128 24.66 1.092 44.333-6.489 18.17-22.473 30.944-25.479 50.754-2.186 14.072.342 37.229 9.085 49.115 12.774 17.214 44.265 9.495 62.094 7.514 20.287-2.255 65.235-1.367 78.692-20.562 10.178-14.55-.41-41.942-3.484-57.516l-11.544-59.361c-3.211-18.034-7.651-47.407-20.288-62.093-10.725-12.501-25.479-13.594-43.172-11.271-33.54 4.372-49.114 34.975-46.996 59.088z"/><g fill="#e59375"><path d="M236.771 146.3c14.482-.41 26.504 10.997 26.914 25.479s-7.514 51.779-18.512 42.42c-21.654-18.443-32.447-29.578-32.857-43.991-.409-14.482 9.974-23.499 24.455-23.908z"/><path d="m255.488 161.396-25.07 8.334-4.508 26.777s55.194 67.08 73.159 76.438c19.127 9.974 14.004-7.445 12.774-14.686 0 .068-42.147-87.71-56.355-96.863z"/><path d="M310.204 275.2s46.792-23.294 76.985-49.456c0 0 2.869-9.086-5.124-7.105-7.65 1.913-83.2 21.586-88.05 27.802-4.85 6.285 16.189 28.759 16.189 28.759z"/><path d="m420.114 219.596-7.241 3.347s14.755-3.074 16.873-9.427c0 0 .751-1.23-1.708-1.913 0 0-11.749 5.329-17.556 6.353 0 0 12.774-2.869 20.561-7.719 0 0 2.186-3.689-2.254-3.893 2.118-2.255-.956-2.869-.956-2.869s-3.006-.137-9.29.819c0 0-9.7 1.435-21.313 1.845 0 0 5.123-8.676.342-11.271l-8.607 11.885-7.173 11.955 2.118 7.787 14.686 2.186s12.774-.957 18.854-3.757c.068.136 17.077-9.085 2.664-5.328z"/></g><path fill="#f7a483" d="M167.3 143.431h44.675c-2.049-6.49-6.216-23.362.273-34.838l-45.152-29.647c.068 0 8.06 49.798.204 64.485z"/><path fill="#e1876f" d="M208.833 123.894c-.137-4.987.683-10.383 3.483-15.301l-45.152-29.647s3.279 20.288 3.62 38.8c16.258 5.192 22.952 7.173 38.049 6.148z"/><path fill="#f7a483" d="M136.63 147.256c-20.083 9.836-8.949 33.472-8.949 33.472l27.187 98.912s25.411 10.383 69.949 5.191c6.216-8.88 18.922-45.972 23.157-74.321 3.484-23.361 14.413-46.313 2.527-59.36-4.576-4.987-39.209-9.974-39.414-10.793H169.35l-32.72 6.899zm82.586-34.565 2.732-6.626 6.763-19.468c.956-3.074 1.571-7.377.614-10.451-1.092-3.757-1.776-9.768-.068-16.463 4.577-17.76-2.937-27.597-2.937-27.597-9.632-17.077-34.428-18.239-34.428-18.239-30.671.068-34.701 29.51-34.701 29.51-5.943 19.468 8.948 36.614 9.016 36.682 1.913 2.186 1.913 5.533 2.733 8.129.888 2.801 2.322 5.396 4.098 7.719 4.031 5.123 9.427 10.178 15.029 13.389 5.328 3.074 15.779 6.489 23.293 6.762 3.279.205 6.353.41 7.856-3.347z"/><path fill="#3f1901" d="M169.145 91.72c.546-14.003.888-13.115.888-13.115.546-4.099 8.129 5.123 8.197-.205.478-24.387 9.905-35.521 13.457-37.229 9.632-4.577 19.673-5.533 27.46-3.757 12.228 2.801 10.93 19.195 10.93 19.195 13.525-59.498-54.375-43.718-54.375-43.718-33.061 6.899-31.217 37.775-31.217 37.775-5.67 32.789 25.821 53.418 25.821 53.418l-1.161-12.364z"/><path fill="#f8a07d" d="M171.467 87.075a6.77 6.77 0 0 1-4.303 1.093c-4.714-.273-8.471-4.918-8.266-10.315.137-5.396 4.099-9.495 8.881-9.222 2.254.137 4.235 1.298 5.738 3.006 2.186 2.527 1.981 6.899 1.298 9.905-.547 2.323-1.64 4.304-3.348 5.533z"/><path fill="#e98b6f" d="M169.418 73.687c-.137-2.869-6.011-.41-5.191 1.23.478.956 1.434 1.639 2.185 2.323 1.025.956 1.503 1.776 1.572 3.211 0 .137 0 .683-.137.751-.752.478-3.074-2.391-3.552-3.006-.957-1.23-1.025-3.142-.478-4.577.614-1.503 1.639-2.118 3.21-1.981 1.298.137 2.596.273 2.459 1.913 0 0-.068.273-.068.137zm-1.981 2.869c.615-.546 1.161-.068 1.776.41.547.478.82 1.025.956 1.708.274 1.503-.068 3.484-.956 4.713-.751 1.025-1.913 1.571-3.142 1.503-1.708-.137-2.186-1.708-2.118-3.142 0-.41 0-1.298.41-1.571s.683.41.956.683c.342.41.957.547 1.435.615.956.137 1.981-.342 2.596-1.025.136-.137.205-.273.273-.41-.068.956-.137 1.161-.205.615-.068-.273-.137-.478-.273-.683-.342-.683-1.025-1.161-1.435-1.844-.273-.273-.614-1.298-.273-1.571z"/><path fill="#3c2415" d="M199.679 67.607c.068 1.708-.82 3.142-1.981 3.211s-2.186-1.298-2.254-3.006.82-3.142 1.981-3.21c1.229-.068 2.186 1.298 2.254 3.006zm23.704-1.981c0 1.708-.957 3.074-2.118 3.074s-2.049-1.434-2.049-3.142.956-3.074 2.117-3.074 2.118 1.435 2.05 3.142z"/><path fill="#3f1901" d="M189.638 64.806c4.576-5.943 16.531-3.62 16.531-3.62s.683 0 .614-2.118c0 0 .069-1.913-1.434-1.776 0 0-14.687-2.527-15.711 7.514zm40.371-8.197c-2.118-4.03-13.252-.205-13.252-.205-1.503.137-1.162 1.981-1.162 1.981.273 2.118.957 1.981.957 1.981s11.134-4.303 12.978-1.776c.342-1.366.205-1.23.479-1.981z"/><path fill="#fff" d="m219.626 88.168-16.531 2.186c-.888.137-1.23.752-.752 1.435 0 0 4.714 6.694 10.11 5.943s8.129-8.47 8.129-8.47c.136-.683-.273-1.093-.956-1.093z"/><path fill="#e98b6f" d="M207.398 84.275c8.812-.205 9.427-2.459 9.427-2.459l-4.167-9.495c0-.068.615 9.29-5.26 11.954z"/><path fill="#fff" d="M171.672 88.032c-.068 1.571-1.434 2.869-3.074 2.732-1.571-.068-2.8-1.434-2.732-3.074.068-1.571 1.434-2.869 3.074-2.732 1.571.137 2.801 1.503 2.732 3.074z"/><g fill="#f7a483"><path d="M163.202 168.295c.888 14.414-6.626 28.622-21.108 29.51-14.413.888-52.052-5.738-43.035-17.009 17.692-22.269 28.417-33.472 42.83-34.36 14.55-.888 20.425 7.446 21.313 21.859z"/><path d="m152.204 189.335-9.222-24.797-26.914-3.62s-65.167 57.448-73.91 75.755c-9.29 19.468 7.924 13.73 15.096 12.227 0 0 86.275-45.084 94.95-59.565z"/><path d="M40.723 249.174s32.447 45.699 62.708 71.725c0 0 13.047-1.298 8.88-8.402-7.036-12.091-35.931-68.583-43.035-80.742-3.962-6.763-28.553 17.419-28.553 17.419z"/><path d="m112.311 312.497 15.302 3.893 6.557-8.538c-.068 9.426 3.006 15.916 3.006 15.916 8.539 9.085 13.662 16.189 13.662 16.189 3.347 3.074-.41 4.782-.41 4.782-6.284-1.845-18.102-11.066-18.102-11.066 5.943 6.147 17.214 14.823 17.214 14.823 2.323 3.005-1.503 3.962-1.503 3.962-9.017-.205-19.4-13.594-19.4-13.594 3.757 5.192 14.482 14.14 14.482 14.14.478 2.733-1.025 2.528-1.025 2.528-7.172.888-17.145-11.955-17.145-11.955l3.893 4.714c5.875 6.011.478 6.626.478 6.626l-3.552-2.664c-10.724-8.334-14.823-18.922-14.823-18.922l-7.377-12.432 8.743-8.402z"/></g><path fill="#4fa6c9" d="M39.493 243.436s-2.664 3.825 6.694 16.531c0 0 34.974 50.48 57.585 62.776 0 0 9.973-3.962 11.202-11.408 0 0-29.988-68.992-48.636-80.742 0 0-14.891-10.929-26.846 12.843z"/><path fill="#4b9ebf" d="M244.832 147.051s18.033 2.869 20.698 22.61c0 0 56.423 82.928 45.562 106.358 0 0-18.239 12.979-79.376-74.32.069-.069-15.164-41.942 13.116-54.648z"/><g fill="#4fa6c9"><path d="m223.383 142.816 19.263 3.484s14.072 3.073 14.55 15.096c0 0 .819 22.815-11.613 64.006 0 0-20.493-63.255-22.2-82.586z"/><path d="m218.464 142.064 8.676 1.367s16.872 32.583 20.834 67.148c-4.235 28.348-12.774 71.247-23.157 74.321-35.111 10.383-71.793-5.943-71.793-5.943l-16.804-67.08c45.152-17.556 22.337-69.13 22.337-69.13l9.495-2.254 39.893 40.303 10.519-38.732z"/><path d="m158.557 142.679-22.337 3.689s-10.725 3.757-17.009 11.476c0 0-89.349 66.738-79.444 90.715 0 0 2.869 8.129 12.159 5.601l86.48-40.78s48.226-22.269 20.151-70.701z"/><use xlink:href="#a"/></g><path fill="#4b9ebf" d="M292.99 240.498s30.534-13.115 86.07-24.796c0 0 9.495 9.563 8.607 15.848 0 0-66.738 45.221-76.507 44.401-.068 0-22.269-15.711-18.17-35.453z"/><g fill="#111924"><use xlink:href="#a"/><path d="M228.506 143.431s16.053 32.788 20.014 67.353c-4.235 28.348-13.32 71.042-23.703 74.116-35.111 10.383-71.793-5.943-71.793-5.943l-16.804-67.08c45.152-17.556 22.337-69.13 22.337-69.13l9.495-2.254 42.215 60.318 8.266-58.678 9.973 1.298z"/></g><g fill="#222b35"><path d="m168.052 140.425 42.215 60.317-30.329-8.197s-4.44-3.757-1.571-7.787l4.167-8.129L177 174.99s-7.309-.888-8.538-6.831l-4.577-26.709 4.167-1.025z"/><path d="m218.328 142.201-8.129 58.541 16.462-15.301s6.763-5.533.41-8.266l-7.855-2.459 9.221-8.265s1.913-2.528 0-7.309l-5.533-16.463-4.576-.478z"/></g><path fill="#111924" d="m151.453 272.74-26.914 44.538s23.908 23.567 70.905 27.802c0 0 32.925.82 53.077-17.624l-16.805-54.716h-80.263z"/><path fill="#4592b1" d="m201.933 151.628-.546 22.678-8.334-8.197 8.88-14.481z"/><path fill="#7ad0e2" d="M201.933 151.15s-25.274-10.384-31.559-20.63l-11.817 12.159 30.671 29.715 12.705-20.766m22.474.683s-2.459-9.495-14.481-17.487l1.571 32.652c.068 0 6.694-16.736 12.91-15.165z"/><path fill="#4592b1" d="m225.5 167.475-1.093-15.164c-3.689-.888-6.967 4.235-9.631 8.47l10.724 6.694z"/><path fill="#3f1901" d="M215.185 31.95c-20.766 10.042-32.72 19.673-28.69 44.538 3.621 22.405 4.577 34.633-8.607 53.828-12.432 18.034-14.003 28.554-5.123 48.978 7.104 16.394 14.14 32.174-6.216 40.781-38.458 16.257-71.862-15.301-55.741-55.263 7.241-17.897 23.226-29.578 31.423-46.723 8.265-17.351 1.912-32.857 1.298-50.891-1.093-30.124 42.078-71.657 66.397-41.259 2.049 2.528 3.688 5.67 5.191 8.607l.068-2.596z"/><defs><path id="a" d="M236.293 164.333s17.624 24.455 20.698 37.024c2.049 8.265-12.432 26.914-24.045 30.193-6.353 1.776-6.489-65.577 3.347-67.217z"/></defs></svg>