<svg xmlns="http://www.w3.org/2000/svg" width="124" height="29" fill="none"><path fill="#ff8000" d="M11.753 15.856a.434.434 0 0 0 .326-.498c-.049-.233-.275-.392-.501-.333a.406.406 0 0 0-.27.17.39.39 0 0 0-.061.313c.047.24.272.402.507.347zm8.633-1.801a.44.44 0 0 0 .326-.5c-.05-.235-.277-.394-.503-.335a.41.41 0 0 0-.27.174.41.41 0 0 0-.061.315.433.433 0 0 0 .508.346zm-7.598 3.711a.602.602 0 0 0 .109-.836.62.62 0 0 0-.839-.099.58.58 0 0 0-.216.393.58.58 0 0 0 .127.43.581.581 0 0 0 .82.113zm7.058-5.539a.604.604 0 0 0 .105-.837.613.613 0 0 0-.834-.096.585.585 0 0 0-.196.618.59.59 0 0 0 .105.202.578.578 0 0 0 .819.112zm-4.739 6.876a.79.79 0 0 0-.014-.605.795.795 0 0 0-.442-.415c-.425-.165-.868.043-1.043.472-.157.404.06.859.476 1.021a.81.81 0 0 0 1.023-.473zm3.207-8.56a.788.788 0 0 0-.459-1.017c-.424-.163-.865.047-1.042.472-.16.407.061.861.472 1.022.421.136.871-.06 1.029-.476zm1.432 4.994c-.071.327.09.633.408.717a.59.59 0 0 0 .718-.413.59.59 0 0 0-.062-.438.555.555 0 0 0-.355-.264c-.074-.018-.149-.027-.224-.018s-.148.032-.214.069a.57.57 0 0 0-.271.346zm-1.179 1.621a.89.89 0 0 0 .007 1.235c.344.33.886.325 1.197-.003a.844.844 0 0 0 .023-1.221.87.87 0 0 0-1.228-.012zm-1.812.95c-.466.117-.79.598-.675 1.069a.907.907 0 0 0 1.078.695c.491-.1.788-.595.69-1.077-.118-.495-.596-.782-1.092-.686zm-5.697-4.89c-.088.322.095.628.418.726a.58.58 0 0 0 .332-.017.58.58 0 0 0 .268-.197.58.58 0 0 0 .04-.636.58.58 0 0 0-.569-.287.58.58 0 0 0-.488.411zm1.079-2.536c-.325.345-.34.884-.005 1.217a.864.864 0 0 0 1.418-.281.856.856 0 0 0-.003-.661.871.871 0 0 0-.47-.466.856.856 0 0 0-.662.003.86.86 0 0 0-.28.189zm2.638-1.476a.911.911 0 0 0-.707 1.065.916.916 0 0 0 1.092.682.9.9 0 0 0 .682-1.07c-.113-.479-.598-.791-1.068-.677zm5.768 10.835c.26.252.645.26.892-.002a.59.59 0 0 0 .142-.196.582.582 0 0 0 .051-.236.59.59 0 0 0-.188-.434.62.62 0 0 0-.439-.193.62.62 0 0 0-.445.178c-.244.247-.248.651-.012.883zM10.42 9.861c.251.248.652.26.896-.004a.625.625 0 0 0-.002-.883.64.64 0 0 0-.891-.002.644.644 0 0 0-.004.889zm11.898 7.992a.632.632 0 0 0 .828-.335.63.63 0 0 0-.336-.822.613.613 0 0 0-.479-.008.6.6 0 0 0-.202.137.607.607 0 0 0-.131.207.62.62 0 0 0-.054.238.617.617 0 0 0 .042.24.62.62 0 0 0 .332.344zm.893-2.462a.75.75 0 0 0 .536-.214.75.75 0 0 0 .166-.243.77.77 0 0 0-.149-.825.75.75 0 0 0-.528-.229.76.76 0 0 0-.772.737.79.79 0 0 0 .221.534.791.791 0 0 0 .526.24zm-.011-2.666a.95.95 0 0 0 .535-.515.95.95 0 0 0 0-.743c-.19-.488-.741-.751-1.232-.553a.966.966 0 0 0-.567 1.255c.202.507.76.75 1.263.555zm-14.152-.402a.646.646 0 0 0 .83-.346.64.64 0 0 0-.335-.826.63.63 0 0 0-.484.001.63.63 0 0 0-.34.344.64.64 0 0 0 .33.826zm-.421 2.815a.764.764 0 0 0 .76-.748.76.76 0 0 0-.73-.758.75.75 0 0 0-.541.204.75.75 0 0 0-.234.528.76.76 0 0 0 .212.541.76.76 0 0 0 .533.232zm.742 2.962a.97.97 0 0 0 .323-.205.964.964 0 0 0 .298-.688.97.97 0 0 0-.071-.376.947.947 0 0 0-1.25-.541.96.96 0 0 0-.319.201.952.952 0 0 0-.299.676.959.959 0 0 0 .065.371.97.97 0 0 0 1.252.559zm9.036 2.431a.67.67 0 0 0-.369.364.67.67 0 0 0 .002.519.69.69 0 0 0 .889.382.686.686 0 0 0 .224-.147.67.67 0 0 0 .197-.486.67.67 0 0 0-.058-.261.648.648 0 0 0-.364-.373.667.667 0 0 0-.521.004zm-2.497.355c-.5-.009-.91.408-.92.912a.94.94 0 0 0 .912.928.94.94 0 0 0 .928-.916c.008-.499-.405-.912-.921-.923zm-2.357-.472c-.534-.226-1.139.048-1.362.583a1.047 1.047 0 0 0 .588 1.349 1.03 1.03 0 0 0 .395.078c.135 0 .27-.028.395-.08a1.03 1.03 0 0 0 .334-.226c.095-.096.17-.211.221-.337a1.05 1.05 0 0 0-.572-1.368zm-2.068-1.493a1.149 1.149 0 0 0-1.252-.259 1.14 1.14 0 0 0-.374.249 1.16 1.16 0 0 0-.352.816 1.17 1.17 0 0 0 .333.824 1.173 1.173 0 0 0 1.645.011 1.16 1.16 0 0 0 .252-.376 1.15 1.15 0 0 0-.252-1.264zm1.458-11.692a.68.68 0 0 0-.377.883.704.704 0 0 0 .901.385.69.69 0 0 0 .362-.899.67.67 0 0 0-.365-.372.67.67 0 0 0-.521.004l.001-.001zm3.023-.934a.924.924 0 0 0-.924.924.927.927 0 0 0 .921.901.9.9 0 0 0 .645-.264.9.9 0 0 0 .263-.646.92.92 0 0 0-.904-.914zm3.138.377a1.06 1.06 0 0 0-1.359.567c-.212.524.051 1.156.572 1.365a1.034 1.034 0 0 0 .8-.008 1.04 1.04 0 0 0 .559-.573 1.022 1.022 0 0 0-.005-.795 1.038 1.038 0 0 0-.567-.557zm2.912 1.8a1.15 1.15 0 0 0-1.645.005 1.14 1.14 0 0 0 0 1.615 1.16 1.16 0 0 0 .374.255c.14.059.291.091.443.092a1.16 1.16 0 0 0 .822-.334c.457-.461.469-1.18.005-1.632zm.124 14.151a.55.55 0 0 0 .169.134.56.56 0 0 0 .421.034.55.55 0 0 0 .188-.105.54.54 0 0 0 .193-.373.54.54 0 0 0-.133-.399.55.55 0 0 0-.374-.193.55.55 0 0 0-.401.128.55.55 0 0 0-.193.374.55.55 0 0 0 .128.401zm1.674-1.507a.63.63 0 0 0 .472.119.63.63 0 0 0 .416-.253.633.633 0 0 0-.6-1.006.64.64 0 0 0-.419.25.644.644 0 0 0-.12.472.63.63 0 0 0 .249.418zm1.456-2.057a.74.74 0 0 0 .577-.002.74.74 0 0 0 .399-.416.745.745 0 0 0-.418-.976.746.746 0 0 0-.575.007.75.75 0 0 0-.4.413.76.76 0 0 0 .008.573.751.751 0 0 0 .408.402zm.989-2.679a.8.8 0 0 0 .308-.027.79.79 0 0 0 .473-.381.808.808 0 0 0 .066-.603.79.79 0 0 0-.143-.274c-.065-.081-.146-.149-.237-.198s-.192-.081-.295-.093a.8.8 0 0 0-.879.704.79.79 0 0 0 .709.873zm.199-2.781a.964.964 0 0 0 .781-1.132.973.973 0 0 0-1.932.161.98.98 0 0 0 .59.909.978.978 0 0 0 .563.063zM8.914 7.086c.208.229.549.26.776.066a.557.557 0 0 0 .07-.776.56.56 0 0 0-.778-.061c-.11.094-.179.227-.191.371s.032.287.123.399zM7.33 8.91a.63.63 0 0 0 .888-.139.62.62 0 0 0 .121-.466.62.62 0 0 0-.248-.412.63.63 0 0 0-.471-.123.63.63 0 0 0-.417.251.623.623 0 0 0-.12.47.621.621 0 0 0 .248.418zm-1.264 2.43a.76.76 0 0 0 .984-.422.75.75 0 0 0-.42-.975.76.76 0 0 0-.985.418.76.76 0 0 0 .42.979zm-.591 2.86c.434.054.828-.274.886-.706a.81.81 0 0 0-.723-.873.794.794 0 0 0-.87.704.79.79 0 0 0 .171.585.79.79 0 0 0 .537.289zm.315 3.12a.965.965 0 0 0 .787-1.129.966.966 0 0 0-.751-.782.96.96 0 0 0-.381-.003.97.97 0 0 0-.626.403.97.97 0 0 0-.158.727.98.98 0 0 0 .403.626.966.966 0 0 0 .348.151.97.97 0 0 0 .379.007zm14.821 5.74a.47.47 0 0 0-.226.282.47.47 0 0 0 .039.359c.03.054.07.102.118.141a.47.47 0 0 0 .163.085.472.472 0 0 0 .359-.039.472.472 0 0 0-.107-.848.473.473 0 0 0-.347.02zm-1.877.687a.55.55 0 0 0-.368.678.555.555 0 0 0 .686.373.556.556 0 0 0 .366-.69.56.56 0 0 0-.684-.363zm-2.172.352a.63.63 0 0 0-.437.213.643.643 0 0 0-.124.215.63.63 0 0 0-.031.246.635.635 0 0 0 1.266-.085.63.63 0 0 0-.675-.59zm-2.42-.244a.828.828 0 0 0-.967.645.833.833 0 0 0 .648.973.82.82 0 0 0 .624-.125.836.836 0 0 0 .349-.532.825.825 0 0 0-.128-.616.82.82 0 0 0-.525-.345zm-2.474-.905a.987.987 0 0 0-1.311.437.992.992 0 0 0 .428 1.309.99.99 0 0 0 1.317-.442.98.98 0 0 0-.434-1.305zm-2.096-1.621a1.142 1.142 0 0 0-1.915.875c.009.301.135.586.352.794a1.15 1.15 0 0 0 1.618-.047 1.147 1.147 0 0 0 .208-1.258 1.136 1.136 0 0 0-.262-.363zm-1.718-2.424a1.244 1.244 0 0 0-1.682-.494 1.237 1.237 0 0 0-.486 1.679 1.24 1.24 0 0 0 1.675.501 1.248 1.248 0 0 0 .494-1.685zm2.982-13.79a.47.47 0 0 0-.165.627.47.47 0 0 0 .616.201.48.48 0 0 0 .19-.642.468.468 0 0 0-.283-.225.47.47 0 0 0-.359.04zm2.016-.906a.55.55 0 0 0-.364.681.55.55 0 0 0 .679.368.547.547 0 0 0 .364-.685.54.54 0 0 0-.263-.326.54.54 0 0 0-.205-.062.519.519 0 0 0-.211.023zm2.395-.572a.64.64 0 0 0-.59.672.645.645 0 0 0 .678.597.64.64 0 0 0 .437-.218.64.64 0 0 0 .124-.216.634.634 0 0 0-.65-.835zm2.829-.098a.82.82 0 0 0-.621.121.83.83 0 0 0-.221 1.147.824.824 0 1 0 .843-1.268zm2.945.713a.963.963 0 0 0-.746-.046.97.97 0 0 0-.328.194.978.978 0 0 0-.274 1.048.967.967 0 0 0 .493.557.97.97 0 0 0 1.3-.448.963.963 0 0 0 .048-.745.963.963 0 0 0-.494-.56zM23.9 5.999a1.14 1.14 0 0 0-.819-.312 1.14 1.14 0 0 0-.798.362 1.157 1.157 0 0 0 .055 1.622 1.146 1.146 0 0 0 1.924-.876 1.14 1.14 0 0 0-.363-.796zm2.318 2.914a1.25 1.25 0 0 0-1.682-.497 1.24 1.24 0 0 0-.495 1.677 1.25 1.25 0 0 0 1.682.506 1.25 1.25 0 0 0 .496-1.687zm-8.233 18.809a.72.72 0 0 0 .309.454.718.718 0 0 0 1.096-.745.72.72 0 0 0-.848-.554.72.72 0 0 0-.556.845zm2.865-.691a.835.835 0 0 0 1.106.41.837.837 0 0 0 .405-1.112.83.83 0 0 0-.469-.432.83.83 0 0 0-.637.029.84.84 0 0 0-.427.469.846.846 0 0 0 .023.635zm2.933-1.423c.362.442 1.01.506 1.445.136a1.02 1.02 0 0 0 .368-.695 1.02 1.02 0 0 0-.235-.751 1.008 1.008 0 0 0-1.089-.324 1.042 1.042 0 0 0-.717.884c-.026.27.056.54.228.749zm2.762-2.366a1.192 1.192 0 0 0 1.655-.298 1.19 1.19 0 0 0-.303-1.658 1.19 1.19 0 0 0-1.658.303c-.365.536-.238 1.287.306 1.653zm2.018-3.076a1.403 1.403 0 1 0 .335-2.73 1.4 1.4 0 0 0-.956.482 1.4 1.4 0 0 0-.337 1.019 1.4 1.4 0 0 0 .482.96 1.4 1.4 0 0 0 .476.27zM12.509 1.564a.725.725 0 0 0 .308.458.707.707 0 0 0 .542.101.704.704 0 0 0 .558-.569.733.733 0 0 0-.003-.28.72.72 0 0 0-.84-.521.72.72 0 0 0-.566.81zm-2.971 1.11a.83.83 0 0 0 .471.431.83.83 0 0 0 .637-.031.82.82 0 0 0 .431-.466.83.83 0 0 0-.496-1.063.844.844 0 0 0-.636.021.84.84 0 0 0-.408 1.108zM6.533 4.699a1.02 1.02 0 0 0 1.448.134 1.02 1.02 0 0 0 .368-.69 1.02 1.02 0 0 0-.229-.748 1.02 1.02 0 0 0-.694-.372 1.02 1.02 0 0 0-.752.234 1.02 1.02 0 0 0-.371.692 1.02 1.02 0 0 0 .231.751zM4.004 7.718a1.195 1.195 0 0 0 1.662-.303 1.2 1.2 0 0 0-.31-1.658 1.19 1.19 0 0 0-1.653.302 1.195 1.195 0 0 0 .301 1.659zm-1.541 3.783a1.4 1.4 0 0 0 1.767-.892 1.4 1.4 0 0 0-.892-1.767 1.4 1.4 0 0 0-1.068.08 1.4 1.4 0 0 0-.765 1.354 1.4 1.4 0 0 0 .958 1.225zm13.489 15.764a.62.62 0 0 0-.594.617.62.62 0 0 0 .173.428.618.618 0 0 0 .421.189.62.62 0 0 0 .616-.618.62.62 0 0 0-.616-.617zm-2.59-.39a.72.72 0 0 0-.85.558.72.72 0 0 0-.002.279.722.722 0 0 0 .558.567.708.708 0 0 0 .538-.103.714.714 0 0 0 .308-.453.72.72 0 0 0-.553-.849zm-2.722-.95a.813.813 0 0 0-.314-.079.82.82 0 0 0-.32.048.811.811 0 0 0-.468.43.835.835 0 0 0 .407 1.108.83.83 0 0 0 .656.055.83.83 0 0 0 .49-.44.83.83 0 0 0 .017-.658.83.83 0 0 0-.186-.28.84.84 0 0 0-.282-.184zm-2.659-1.762a1.03 1.03 0 0 0-1.448.136 1.02 1.02 0 0 0-.233.75 1.02 1.02 0 0 0 .369.693 1.02 1.02 0 0 0 .753.236 1.02 1.02 0 0 0 .696-.372 1.024 1.024 0 0 0-.137-1.442zm-2.319-2.577a1.19 1.19 0 0 0-1.655-.298 1.194 1.194 0 0 0-.31 1.656 1.2 1.2 0 0 0 .77.489 1.21 1.21 0 0 0 .892-.192 1.178 1.178 0 0 0 .495-.763 1.188 1.188 0 0 0-.192-.89zm-1.429-3.198a1.404 1.404 0 0 0-2.582-.192 1.401 1.401 0 0 0-.081 1.07 1.4 1.4 0 0 0 .7.814 1.4 1.4 0 0 0 1.07.079 1.406 1.406 0 0 0 .894-1.772l-.001.001zm-.358-3.892a1.62 1.62 0 0 0-1.617-1.552A1.62 1.62 0 0 0 .64 14.497a1.62 1.62 0 0 0 1.616 1.626 1.62 1.62 0 0 0 1.147-.477c.15-.151.269-.33.35-.528a1.62 1.62 0 0 0 .121-.622zM15.945.5a.61.61 0 0 0-.434.18.614.614 0 0 0-.133.2.61.61 0 0 0-.046.235.612.612 0 0 0 .38.568.616.616 0 0 0 .838-.449.624.624 0 0 0-.263-.631.61.61 0 0 0-.342-.103zm2.89.224a.728.728 0 0 0-.538.101.71.71 0 0 0-.312.73.72.72 0 0 0 .555.568.71.71 0 0 0 .542-.1.71.71 0 0 0 .2-.197.703.703 0 0 0 .108-.259.71.71 0 0 0 .003-.279.71.71 0 0 0-.105-.258.71.71 0 0 0-.453-.306zm3.119.841a.841.841 0 0 0-1.105.405.84.84 0 0 0 .404 1.103.823.823 0 0 0 .916-.139.835.835 0 0 0 .191-.264.83.83 0 0 0 .027-.637.83.83 0 0 0-.434-.468l.001-.001zm3.271 1.692a1.02 1.02 0 0 0-.751-.232 1.02 1.02 0 0 0-.693.371 1.02 1.02 0 0 0-.231.75 1.02 1.02 0 0 0 .115.383c.063.119.149.224.253.31a1.02 1.02 0 0 0 .749.233 1.02 1.02 0 0 0 .693-.368 1.02 1.02 0 0 0-.136-1.445zm2.97 2.801a1.19 1.19 0 0 0-1.232-.484 1.19 1.19 0 0 0-.919.953 1.19 1.19 0 0 0 .528 1.214 1.19 1.19 0 0 0 1.324-.023c.26-.18.437-.457.493-.768a1.19 1.19 0 0 0-.194-.892zm2.136 3.673a1.4 1.4 0 0 0-1.763-.874 1.4 1.4 0 0 0-.899 1.751 1.41 1.41 0 0 0 1.768.89 1.405 1.405 0 0 0 .894-1.767zm.93 4.766a1.62 1.62 0 0 0-1.62-1.62 1.62 1.62 0 0 0-1.62 1.62c0 .899.725 1.626 1.619 1.626s1.622-.727 1.622-1.626z"/><path fill="#666" d="M91.695 17.463c0 1.541.057 1.582 1.447 1.582h4.647a.37.37 0 0 1 .364.366v1.174c0 .26-.092.352-.364.387-.59.092-1.784.255-3.965.255-3.05 0-4.662.023-4.662-3.764v-5.815c0-3.784 1.612-3.764 4.662-3.764 2.181 0 3.375.165 3.965.257.271.035.364.128.364.387v1.174a.37.37 0 0 1-.364.37h-4.647c-1.39 0-1.447.041-1.447 1.577v1.686h5.87c.204 0 .364.167.364.365v1.327a.362.362 0 0 1-.364.367h-5.87v2.069zm27.127 3.774a19.98 19.98 0 0 1-4.146-.482c-.182-.037-.348-.165-.348-.366v-1.323a.35.35 0 0 1 .348-.35h.036c.735.092 2.451.332 4.148.332 1.63 0 2.129-.586 2.129-1.65 0-1.378-3.283-2.141-4.886-2.802-1.596-.661-2.162-1.928-2.162-3.212 0-2.023 1.625-3.493 5.035-3.493 1.75 0 3.351.334 3.974.483.184.038.329.166.329.349v1.359c0 .182-.125.33-.312.33h-.034c-1.212-.108-2.469-.333-4.063-.333-1.359 0-2.376.477-2.376 1.305 0 .604.689 1.16 1.503 1.485l3.103 1.228c1.544.627 2.547 1.537 2.547 3.301 0 1.854-1.155 3.84-4.825 3.84zm-9.753-9.199c0-1.379-1.067-1.966-2.905-1.966l-2.382.072v3.984l2.382.056c1.893 0 2.905-.366 2.905-1.981v-.165zm2.752 9.045h-2.24c-.201 0-.274-.185-.364-.367l-2.644-4.454h-.409a73.9 73.9 0 0 1-2.382-.076v4.531c0 .201-.146.367-.346.367h-1.832a.37.37 0 0 1-.26-.108.375.375 0 0 1-.108-.259V8.675c0-.368.216-.497.585-.552.953-.147 3.007-.238 4.343-.238 2.827 0 5.434 1.011 5.434 4.153v.165c0 1.945-.973 3.01-2.477 3.595l2.883 4.918c.038.056.038.108.038.149 0 .125-.076.218-.221.218zM86.912 10.161h-3.66v10.555a.37.37 0 0 1-.37.367h-1.816a.37.37 0 0 1-.367-.367V10.161h-3.662c-.199 0-.364-.127-.364-.329V8.274c0-.205.165-.35.365-.35h9.875a.35.35 0 0 1 .364.35v1.558c0 .203-.165.329-.364.329zm-17.56 11.066c-2.951 0-5.493-1.284-5.493-5.2V8.293c0-.204.167-.35.368-.35h1.813c.204 0 .368.145.368.35v7.733c0 2.096.967 3.09 2.943 3.09 1.982 0 2.949-.995 2.949-3.09V8.295c0-.204.164-.35.365-.35h1.816c.203 0 .369.145.369.35v7.733c0 3.916-2.543 5.201-5.498 5.201l-.001-.001zm-14.694-3.764c0 1.541.06 1.582 1.447 1.582h4.642a.37.37 0 0 1 .369.366v1.174c0 .259-.093.352-.369.387-.586.092-1.78.255-3.962.255-3.046 0-4.66.023-4.66-3.764V11.65c0-3.784 1.614-3.764 4.66-3.764 2.181 0 3.376.209 3.962.3.276.036.369.043.369.299v1.218a.372.372 0 0 1-.369.369h-4.642c-1.387 0-1.447.041-1.447 1.577v1.57h5.871a.37.37 0 0 1 .367.365v1.442a.37.37 0 0 1-.367.367h-5.871v2.069zm-7.863-5.426c0-1.378-1.067-1.965-2.901-1.965l-2.383.072v3.984l2.383.056c1.886 0 2.901-.366 2.901-1.981v-.166zm2.754 9.045h-2.241c-.201 0-.275-.185-.365-.367l-2.642-4.454h-.406a74.86 74.86 0 0 1-2.383-.076v4.53c0 .201-.148.367-.35.367h-1.835a.37.37 0 0 1-.365-.367V8.675c0-.368.217-.497.586-.552.956-.147 3.006-.238 4.347-.238 2.824 0 5.434 1.011 5.434 4.153v.165c0 1.945-.972 3.01-2.476 3.595l2.877 4.918c.039.056.039.108.039.149 0 .125-.074.219-.22.219z"/></svg>