<svg xmlns="http://www.w3.org/2000/svg" width="30" height="30" fill="none"><path fill="#1877f2" d="M30 15c0-8.284-6.716-15-15-15S0 6.716 0 15c0 7.487 5.485 13.692 12.656 14.818V19.336H8.848V15h3.809v-3.305c0-3.759 2.239-5.836 5.666-5.836a23.07 23.07 0 0 1 3.358.293v3.691h-1.892c-1.863 0-2.444 1.156-2.444 2.342V15h4.16l-.665 4.336h-3.495v10.482C24.515 28.693 30 22.487 30 15z"/><path fill="#fff" d="M20.839 19.336 21.504 15h-4.16v-2.814c0-1.186.581-2.342 2.444-2.342h1.892V6.152s-1.717-.293-3.358-.293c-3.426 0-5.666 2.077-5.666 5.836V15H8.848v4.336h3.809v10.482a15.1 15.1 0 0 0 4.688 0V19.336h3.495z"/></svg>