<svg xmlns="http://www.w3.org/2000/svg" xmlns:xlink="http://www.w3.org/1999/xlink" viewBox="0 0 1905.1 1306.2"><style>.I{fill:#fdca50}.J{fill:#fff051}.K{fill:#bf6718}.L{fill:#f5a23d}.M{fill:#d38319}.N{fill:#f59e1c}.O{fill:#f5a54a}.P{fill:#c05836}</style><use xlink:href="#A" class="I"/><use xlink:href="#B" class="K"/><use xlink:href="#C" class="L"/><path d="M430 1391.5c-22.6-6.9-58.1-7.7-81.6-8.2-10.3-.2-17.9-1.5-20.7-3.5-3-2.1-.4-4.9 6.9-7.4 6.4-2.2 18.5-3.5 33-3.6 16-.1 27.4 1.3 29.9 2 5 2.5 15.9 3.4 24.6 2 9-1.4 12.3-4.8 7.5-7.4-9.6-5.3-34.3-6.9-46.4-7.3v-4.9c0-3-8.3-5.5-18.4-5.5-10.2 0-18.4 2.5-18.4 5.5v5.4c-16.1 1.1-29.9 3.4-39.5 6.7-16.7 5.7-21.6 12.7-13.1 18.8 8.2 5.9 27.7 9.7 52.1 10.2 19 .4 44.9 1 57.7 4.9 6.8 2.1 10.2 4.9 9.7 8s-5.1 6.1-12.6 8.2c-14.1 4-36.9 5.5-56.8 3.6-8.8-.8-24.2-3.1-27.8-8.7-1.9-3-11.5-4.9-21.5-4.4-10 .6-16.6 3.4-14.7 6.4 5.2 8.2 24.4 14.5 52.8 17.2 4.5.4 9.1.7 13.7 1v5c0 3 8.3 5.5 18.4 5.5 10.2 0 18.4-2.4 18.4-5.5v-5.4c16.1-1.1 31.1-3.4 43-6.8 14.3-4.1 22.8-9.6 23.8-15.5 1-6.2-6.1-12-20-16.3z" class="M"/><path d="M442.7 1391.5c-22.6-6.9-58.1-7.7-81.6-8.2-10.3-.2-17.9-1.5-20.7-3.5-3-2.1-.4-4.9 6.9-7.4 6.5-2.2 18.5-3.5 33-3.6 16-.1 27.4 1.3 29.9 2 5 2.5 15.9 3.4 24.6 2 9-1.4 12.3-4.8 7.5-7.4-9.6-5.3-34.3-6.9-46.4-7.3v-4.9c0-3-8.3-5.5-18.5-5.5s-18.4 2.5-18.4 5.5v5.4c-16.1 1.1-29.9 3.4-39.6 6.7-16.6 5.7-21.6 12.7-13.1 18.8 8.2 5.9 27.7 9.7 52.1 10.2 19 .4 44.9 1 57.7 4.9 6.8 2.1 10.2 4.9 9.7 8s-5.1 6.1-12.6 8.2c-14.1 4-36.9 5.5-56.8 3.6-8.8-.8-24.2-3.1-27.8-8.7-1.9-3-11.5-4.9-21.5-4.4-10 .6-16.6 3.4-14.7 6.4 5.2 8.2 24.4 14.5 52.8 17.2 4.5.4 9.1.7 13.7 1v5c0 3 8.3 5.5 18.4 5.5 10.2 0 18.5-2.4 18.5-5.5v-5.4c16.1-1.1 31.1-3.4 43-6.8 14.3-4.1 22.8-9.6 23.8-15.5 1.2-6.2-5.9-12-19.9-16.3z" class="I"/><g class="J"><use xlink:href="#D"/><path d="m560.1 1337.7-56.6 10.4c-25.9-6.8-57.7-11.8-92.7-14l70.5-12.9c29.7 4 56.3 9.6 78.8 16.5z"/></g><g class="K"><use xlink:href="#E"/><use xlink:href="#F"/></g><g class="N"><use xlink:href="#G"/><use xlink:href="#H"/></g><path d="M365.7 1475.1c-150.4 0-272.3-36.2-272.3-80.8v63.7c0 44.7 121.9 80.8 272.3 80.8S638 1502.6 638 1458l-1-57.1c-11.2 41.5-128.3 74.2-271.3 74.2z" class="O"/><use xlink:href="#I" class="P"/><use xlink:href="#J" class="I"/><use xlink:href="#K" class="J"/><use xlink:href="#L" class="I"/><use xlink:href="#M" class="J"/><use xlink:href="#N" class="I"/><use xlink:href="#B" y="-78.1" class="K"/><use xlink:href="#O" class="L"/><path d="M430 1313.5c-22.6-6.9-58.1-7.7-81.6-8.2-10.3-.2-17.9-1.5-20.7-3.5-3-2.1-.4-4.9 6.9-7.4 6.4-2.2 18.5-3.5 33-3.6 16-.1 27.4 1.3 29.9 2 5 2.5 15.9 3.4 24.6 2 9-1.4 12.3-4.8 7.5-7.4-9.6-5.3-34.3-6.9-46.4-7.3v-4.9c0-3-8.3-5.5-18.4-5.5-10.2 0-18.4 2.4-18.4 5.5v5.4c-16.1 1.1-29.9 3.4-39.5 6.6-16.7 5.7-21.6 12.7-13.1 18.8 8.2 5.9 27.7 9.7 52.1 10.2 19 .4 44.9 1 57.7 4.9 6.8 2.1 10.2 4.9 9.7 8s-5.1 6.1-12.6 8.2c-14.1 4-36.9 5.5-56.8 3.6-8.8-.8-24.2-3.1-27.8-8.7-1.9-3-11.5-4.9-21.5-4.4-10 .6-16.6 3.4-14.7 6.4 5.2 8.2 24.4 14.5 52.8 17.2 4.5.4 9.1.7 13.7 1v5c0 3 8.3 5.5 18.4 5.5 10.2 0 18.4-2.5 18.4-5.5v-5.4c16.1-1.1 31.1-3.4 43-6.8 14.3-4.1 22.8-9.6 23.8-15.5 1-6.2-6.1-12-20-16.2z" class="M"/><path d="M442.7 1313.5c-22.6-6.9-58.1-7.7-81.6-8.2-10.3-.2-17.9-1.5-20.7-3.5-3-2.1-.4-4.9 6.9-7.4 6.5-2.2 18.5-3.5 33-3.6 16-.1 27.4 1.3 29.9 2 5 2.5 15.9 3.4 24.6 2 9-1.4 12.3-4.8 7.5-7.4-9.6-5.3-34.3-6.9-46.4-7.3v-4.9c0-3-8.3-5.5-18.5-5.5s-18.4 2.4-18.4 5.5v5.4c-16.1 1.1-29.9 3.4-39.6 6.6-16.6 5.7-21.6 12.7-13.1 18.8 8.2 5.9 27.7 9.7 52.1 10.2 19 .4 44.9 1 57.7 4.9 6.8 2.1 10.2 4.9 9.7 8s-5.1 6.1-12.6 8.2c-14.1 4-36.9 5.5-56.8 3.6-8.8-.8-24.2-3.1-27.8-8.7-1.9-3-11.5-4.9-21.5-4.4-10 .6-16.6 3.4-14.7 6.4 5.2 8.2 24.4 14.5 52.8 17.2 4.5.4 9.1.7 13.7 1v5c0 3 8.3 5.5 18.4 5.5 10.2 0 18.5-2.5 18.5-5.5v-5.4c16.1-1.1 31.1-3.4 43-6.8 14.3-4.1 22.8-9.6 23.8-15.5 1.2-6.2-5.9-12-19.9-16.2z" class="I"/><g class="J"><use xlink:href="#P"/><path d="m560.1 1259.6-56.6 10.4c-25.9-6.8-57.7-11.7-92.7-14.1l70.5-12.9c29.7 4.1 56.3 9.8 78.8 16.6z"/></g><g class="K"><use xlink:href="#Q"/><use xlink:href="#F" y="-78.1"/></g><g class="N"><use xlink:href="#G" y="-78.1"/><use xlink:href="#R"/></g><use xlink:href="#S" class="O"/><use xlink:href="#T" class="P"/><use xlink:href="#J" y="-78.1" class="I"/><use xlink:href="#K" y="-78.1" class="J"/><use xlink:href="#AS" class="I"/><use xlink:href="#U" class="J"/><path d="M638.1 1239.4c0 44.6-121.9 80.8-272.3 80.8S93.5 1284 93.5 1239.4c0-44.7 121.9-80.8 272.3-80.8s272.3 36.2 272.3 80.8z" class="I"/><use xlink:href="#B" y="-154.9" class="K"/><path d="M573.7 1239.4c0 32.2-87.9 58.2-196.2 58.2-108.4 0-196.2-26.1-196.2-58.2 0-32.2 87.9-58.2 196.2-58.2s196.2 26.1 196.2 58.2z" class="L"/><path d="M430 1236.7c-22.6-6.9-58.1-7.7-81.6-8.2-10.3-.2-17.9-1.5-20.7-3.5-3-2.1-.4-4.9 6.9-7.4 6.4-2.2 18.5-3.5 33-3.6 16-.1 27.4 1.3 29.9 2 5 2.5 15.9 3.4 24.6 2 9-1.4 12.3-4.8 7.5-7.4-9.6-5.3-34.3-6.9-46.4-7.3v-4.9c0-3-8.3-5.5-18.5-5.5s-18.4 2.4-18.4 5.5v5.4c-16.1 1.1-29.9 3.4-39.5 6.6-16.7 5.7-21.6 12.7-13.1 18.8 8.2 5.9 27.7 9.7 52.1 10.2 19 .4 44.9 1 57.7 4.9 6.8 2.1 10.2 4.9 9.7 8s-5.1 6.1-12.6 8.2c-14.1 4-36.9 5.5-56.8 3.6-8.8-.8-24.2-3.1-27.8-8.8-1.9-3-11.5-4.9-21.5-4.4-10 .6-16.6 3.4-14.7 6.4 5.2 8.2 24.5 14.5 52.8 17.2 4.5.4 9.1.7 13.7 1v5c0 3 8.3 5.5 18.4 5.5 10.2 0 18.5-2.5 18.5-5.5v-5.4c16.1-1.1 31.1-3.4 43-6.8 14.3-4.1 22.8-9.6 23.8-15.5 1-6.1-6.1-11.8-20-16.1z" class="M"/><path d="M442.7 1236.7c-22.6-6.9-58.1-7.7-81.6-8.2-10.3-.2-17.9-1.5-20.7-3.5-3-2.1-.4-4.9 6.9-7.4 6.5-2.2 18.5-3.5 33-3.6 16-.1 27.4 1.3 29.9 2 5 2.5 15.9 3.4 24.6 2 9-1.4 12.3-4.8 7.5-7.4-9.6-5.3-34.3-6.9-46.4-7.3v-4.9c0-3-8.3-5.5-18.4-5.5s-18.5 2.4-18.5 5.5v5.4c-16.1 1.1-29.9 3.4-39.6 6.6-16.6 5.7-21.6 12.7-13.1 18.8 8.2 5.9 27.7 9.7 52.1 10.2 19 .4 44.9 1 57.7 4.9 6.8 2.1 10.2 4.9 9.7 8s-5.1 6.1-12.6 8.2c-14.1 4-36.9 5.5-56.8 3.6-8.8-.8-24.2-3.1-27.8-8.8-1.9-3-11.5-4.9-21.5-4.4-10 .6-16.6 3.4-14.7 6.4 5.2 8.2 24.5 14.5 52.8 17.2 4.5.4 9.1.7 13.7 1v5c0 3 8.3 5.5 18.5 5.5s18.4-2.5 18.4-5.5v-5.4c16.1-1.1 31.1-3.4 43-6.8 14.3-4.1 22.8-9.6 23.8-15.5 1.2-6.1-5.9-11.8-19.9-16.1z" class="I"/><g class="J"><path d="m164.8 1255.3-56.6 10.4c-9.6-8.2-14.8-17.1-14.8-26.3 0-.7 0-1.4.1-2l70.5-12.9c-4.1 4.8-6.2 9.8-6.2 15 0 5.4 2.4 10.8 7 15.8z"/><use xlink:href="#V"/></g><g class="K"><use xlink:href="#E" y="-154.8"/><use xlink:href="#AT"/></g><path d="m320.7 1299.7-70.6 12.9c-24.3-3.4-46.6-7.8-66.3-13.1l57.8-10.6c23.2 5.1 49.9 8.9 79.1 10.8zm317.4-60.3c0 .7 0 1.4-.1 2l-70.9 13c4.3-4.8 6.6-9.8 6.6-15.1 0-3.7-1.2-7.3-3.4-10.8l58.1-10.6c6.3 6.9 9.7 14.1 9.7 21.5z" class="N"/><use xlink:href="#W" class="O"/><use xlink:href="#T" y="-76.8" class="P"/><use xlink:href="#AU" class="I"/><use xlink:href="#K" y="-154.8" class="J"/><use xlink:href="#L" y="-154.9" class="I"/><use xlink:href="#U" y="-76.8" class="J"/><use xlink:href="#X" class="I"/><use xlink:href="#B" y="-232.8" class="K"/><use xlink:href="#O" y="-154.7" class="L"/><path d="M430 1158.7c-22.6-6.9-58.1-7.7-81.6-8.2-10.3-.2-17.9-1.5-20.7-3.5-3-2.1-.4-4.9 6.9-7.4 6.4-2.2 18.5-3.5 33-3.6 16-.1 27.4 1.3 29.9 2 5 2.5 15.9 3.4 24.6 2 9-1.4 12.3-4.8 7.5-7.4-9.6-5.3-34.3-6.9-46.4-7.3v-4.9c0-3-8.3-5.5-18.4-5.5-10.2 0-18.4 2.5-18.4 5.5v5.4c-16.1 1.1-29.9 3.3-39.5 6.6-16.7 5.7-21.6 12.7-13.1 18.8 8.2 5.9 27.7 9.7 52.1 10.2 19 .4 44.9 1 57.7 4.9 6.8 2.1 10.2 4.9 9.7 8s-5.1 6.1-12.6 8.2c-14.1 4-36.9 5.5-56.8 3.6-8.8-.8-24.2-3.1-27.8-8.8-1.9-3-11.5-4.9-21.5-4.4-10 .6-16.6 3.4-14.7 6.4 5.2 8.2 24.4 14.5 52.8 17.2 4.5.4 9.1.7 13.7 1v5c0 3 8.3 5.5 18.4 5.5 10.2 0 18.4-2.5 18.4-5.5v-5.4c16.1-1.1 31.1-3.4 43-6.7 14.3-4.1 22.8-9.6 23.8-15.5 1-6.1-6.1-11.9-20-16.2z" class="M"/><path d="M442.7 1158.7c-22.6-6.9-58.1-7.7-81.6-8.2-10.3-.2-17.9-1.5-20.7-3.5-3-2.1-.4-4.9 6.9-7.4 6.5-2.2 18.5-3.5 33-3.6 16-.1 27.4 1.3 29.9 2 5 2.5 15.9 3.4 24.6 2 9-1.4 12.3-4.8 7.5-7.4-9.6-5.3-34.3-6.9-46.4-7.3v-4.9c0-3-8.3-5.5-18.5-5.5s-18.4 2.4-18.4 5.5v5.4c-16.1 1.1-29.9 3.3-39.6 6.6-16.6 5.7-21.6 12.7-13.1 18.8 8.2 5.9 27.7 9.7 52.1 10.2 19 .4 44.9 1 57.7 4.9 6.8 2.1 10.2 4.9 9.7 8s-5.1 6.1-12.6 8.2c-14.1 4-36.9 5.5-56.8 3.6-8.8-.8-24.2-3.1-27.8-8.8-1.9-3-11.5-4.9-21.5-4.4-10 .6-16.6 3.4-14.7 6.4 5.2 8.2 24.4 14.5 52.8 17.2 4.5.4 9.1.7 13.7 1v5c0 3 8.3 5.5 18.4 5.5 10.2 0 18.5-2.5 18.5-5.5v-5.4c16.1-1.1 31.1-3.4 43-6.7 14.3-4.1 22.8-9.6 23.8-15.5 1.2-6.1-5.9-11.9-19.9-16.2z" class="I"/><g class="J"><use xlink:href="#D" y="-232.8"/><path d="m560.1 1104.9-56.6 10.4c-25.9-6.8-57.7-11.7-92.7-14l70.5-12.9c29.7 4 56.3 9.6 78.8 16.5z"/></g><g class="K"><use xlink:href="#Q" y="-154.7"/><use xlink:href="#F" y="-232.8"/></g><g class="N"><use xlink:href="#G" y="-232.8"/><use xlink:href="#Y"/></g><use xlink:href="#S" y="-154.7" class="O"/><use xlink:href="#T" y="-154.7" class="P"/><use xlink:href="#AU" y="-78" class="I"/><use xlink:href="#K" y="-232.8" class="J"/><use xlink:href="#L" y="-232.8" class="I"/><use xlink:href="#U" y="-154.7" class="J"/><path d="M638.1 1083.4c0 44.6-121.9 80.8-272.3 80.8S93.4 1128 93.4 1083.4s121.9-80.8 272.3-80.8 272.4 36.1 272.4 80.8z" class="I"/><use xlink:href="#B" y="-310.9" class="K"/><use xlink:href="#C" y="-310.9" class="L"/><path d="M430 1080.7c-22.6-6.9-58.1-7.7-81.6-8.2-10.3-.2-17.9-1.5-20.7-3.5-3-2.1-.4-4.9 6.9-7.4 6.4-2.2 18.5-3.5 33-3.6 16-.1 27.4 1.3 29.9 2 5 2.5 15.9 3.4 24.6 2 9-1.4 12.3-4.8 7.5-7.4-9.6-5.3-34.3-6.9-46.4-7.3v-4.9c0-3-8.3-5.5-18.4-5.5-10.2 0-18.4 2.5-18.4 5.5v5.4c-16.1 1.1-29.9 3.3-39.5 6.6-16.7 5.7-21.6 12.7-13.1 18.8 8.2 5.9 27.7 9.7 52.1 10.2 19 .4 44.9 1 57.7 4.9 6.8 2.1 10.2 4.9 9.7 8s-5.1 6.1-12.6 8.2c-14.1 4-36.9 5.5-56.8 3.6-8.8-.8-24.2-3.1-27.8-8.8-1.9-3-11.5-4.9-21.5-4.4-10 .6-16.6 3.4-14.7 6.4 5.2 8.2 24.4 14.5 52.8 17.2 4.5.4 9.1.8 13.7 1v5c0 3 8.3 5.5 18.4 5.5 10.2 0 18.4-2.5 18.4-5.5v-5.4c16.1-1.1 31.1-3.4 43-6.8 14.3-4.1 22.8-9.6 23.8-15.5 1-6.1-6.1-11.9-20-16.1z" class="M"/><path d="M442.7 1080.7c-22.6-6.9-58.1-7.7-81.6-8.2-10.3-.2-17.9-1.5-20.7-3.5-3-2.1-.4-4.9 6.9-7.4 6.5-2.2 18.5-3.5 33-3.6 16-.1 27.4 1.3 29.9 2 5 2.5 15.9 3.4 24.6 2 9-1.4 12.3-4.8 7.5-7.4-9.6-5.3-34.3-6.9-46.4-7.3v-4.9c0-3-8.3-5.5-18.5-5.5s-18.4 2.5-18.4 5.5v5.4c-16.1 1.1-29.9 3.3-39.6 6.6-16.6 5.7-21.6 12.7-13.1 18.8 8.2 5.9 27.7 9.7 52.1 10.2 19 .4 44.9 1 57.7 4.9 6.8 2.1 10.2 4.9 9.7 8s-5.1 6.1-12.6 8.2c-14.1 4-36.9 5.5-56.8 3.6-8.8-.8-24.2-3.1-27.8-8.8-1.9-3-11.5-4.9-21.5-4.4-10 .6-16.6 3.4-14.7 6.4 5.2 8.2 24.4 14.5 52.8 17.2 4.5.4 9.1.8 13.7 1v5c0 3 8.3 5.5 18.4 5.5 10.2 0 18.5-2.5 18.5-5.5v-5.4c16.1-1.1 31.1-3.4 43-6.8 14.3-4.1 22.8-9.6 23.8-15.5 1.2-6.1-5.9-11.9-19.9-16.1z" class="I"/><g class="J"><use xlink:href="#P" y="-232.8"/><use xlink:href="#V" y="-156"/></g><g class="K"><use xlink:href="#Q" y="-232.8"/><use xlink:href="#F" y="-310.9"/></g><g class="N"><path d="m320.7 1143.7-70.6 12.9c-24.3-3.4-46.6-7.8-66.3-13.1l57.8-10.6c23.2 5.1 49.9 8.8 79.1 10.8z"/><use xlink:href="#Z"/></g><use xlink:href="#a" class="O"/><use xlink:href="#b" class="P"/><path d="M273.4 1159.5c-14.8-1.6-28.9-3.5-42.4-5.8v63.7c13.5 2.3 27.6 4.3 42.4 5.8v-63.7z" class="I"/><use xlink:href="#K" y="-310.9" class="J"/><use xlink:href="#L" y="-310.9" class="I"/><use xlink:href="#c" class="J"/><use xlink:href="#d" class="I"/><use xlink:href="#B" y="-387.7" class="K"/><path d="M573.7 1006.6c0 32.2-87.9 58.3-196.2 58.3-108.4 0-196.2-26.1-196.2-58.3s87.9-58.2 196.2-58.2 196.2 26.1 196.2 58.2z" class="L"/><path d="M430 1003.9c-22.6-7-58.1-7.7-81.6-8.2-10.3-.2-17.9-1.5-20.7-3.5-3-2.1-.4-4.9 6.9-7.4 6.4-2.2 18.5-3.5 33-3.6 16-.1 27.4 1.3 29.9 2 5 2.5 15.9 3.4 24.6 2 9-1.4 12.3-4.8 7.5-7.4-9.6-5.3-34.3-6.9-46.4-7.3v-4.9c0-3-8.3-5.5-18.5-5.5s-18.4 2.4-18.4 5.5v5.4c-16.1 1.1-29.9 3.4-39.5 6.6-16.7 5.7-21.6 12.7-13.1 18.8 8.2 5.9 27.7 9.7 52.1 10.2 19 .4 44.9 1 57.7 4.9 6.8 2.1 10.2 4.9 9.7 8s-5.1 6.1-12.6 8.2c-14.1 4-36.9 5.5-56.8 3.6-8.8-.8-24.2-3.1-27.8-8.7-1.9-3-11.5-4.9-21.5-4.4-10 .6-16.6 3.4-14.7 6.4 5.2 8.2 24.5 14.5 52.8 17.2 4.5.4 9.1.7 13.7 1v5c0 3 8.3 5.5 18.4 5.5 10.2 0 18.5-2.4 18.5-5.5v-5.4c16.1-1.1 31.1-3.4 43-6.8 14.3-4.1 22.8-9.6 23.8-15.5 1-6.2-6.1-11.9-20-16.2z" class="M"/><path d="M442.7 1003.9c-22.6-6.9-58.1-7.7-81.6-8.2-10.3-.2-17.9-1.5-20.7-3.5-3-2.1-.4-4.9 6.9-7.4 6.5-2.2 18.5-3.5 33-3.6 16-.1 27.4 1.3 29.9 2 5 2.5 15.9 3.4 24.6 2 9-1.4 12.3-4.8 7.5-7.4-9.6-5.3-34.3-6.9-46.4-7.3v-4.9c0-3-8.3-5.5-18.4-5.5s-18.5 2.4-18.5 5.5v5.4c-16.1 1.1-29.9 3.4-39.6 6.6-16.6 5.7-21.6 12.7-13.1 18.8 8.2 5.9 27.7 9.7 52.1 10.2 19 .4 44.9 1 57.7 4.9 6.8 2.1 10.2 4.9 9.7 8s-5.1 6.1-12.6 8.2c-14.1 4-36.9 5.5-56.8 3.6-8.8-.8-24.2-3.1-27.8-8.7-1.9-3-11.5-4.9-21.5-4.4-10 .6-16.6 3.4-14.7 6.4 5.2 8.2 24.5 14.5 52.8 17.2 4.5.4 9.1.7 13.7 1v5c0 3 8.3 5.5 18.5 5.5s18.4-2.4 18.4-5.5v-5.4c16.1-1.1 31.1-3.4 43-6.8 14.3-4.1 22.8-9.6 23.8-15.5 1.2-6.2-5.9-11.9-19.9-16.2z" class="I"/><g class="J"><path d="m164.8 1022.5-56.6 10.4c-9.6-8.3-14.8-17.1-14.8-26.3 0-.7 0-1.4.1-2l70.5-12.9c-4.1 4.8-6.2 9.8-6.2 15 0 5.4 2.4 10.8 7 15.8z"/><use xlink:href="#e"/></g><g class="K"><use xlink:href="#E" y="-387.6"/><use xlink:href="#AV"/></g><g class="N"><use xlink:href="#G" y="-387.6"/><use xlink:href="#R" y="-309.6"/></g><path d="M365.7 1087.5c-150.4 0-272.3-36.2-272.3-80.8v63.7c0 44.6 121.9 80.8 272.3 80.8S638 1115 638 1070.4l-1-57.1c-11.2 41.5-128.3 74.2-271.3 74.2z" class="O"/><use xlink:href="#T" y="-309.6" class="P"/><use xlink:href="#J" y="-387.6" class="I"/><use xlink:href="#K" y="-387.6" class="J"/><use xlink:href="#L" y="-387.7" class="I"/><use xlink:href="#f" class="J"/><use xlink:href="#A" x="631" class="I"/><use xlink:href="#g" class="K"/><use xlink:href="#h" class="L"/><path d="M1061 1391.5c-22.6-6.9-58.1-7.7-81.6-8.2-10.3-.2-17.9-1.5-20.7-3.5-3-2.1-.4-4.9 6.9-7.4 6.5-2.2 18.5-3.5 33-3.6 16-.1 27.4 1.3 29.9 2 5 2.5 15.9 3.4 24.6 2 9-1.4 12.3-4.8 7.5-7.4-9.6-5.3-34.3-6.9-46.4-7.3v-4.9c0-3-8.3-5.5-18.5-5.5s-18.4 2.5-18.4 5.5v5.4c-16.1 1.1-29.9 3.4-39.6 6.7-16.6 5.7-21.6 12.7-13.1 18.8 8.2 5.9 27.7 9.7 52.1 10.2 19 .4 44.9 1 57.7 4.9 6.8 2.1 10.2 4.9 9.7 8s-5.1 6.1-12.6 8.2c-14.1 4-36.9 5.5-56.8 3.6-8.9-.8-24.2-3.1-27.8-8.7-1.9-3-11.5-4.9-21.5-4.4-10 .6-16.6 3.4-14.7 6.4 5.2 8.2 24.4 14.5 52.8 17.2 4.5.4 9.1.7 13.7 1v5c0 3 8.3 5.5 18.4 5.5 10.2 0 18.5-2.4 18.5-5.5v-5.4c16.1-1.1 31.1-3.4 43-6.8 14.3-4.1 22.8-9.6 23.8-15.5 1.2-6.2-5.9-12-19.9-16.3z" class="M"/><path d="M1073.7 1391.5c-22.6-6.9-58.1-7.7-81.6-8.2-10.3-.2-17.9-1.5-20.7-3.5-3-2.1-.4-4.9 6.9-7.4 6.5-2.2 18.5-3.5 33-3.6 16-.1 27.4 1.3 29.9 2 5 2.5 15.9 3.4 24.6 2 9-1.4 12.3-4.8 7.5-7.4-9.6-5.3-34.3-6.9-46.4-7.3v-4.9c0-3-8.3-5.5-18.4-5.5-10.2 0-18.4 2.5-18.4 5.5v5.4c-16.1 1.1-29.9 3.4-39.6 6.7-16.6 5.7-21.5 12.7-13.1 18.8 8.2 5.9 27.7 9.7 52.1 10.2 19 .4 44.9 1 57.7 4.9 6.8 2.1 10.2 4.9 9.7 8s-5.1 6.1-12.6 8.2c-14.1 4-36.9 5.5-56.8 3.6-8.9-.8-24.2-3.1-27.8-8.7-1.9-3-11.5-4.9-21.5-4.4-10 .6-16.6 3.4-14.7 6.4 5.2 8.2 24.4 14.5 52.8 17.2 4.5.4 9.1.7 13.7 1v5c0 3 8.3 5.5 18.4 5.5 10.2 0 18.4-2.4 18.4-5.5v-5.4c16.1-1.1 31.1-3.4 43-6.8 14.3-4.1 22.8-9.6 23.8-15.5 1.2-6.2-5.9-12-19.9-16.3z" class="I"/><g class="J"><use xlink:href="#i"/><path d="m1191.2 1337.7-56.6 10.4c-25.9-6.8-57.7-11.8-92.7-14l70.5-12.9c29.6 4 56.2 9.6 78.8 16.5z"/></g><g class="K"><use xlink:href="#E" x="631"/><use xlink:href="#j"/></g><g class="N"><use xlink:href="#k"/><path d="m1269.1 1394.3-.1 2.1-71 13c4.3-4.8 6.6-9.9 6.6-15.1 0-3.7-1.2-7.3-3.4-10.8l58.1-10.7c6.5 6.9 9.8 14 9.8 21.5z"/></g><use xlink:href="#l" class="O"/><use xlink:href="#I" x="631" class="P"/><use xlink:href="#m" class="I"/><use xlink:href="#K" x="631.1" class="J"/><use xlink:href="#n" class="I"/><use xlink:href="#M" x="631" class="J"/><use xlink:href="#N" x="631" class="I"/><use xlink:href="#B" x="631" y="-78.1" class="K"/><use xlink:href="#o" class="L"/><path d="M1061 1313.5c-22.6-6.9-58.1-7.7-81.6-8.2-10.3-.2-17.9-1.5-20.7-3.5-3-2.1-.4-4.9 6.9-7.4 6.5-2.2 18.5-3.5 33-3.6 16-.1 27.4 1.3 29.9 2 5 2.5 15.9 3.4 24.6 2 9-1.4 12.3-4.8 7.5-7.4-9.6-5.3-34.3-6.9-46.4-7.3v-4.9c0-3-8.3-5.5-18.5-5.5s-18.4 2.4-18.4 5.5v5.4c-16.1 1.1-29.9 3.4-39.6 6.6-16.6 5.7-21.6 12.7-13.1 18.8 8.2 5.9 27.7 9.7 52.1 10.2 19 .4 44.9 1 57.7 4.9 6.8 2.1 10.2 4.9 9.7 8s-5.1 6.1-12.6 8.2c-14.1 4-36.9 5.5-56.8 3.6-8.9-.8-24.2-3.1-27.8-8.7-1.9-3-11.5-4.9-21.5-4.4-10 .6-16.6 3.4-14.7 6.4 5.2 8.2 24.4 14.5 52.8 17.2 4.5.4 9.1.7 13.7 1v5c0 3 8.3 5.5 18.4 5.5 10.2 0 18.5-2.5 18.5-5.5v-5.4c16.1-1.1 31.1-3.4 43-6.8 14.3-4.1 22.8-9.6 23.8-15.5 1.2-6.2-5.9-12-19.9-16.2z" class="M"/><path d="M1073.7 1313.5c-22.6-6.9-58.1-7.7-81.6-8.2-10.3-.2-17.9-1.5-20.7-3.5-3-2.1-.4-4.9 6.9-7.4 6.5-2.2 18.5-3.5 33-3.6 16-.1 27.4 1.3 29.9 2 5 2.5 15.9 3.4 24.6 2 9-1.4 12.3-4.8 7.5-7.4-9.6-5.3-34.3-6.9-46.4-7.3v-4.9c0-3-8.3-5.5-18.4-5.5-10.2 0-18.4 2.4-18.4 5.5v5.4c-16.1 1.1-29.9 3.4-39.6 6.6-16.6 5.7-21.5 12.7-13.1 18.8 8.2 5.9 27.7 9.7 52.1 10.2 19 .4 44.9 1 57.7 4.9 6.8 2.1 10.2 4.9 9.7 8s-5.1 6.1-12.6 8.2c-14.1 4-36.9 5.5-56.8 3.6-8.9-.8-24.2-3.1-27.8-8.7-1.9-3-11.5-4.9-21.5-4.4-10 .6-16.6 3.4-14.7 6.4 5.2 8.2 24.4 14.5 52.8 17.2 4.5.4 9.1.7 13.7 1v5c0 3 8.3 5.5 18.4 5.5 10.2 0 18.4-2.5 18.4-5.5v-5.4c16.1-1.1 31.1-3.4 43-6.8 14.3-4.1 22.8-9.6 23.8-15.5 1.2-6.2-5.9-12-19.9-16.2z" class="I"/><g class="J"><use xlink:href="#p"/><path d="m1191.2 1259.6-56.6 10.4c-25.9-6.8-57.7-11.7-92.7-14.1l70.5-12.9c29.6 4.1 56.2 9.8 78.8 16.6z"/></g><g class="K"><use xlink:href="#Q" x="631"/><use xlink:href="#j" y="-78.1"/></g><g class="N"><use xlink:href="#k" y="-78.1"/><use xlink:href="#q"/></g><use xlink:href="#r" class="O"/><use xlink:href="#T" x="631" class="P"/><use xlink:href="#m" y="-78.1" class="I"/><use xlink:href="#K" x="631.1" y="-78.1" class="J"/><path d="M1102.4 1454.4c19.9-2.5 38.5-5.7 55.6-9.4v-63.7c-17.1 3.8-35.8 6.9-55.6 9.4v63.7z" class="I"/><use xlink:href="#U" x="631" class="J"/><use xlink:href="#s" class="I"/><use xlink:href="#B" x="631" y="-154.9" class="K"/><use xlink:href="#t" class="L"/><use xlink:href="#u" class="M"/><use xlink:href="#v" class="I"/><g class="J"><path d="m795.9 1255.3-56.6 10.4c-9.6-8.2-14.8-17.1-14.8-26.3 0-.7 0-1.4.1-2l70.5-12.9c-4.1 4.8-6.2 9.8-6.2 15-.1 5.4 2.4 10.8 7 15.8z"/><use xlink:href="#w"/></g><path d="m829.8 1276.2-54.9 10.1c-8.6-3.6-16.2-7.4-22.8-11.3l55.1-10.1c6.2 4 13.7 7.8 22.6 11.3zm407.5-74.7-54.9 10.1c-6.7-4-14.9-7.7-24.3-11.1l55.1-10.1c9 3.4 17 7.1 24.1 11.1z" class="K"/><path d="m951.7 1299.7-70.6 12.9c-24.3-3.4-46.6-7.8-66.3-13.1l57.8-10.6c23.2 5.1 50 8.9 79.1 10.8zm317.4-60.3c0 .7 0 1.4-.1 2l-70.9 13c4.3-4.8 6.6-9.8 6.6-15.1 0-3.7-1.2-7.3-3.4-10.8l58.1-10.6c6.4 6.9 9.7 14.1 9.7 21.5z" class="N"/><path d="M996.8 1320.2c-150.4 0-272.3-36.2-272.3-80.8v63.7c0 44.6 121.9 80.8 272.3 80.8s272.3-36.2 272.3-80.8l-1-57.1c-11.2 41.6-128.4 74.2-271.3 74.2z" class="O"/><use xlink:href="#T" x="631" y="-76.8" class="P"/><use xlink:href="#x" class="I"/><use xlink:href="#K" x="631.1" y="-154.8" class="J"/><use xlink:href="#L" x="631" y="-154.9" class="I"/><use xlink:href="#U" x="631" y="-76.8" class="J"/><use xlink:href="#X" x="631" class="I"/><use xlink:href="#g" y="-232.8" class="K"/><use xlink:href="#o" y="-154.7" class="L"/><path d="M1061 1158.7c-22.6-6.9-58.1-7.7-81.6-8.2-10.3-.2-17.9-1.5-20.7-3.5-3-2.1-.4-4.9 6.9-7.4 6.5-2.2 18.5-3.5 33-3.6 16-.1 27.4 1.3 29.9 2 5 2.5 15.9 3.4 24.6 2 9-1.4 12.3-4.8 7.5-7.4-9.6-5.3-34.3-6.9-46.4-7.3v-4.9c0-3-8.3-5.5-18.5-5.5s-18.4 2.5-18.4 5.5v5.4c-16.1 1.1-29.9 3.3-39.6 6.6-16.6 5.7-21.6 12.7-13.1 18.8 8.2 5.9 27.7 9.7 52.1 10.2 19 .4 44.9 1 57.7 4.9 6.8 2.1 10.2 4.9 9.7 8s-5.1 6.1-12.6 8.2c-14.1 4-36.9 5.5-56.8 3.6-8.9-.8-24.2-3.1-27.8-8.8-1.9-3-11.5-4.9-21.5-4.4-10 .6-16.6 3.4-14.7 6.4 5.2 8.2 24.4 14.5 52.8 17.2 4.5.4 9.1.7 13.7 1v5c0 3 8.3 5.5 18.4 5.5 10.2 0 18.5-2.5 18.5-5.5v-5.4c16.1-1.1 31.1-3.4 43-6.7 14.3-4.1 22.8-9.6 23.8-15.5 1.2-6.1-5.9-11.9-19.9-16.2z" class="M"/><path d="M1073.7 1158.7c-22.6-6.9-58.1-7.7-81.6-8.2-10.3-.2-17.9-1.5-20.7-3.5-3-2.1-.4-4.9 6.9-7.4 6.5-2.2 18.5-3.5 33-3.6 16-.1 27.4 1.3 29.9 2 5 2.5 15.9 3.4 24.6 2 9-1.4 12.3-4.8 7.5-7.4-9.6-5.3-34.3-6.9-46.4-7.3v-4.9c0-3-8.3-5.5-18.4-5.5-10.2 0-18.4 2.4-18.4 5.5v5.4c-16.1 1.1-29.9 3.3-39.6 6.6-16.6 5.7-21.5 12.7-13.1 18.8 8.2 5.9 27.7 9.7 52.1 10.2 19 .4 44.9 1 57.7 4.9 6.8 2.1 10.2 4.9 9.7 8s-5.1 6.1-12.6 8.2c-14.1 4-36.9 5.5-56.8 3.6-8.9-.8-24.2-3.1-27.8-8.8-1.9-3-11.5-4.9-21.5-4.4-10 .6-16.6 3.4-14.7 6.4 5.2 8.2 24.4 14.5 52.8 17.2 4.5.4 9.1.7 13.7 1v5c0 3 8.3 5.5 18.4 5.5 10.2 0 18.4-2.5 18.4-5.5v-5.4c16.1-1.1 31.1-3.4 43-6.7 14.3-4.1 22.8-9.6 23.8-15.5 1.2-6.1-5.9-11.9-19.9-16.2z" class="I"/><g class="J"><use xlink:href="#i" y="-232.8"/><path d="m1191.2 1104.9-56.6 10.4c-25.9-6.8-57.7-11.7-92.7-14l70.5-12.9c29.6 4 56.2 9.6 78.8 16.5z"/></g><g class="K"><use xlink:href="#Q" x="631" y="-154.7"/><use xlink:href="#j" y="-232.8"/></g><g class="N"><use xlink:href="#k" y="-232.8"/><path d="M1269.1 1161.5c0 .7 0 1.4-.1 2l-71 13c4.3-4.8 6.6-9.8 6.6-15.1 0-3.7-1.2-7.3-3.4-10.8l58.1-10.7c6.5 7 9.8 14.1 9.8 21.6z"/></g><use xlink:href="#r" y="-154.7" class="O"/><use xlink:href="#T" x="631" y="-154.7" class="P"/><use xlink:href="#x" y="-78" class="I"/><use xlink:href="#K" x="631.1" y="-232.8" class="J"/><use xlink:href="#n" y="-232.8" class="I"/><use xlink:href="#U" x="631" y="-154.7" class="J"/><use xlink:href="#A" x="631" y="-310.9" class="I"/><use xlink:href="#B" x="631" y="-310.9" class="K"/><use xlink:href="#h" y="-310.9" class="L"/><path d="M1061 1080.7c-22.6-6.9-58.1-7.7-81.6-8.2-10.3-.2-17.9-1.5-20.7-3.5-3-2.1-.4-4.9 6.9-7.4 6.5-2.2 18.5-3.5 33-3.6 16-.1 27.4 1.3 29.9 2 5 2.5 15.9 3.4 24.6 2 9-1.4 12.3-4.8 7.5-7.4-9.6-5.3-34.3-6.9-46.4-7.3v-4.9c0-3-8.3-5.5-18.5-5.5s-18.4 2.5-18.4 5.5v5.4c-16.1 1.1-29.9 3.3-39.6 6.6-16.6 5.7-21.6 12.7-13.1 18.8 8.2 5.9 27.7 9.7 52.1 10.2 19 .4 44.9 1 57.7 4.9 6.8 2.1 10.2 4.9 9.7 8s-5.1 6.1-12.6 8.2c-14.1 4-36.9 5.5-56.8 3.6-8.9-.8-24.2-3.1-27.8-8.8-1.9-3-11.5-4.9-21.5-4.4-10 .6-16.6 3.4-14.7 6.4 5.2 8.2 24.4 14.5 52.8 17.2 4.5.4 9.1.8 13.7 1v5c0 3 8.3 5.5 18.4 5.5 10.2 0 18.5-2.5 18.5-5.5v-5.4c16.1-1.1 31.1-3.4 43-6.8 14.3-4.1 22.8-9.6 23.8-15.5 1.2-6.1-5.9-11.9-19.9-16.1z" class="M"/><path d="M1073.7 1080.7c-22.6-6.9-58.1-7.7-81.6-8.2-10.3-.2-17.9-1.5-20.7-3.5-3-2.1-.4-4.9 6.9-7.4 6.5-2.2 18.5-3.5 33-3.6 16-.1 27.4 1.3 29.9 2 5 2.5 15.9 3.4 24.6 2 9-1.4 12.3-4.8 7.5-7.4-9.6-5.3-34.3-6.9-46.4-7.3v-4.9c0-3-8.3-5.5-18.4-5.5-10.2 0-18.4 2.5-18.4 5.5v5.4c-16.1 1.1-29.9 3.3-39.6 6.6-16.6 5.7-21.5 12.7-13.1 18.8 8.2 5.9 27.7 9.7 52.1 10.2 19 .4 44.9 1 57.7 4.9 6.8 2.1 10.2 4.9 9.7 8s-5.1 6.1-12.6 8.2c-14.1 4-36.9 5.5-56.8 3.6-8.9-.8-24.2-3.1-27.8-8.8-1.9-3-11.5-4.9-21.5-4.4-10 .6-16.6 3.4-14.7 6.4 5.2 8.2 24.4 14.5 52.8 17.2 4.5.4 9.1.8 13.7 1v5c0 3 8.3 5.5 18.4 5.5 10.2 0 18.4-2.5 18.4-5.5v-5.4c16.1-1.1 31.1-3.4 43-6.8 14.3-4.1 22.8-9.6 23.8-15.5 1.2-6.1-5.9-11.9-19.9-16.1z" class="I"/><g class="J"><use xlink:href="#p" y="-232.8"/><use xlink:href="#w" y="-156"/></g><g class="K"><use xlink:href="#Q" x="631" y="-232.8"/><use xlink:href="#j" y="-310.9"/></g><path d="m951.7 1143.7-70.6 12.9c-24.3-3.4-46.6-7.8-66.3-13.1l57.8-10.6c23.2 5.1 50 8.8 79.1 10.8zm317.4-60.3c0 .7 0 1.4-.1 2l-71 13c4.3-4.8 6.6-9.8 6.6-15.1 0-3.7-1.2-7.3-3.4-10.8l58.1-10.7c6.5 7 9.8 14.2 9.8 21.6z" class="N"/><use xlink:href="#l" y="-310.9" class="O"/><use xlink:href="#b" x="631" class="P"/><use xlink:href="#AW" class="I"/><use xlink:href="#K" x="631.1" y="-310.9" class="J"/><use xlink:href="#n" y="-310.9" class="I"/><use xlink:href="#c" x="631" class="J"/><use xlink:href="#d" x="631" class="I"/><use xlink:href="#B" x="631" y="-387.7" class="K"/><path d="M1204.7 1006.6c0 32.2-87.9 58.3-196.2 58.3-108.4 0-196.2-26.1-196.2-58.3s87.8-58.2 196.2-58.2 196.2 26.1 196.2 58.2z" class="L"/><path d="M1061 1003.9c-22.6-7-58.1-7.7-81.6-8.2-10.3-.2-17.9-1.5-20.7-3.5-3-2.1-.4-4.9 6.9-7.4 6.4-2.2 18.5-3.5 33-3.6 16-.1 27.4 1.3 29.9 2 5 2.5 15.9 3.4 24.6 2 9-1.4 12.3-4.8 7.5-7.4-9.6-5.3-34.3-6.9-46.4-7.3v-4.9c0-3-8.3-5.5-18.5-5.5s-18.4 2.4-18.4 5.5v5.4c-16.1 1.1-29.9 3.4-39.6 6.6-16.6 5.7-21.6 12.7-13.1 18.8 8.2 5.9 27.7 9.7 52.1 10.2 19 .4 44.9 1 57.7 4.9 6.8 2.1 10.2 4.9 9.7 8s-5.1 6.1-12.6 8.2c-14.1 4-36.9 5.5-56.8 3.6-8.8-.8-24.2-3.1-27.8-8.7-1.9-3-11.5-4.9-21.5-4.4-10 .6-16.6 3.4-14.7 6.4 5.2 8.2 24.5 14.5 52.8 17.2 4.5.4 9.1.7 13.7 1v5c0 3 8.3 5.5 18.4 5.5 10.2 0 18.5-2.4 18.5-5.5v-5.4c16.1-1.1 31.1-3.4 43-6.8 14.3-4.1 22.8-9.6 23.8-15.5 1.2-6.2-5.9-11.9-19.9-16.2z" class="M"/><path d="M1073.7 1003.9c-22.6-6.9-58.1-7.7-81.6-8.2-10.3-.2-17.9-1.5-20.7-3.5-3-2.1-.4-4.9 6.9-7.4 6.5-2.2 18.5-3.5 33-3.6 16-.1 27.4 1.3 29.9 2 5 2.5 15.9 3.4 24.6 2 9-1.4 12.3-4.8 7.5-7.4-9.6-5.3-34.3-6.9-46.4-7.3v-4.9c0-3-8.3-5.5-18.4-5.5-10.2 0-18.5 2.4-18.5 5.5v5.4c-16.1 1.1-29.9 3.4-39.6 6.6-16.6 5.7-21.5 12.7-13.1 18.8 8.2 5.9 27.7 9.7 52.1 10.2 19 .4 44.9 1 57.7 4.9 6.8 2.1 10.2 4.9 9.7 8s-5.1 6.1-12.6 8.2c-14.1 4-36.9 5.5-56.8 3.6-8.8-.8-24.2-3.1-27.8-8.7-1.9-3-11.5-4.9-21.5-4.4-10 .6-16.6 3.4-14.7 6.4 5.2 8.2 24.4 14.5 52.8 17.2 4.5.4 9.1.7 13.7 1v5c0 3 8.3 5.5 18.5 5.5s18.4-2.4 18.4-5.5v-5.4c16.1-1.1 31.1-3.4 43-6.8 14.3-4.1 22.8-9.6 23.8-15.5 1.2-6.2-5.9-11.9-19.9-16.2z" class="I"/><path d="m795.9 1022.5-56.6 10.4c-9.6-8.3-14.8-17.1-14.8-26.3 0-.7 0-1.4.1-2l70.5-12.9c-4.1 4.8-6.2 9.8-6.2 15-.1 5.4 2.4 10.8 7 15.8zm395.3-72.5-56.6 10.4c-25.9-6.8-57.7-11.8-92.7-14l70.5-12.9c29.6 4 56.2 9.7 78.8 16.5z" class="J"/><path d="m829.8 1043.4-54.9 10.1c-8.6-3.6-16.2-7.4-22.8-11.3l55.1-10.1c6.2 4 13.7 7.8 22.6 11.3zm407.5-74.7-54.9 10.1c-6.7-4-14.9-7.7-24.3-11.1l55.1-10.1a187.78 187.78 0 0 1 24.1 11.1z" class="K"/><g class="N"><use xlink:href="#k" y="-387.6"/><path d="m1269.1 1006.6-.1 2.1-70.9 13c4.3-4.8 6.6-9.9 6.6-15.1 0-3.7-1.2-7.3-3.4-10.8l58.1-10.7c6.4 6.9 9.7 14.1 9.7 21.5z"/></g><use xlink:href="#r" y="-309.5" class="O"/><use xlink:href="#T" x="631" y="-309.6" class="P"/><use xlink:href="#m" y="-387.6" class="I"/><use xlink:href="#K" x="631.1" y="-387.6" class="J"/><use xlink:href="#L" x="631" y="-387.7" class="I"/><use xlink:href="#f" x="631" class="J"/><use xlink:href="#s" y="-317.7" class="I"/><path d="M1204.7 921.7c0 34.1-93.1 61.7-207.9 61.7s-207.9-27.6-207.9-61.7S882 860 996.8 860s207.9 27.7 207.9 61.7z" class="K"/><use xlink:href="#t" y="-317.7" class="L"/><path d="M1061 919c-22.6-6.9-58.1-7.7-81.6-8.2-10.3-.2-17.9-1.5-20.7-3.5-3-2.1-.4-4.9 6.9-7.4 6.5-2.2 18.5-3.5 33-3.6 16-.1 27.4 1.3 29.9 2 5 2.5 15.9 3.4 24.6 2 9-1.4 12.3-4.8 7.5-7.4-9.6-5.3-34.3-6.9-46.4-7.3v-4.9c0-3-8.3-5.5-18.5-5.5s-18.4 2.5-18.4 5.5v5.4c-16.1 1.1-29.9 3.4-39.6 6.7-16.6 5.7-21.6 12.7-13.1 18.8 8.2 5.9 27.7 9.7 52.1 10.2 19 .4 44.9 1 57.7 4.9 6.8 2.1 10.2 4.9 9.7 8s-5.1 6.1-12.6 8.2c-14.1 4-36.9 5.5-56.8 3.6-8.9-.8-24.2-3.1-27.8-8.7-1.9-3-11.5-4.9-21.5-4.4-10 .6-16.6 3.4-14.7 6.4 5.2 8.2 24.4 14.5 52.8 17.2 4.5.4 9.1.7 13.7 1v5c0 3 8.3 5.5 18.4 5.5 10.2 0 18.5-2.5 18.5-5.5v-5.4c16.1-1.1 31.1-3.4 43-6.7 14.3-4.1 22.8-9.6 23.8-15.5 1.2-6.4-5.9-12.1-19.9-16.4z" class="M"/><path d="M1073.7 919c-22.6-6.9-58.1-7.7-81.6-8.2-10.3-.2-17.9-1.5-20.7-3.5-3-2.1-.4-4.9 6.9-7.4 6.5-2.2 18.5-3.5 33-3.6 16-.1 27.4 1.3 29.9 2 5 2.5 15.9 3.4 24.6 2 9-1.4 12.3-4.8 7.5-7.4-9.6-5.3-34.3-6.9-46.4-7.3v-4.9c0-3-8.3-5.5-18.4-5.5-10.2 0-18.4 2.4-18.4 5.5v5.4c-16.1 1.1-29.9 3.4-39.6 6.7-16.6 5.7-21.5 12.7-13.1 18.8 8.2 5.9 27.7 9.7 52.1 10.2 19 .4 44.9 1 57.7 4.9 6.8 2.1 10.2 4.9 9.7 8s-5.1 6.1-12.6 8.2c-14.1 4-36.9 5.5-56.8 3.6-8.9-.8-24.2-3.1-27.8-8.7-1.9-3-11.5-4.9-21.5-4.4-10 .6-16.6 3.4-14.7 6.4 5.2 8.2 24.4 14.5 52.8 17.2 4.5.4 9.1.7 13.7 1v5c0 3 8.3 5.5 18.4 5.5 10.2 0 18.4-2.5 18.4-5.5v-5.4c16.1-1.1 31.1-3.4 43-6.7 14.3-4.1 22.8-9.6 23.8-15.5 1.2-6.4-5.9-12.1-19.9-16.4z" class="I"/><path d="M795.9 937.7 739.2 948c-9.6-8.2-14.8-17.1-14.8-26.3 0-.7 0-1.4.1-2l70.5-12.9c-4.1 4.8-6.2 9.8-6.2 15 0 5.4 2.5 10.8 7.1 15.9zm395.3-72.6-56.6 10.4c-25.9-6.8-57.7-11.8-92.7-14l70.5-12.9c29.6 4 56.2 9.7 78.8 16.5z" class="J"/><g class="K"><use xlink:href="#E" x="631" y="-472.5"/><use xlink:href="#j" y="-472.5"/></g><g class="N"><use xlink:href="#k" y="-472.5"/><use xlink:href="#q" y="-394.5"/></g><use xlink:href="#r" y="-394.4" class="O"/><use xlink:href="#T" x="631" y="-394.5" class="P"/><use xlink:href="#AX" class="I"/><use xlink:href="#AY" class="J"/><path d="M1102.4 1060c19.9-2.5 38.5-5.7 55.6-9.4v-63.7c-17.1 3.7-35.8 6.9-55.6 9.4v63.7z" class="I"/><use xlink:href="#AZ" class="J"/><use xlink:href="#A" x="631" y="-550.6" class="I"/><path d="M1204.7 843.7c0 34.1-93.1 61.7-207.9 61.7s-207.9-27.6-207.9-61.7S882 782 996.8 782c114.8-.1 207.9 27.6 207.9 61.7z" class="K"/><use xlink:href="#o" y="-472.5" class="L"/><path d="M1061 840.9c-22.6-6.9-58.1-7.7-81.6-8.2-10.3-.2-17.9-1.5-20.7-3.5-3-2.1-.4-4.9 6.9-7.4 6.5-2.2 18.5-3.5 33-3.6 16-.1 27.4 1.3 29.9 2 5 2.5 15.9 3.4 24.6 2 9-1.4 12.3-4.7 7.5-7.4-9.6-5.3-34.3-6.9-46.4-7.3v-4.9c0-3-8.3-5.5-18.5-5.5s-18.4 2.5-18.4 5.5v5.4c-16.1 1.1-29.9 3.3-39.6 6.6-16.6 5.7-21.6 12.7-13.1 18.8 8.2 5.9 27.7 9.7 52.1 10.2 19 .4 44.9 1 57.7 4.9 6.8 2.1 10.2 4.9 9.7 8s-5.1 6.1-12.6 8.2c-14.1 4-36.9 5.5-56.8 3.6-8.9-.8-24.2-3.1-27.8-8.7-1.9-3-11.5-4.9-21.5-4.4-10 .6-16.6 3.4-14.7 6.4 5.2 8.2 24.4 14.5 52.8 17.2 4.5.4 9.1.7 13.7 1v5c0 3 8.3 5.5 18.4 5.5 10.2 0 18.5-2.4 18.5-5.5v-5.4c16.1-1.1 31.1-3.4 43-6.8 14.3-4.1 22.8-9.6 23.8-15.5 1.2-6.1-5.9-11.9-19.9-16.2z" class="M"/><path d="M1073.7 840.9c-22.6-6.9-58.1-7.7-81.6-8.2-10.3-.2-17.9-1.5-20.7-3.5-3-2.1-.4-4.9 6.9-7.4 6.5-2.2 18.5-3.5 33-3.6 16-.1 27.4 1.3 29.9 2 5 2.5 15.9 3.4 24.6 2 9-1.4 12.3-4.7 7.5-7.4-9.6-5.3-34.3-6.9-46.4-7.3v-4.9c0-3-8.3-5.5-18.4-5.5-10.2 0-18.4 2.5-18.4 5.5v5.4c-16.1 1.1-29.9 3.3-39.6 6.6-16.6 5.7-21.5 12.7-13.1 18.8 8.2 5.9 27.7 9.7 52.1 10.2 19 .4 44.9 1 57.7 4.9 6.8 2.1 10.2 4.9 9.7 8s-5.1 6.1-12.6 8.2c-14.1 4-36.9 5.5-56.8 3.6-8.9-.8-24.2-3.1-27.8-8.7-1.9-3-11.5-4.9-21.5-4.4-10 .6-16.6 3.4-14.7 6.4 5.2 8.2 24.4 14.5 52.8 17.2 4.5.4 9.1.7 13.7 1v5c0 3 8.3 5.5 18.4 5.5 10.2 0 18.4-2.4 18.4-5.5v-5.4c16.1-1.1 31.1-3.4 43-6.8 14.3-4.1 22.8-9.6 23.8-15.5 1.2-6.1-5.9-11.9-19.9-16.2z" class="I"/><path d="M795.9 859.6 739.2 870c-9.6-8.2-14.8-17.1-14.8-26.3 0-.7 0-1.4.1-2l70.5-12.9c-4.1 4.8-6.2 9.8-6.2 15 0 5.4 2.5 10.7 7.1 15.8zm395.3-72.5-56.6 10.4c-25.9-6.8-57.7-11.8-92.7-14.1l70.5-12.9c29.6 4.1 56.2 9.7 78.8 16.6z" class="J"/><g class="K"><use xlink:href="#E" x="631" y="-550.6"/><use xlink:href="#j" y="-550.6"/></g><g class="N"><use xlink:href="#k" y="-550.6"/><path d="M1269.1 843.7c0 .7 0 1.4-.1 2l-71 13c4.3-4.8 6.6-9.9 6.6-15.1 0-3.7-1.2-7.3-3.4-10.8l58.1-10.7c6.5 7 9.8 14.1 9.8 21.6z"/></g><use xlink:href="#r" y="-472.5" class="O"/><use xlink:href="#T" x="631" y="-472.6" class="P"/><use xlink:href="#Aa" class="I"/><use xlink:href="#Ab" class="J"/><use xlink:href="#n" y="-550.6" class="I"/><use xlink:href="#Ac" class="J"/><use xlink:href="#A" x="631" y="-627.4" class="I"/><path d="M1204.7 766.9c0 34.1-93.1 61.7-207.9 61.7S788.9 801 788.9 766.9s93.1-61.7 207.9-61.7 207.9 27.6 207.9 61.7z" class="K"/><ellipse cx="1008.5" cy="766.9" class="L" rx="196.2" ry="58.2"/><use xlink:href="#u" y="-472.5" class="M"/><use xlink:href="#v" y="-472.5" class="I"/><g class="J"><use xlink:href="#i" y="-627.4"/><use xlink:href="#w" y="-472.5"/></g><path d="m829.8 803.7-54.9 10.1c-8.6-3.6-16.2-7.4-22.8-11.3l55.1-10.1c6.2 3.9 13.7 7.7 22.6 11.3zm407.5-74.8-54.9 10.1c-6.7-4-14.9-7.7-24.3-11.1l55.1-10.1c9 3.5 17 7.2 24.1 11.1z" class="K"/><path d="m951.7 827.2-70.6 12.9c-24.3-3.4-46.6-7.8-66.3-13.1l57.8-10.6c23.2 5.1 50 8.8 79.1 10.8zm317.4-60.3c0 .7 0 1.4-.1 2l-70.9 13c4.3-4.8 6.6-9.9 6.6-15.1 0-3.7-1.2-7.3-3.4-10.8l58.1-10.7c6.4 7 9.7 14.2 9.7 21.6z" class="N"/><use xlink:href="#r" y="-549.3" class="O"/><use xlink:href="#T" x="631" y="-549.3" class="P"/><use xlink:href="#Ad" class="I"/><use xlink:href="#Ae" class="J"/><use xlink:href="#Af" class="I"/><use xlink:href="#Ag" class="J"/><use xlink:href="#y" class="I"/><use xlink:href="#g" x="636" class="K"/><use xlink:href="#z" class="L"/><path d="M1696.9 1391.5c-22.6-6.9-58.1-7.7-81.6-8.2-10.3-.2-17.9-1.5-20.7-3.5-3-2.1-.4-4.9 6.9-7.4 6.5-2.2 18.5-3.5 33-3.6 16-.1 27.4 1.3 29.9 2 5 2.5 15.9 3.4 24.6 2 9-1.4 12.3-4.8 7.5-7.4-9.6-5.3-34.3-6.9-46.4-7.3v-4.9c0-3-8.3-5.5-18.4-5.5-10.2 0-18.4 2.5-18.4 5.5v5.4c-16.1 1.1-29.9 3.4-39.6 6.7-16.6 5.7-21.6 12.7-13.1 18.8 8.2 5.9 27.7 9.7 52.1 10.2 19 .4 44.9 1 57.7 4.9 6.8 2.1 10.2 4.9 9.7 8s-5.1 6.1-12.6 8.2c-14.1 4-36.9 5.5-56.8 3.6-8.9-.8-24.2-3.1-27.8-8.7-1.9-3-11.5-4.9-21.5-4.4-10 .6-16.6 3.4-14.7 6.4 5.2 8.2 24.5 14.5 52.8 17.2 4.5.4 9.1.7 13.7 1v5c0 3 8.3 5.5 18.4 5.5 10.2 0 18.4-2.4 18.4-5.5v-5.4c16.1-1.1 31.1-3.4 43-6.8 14.3-4.1 22.8-9.6 23.8-15.5 1.2-6.2-5.9-12-19.9-16.3z" class="M"/><path d="M1709.7 1391.5c-22.6-6.9-58.1-7.7-81.6-8.2-10.3-.2-17.9-1.5-20.7-3.5-3-2.1-.4-4.9 6.9-7.4 6.5-2.2 18.5-3.5 33-3.6 16-.1 27.4 1.3 29.9 2 5 2.5 15.9 3.4 24.6 2 9-1.4 12.3-4.8 7.5-7.4-9.6-5.3-34.3-6.9-46.4-7.3v-4.9c0-3-8.3-5.5-18.4-5.5-10.2 0-18.5 2.5-18.5 5.5v5.4c-16.1 1.1-29.9 3.4-39.5 6.7-16.7 5.7-21.6 12.7-13.1 18.8 8.2 5.9 27.7 9.7 52.1 10.2 19 .4 44.9 1 57.7 4.9 6.8 2.1 10.2 4.9 9.7 8s-5.1 6.1-12.6 8.2c-14.1 4-36.9 5.5-56.8 3.6-8.8-.8-24.2-3.1-27.8-8.7-1.9-3-11.5-4.9-21.5-4.4-10 .6-16.6 3.4-14.7 6.4 5.2 8.2 24.4 14.5 52.8 17.2 4.5.4 9.1.7 13.7 1v5c0 3 8.3 5.5 18.5 5.5s18.4-2.4 18.4-5.5v-5.4c16.1-1.1 31.1-3.4 43-6.8 14.3-4.1 22.8-9.6 23.8-15.5 1.1-6.2-6-12-20-16.3z" class="I"/><g class="J"><use xlink:href="#AA"/><path d="m1827.1 1337.7-56.5 10.4c-25.9-6.8-57.7-11.8-92.7-14l70.5-12.9c29.6 4 56.2 9.6 78.7 16.5z"/></g><g class="K"><use xlink:href="#E" x="1267"/><use xlink:href="#AB"/></g><g class="N"><use xlink:href="#AC"/><use xlink:href="#H" x="1267"/></g><use xlink:href="#a" x="1267" y="310.9" class="O"/><use xlink:href="#I" x="1267" class="P"/><use xlink:href="#m" x="635.9" class="I"/><use xlink:href="#K" x="1267" class="J"/><use xlink:href="#L" x="1267" class="I"/><use xlink:href="#M" x="1267" class="J"/><use xlink:href="#AD" class="I"/><use xlink:href="#B" x="1267" y="-78.1" class="K"/><use xlink:href="#AE" class="L"/><path d="M1696.9 1313.5c-22.6-6.9-58.1-7.7-81.6-8.2-10.3-.2-17.9-1.5-20.7-3.5-3-2.1-.4-4.9 6.9-7.4 6.5-2.2 18.5-3.5 33-3.6 16-.1 27.4 1.3 29.9 2 5 2.5 15.9 3.4 24.6 2 9-1.4 12.3-4.8 7.5-7.4-9.6-5.3-34.3-6.9-46.4-7.3v-4.9c0-3-8.3-5.5-18.4-5.5-10.2 0-18.4 2.4-18.4 5.5v5.4c-16.1 1.1-29.9 3.4-39.6 6.6-16.6 5.7-21.6 12.7-13.1 18.8 8.2 5.9 27.7 9.7 52.1 10.2 19 .4 44.9 1 57.7 4.9 6.8 2.1 10.2 4.9 9.7 8s-5.1 6.1-12.6 8.2c-14.1 4-36.9 5.5-56.8 3.6-8.9-.8-24.2-3.1-27.8-8.7-1.9-3-11.5-4.9-21.5-4.4-10 .6-16.6 3.4-14.7 6.4 5.2 8.2 24.5 14.5 52.8 17.2 4.5.4 9.1.7 13.7 1v5c0 3 8.3 5.5 18.4 5.5 10.2 0 18.4-2.5 18.4-5.5v-5.4c16.1-1.1 31.1-3.4 43-6.8 14.3-4.1 22.8-9.6 23.8-15.5 1.2-6.2-5.9-12-19.9-16.2z" class="M"/><path d="M1709.7 1313.5c-22.6-6.9-58.1-7.7-81.6-8.2-10.3-.2-17.9-1.5-20.7-3.5-3-2.1-.4-4.9 6.9-7.4 6.5-2.2 18.5-3.5 33-3.6 16-.1 27.4 1.3 29.9 2 5 2.5 15.9 3.4 24.6 2 9-1.4 12.3-4.8 7.5-7.4-9.6-5.3-34.3-6.9-46.4-7.3v-4.9c0-3-8.3-5.5-18.4-5.5-10.2 0-18.5 2.4-18.5 5.5v5.4c-16.1 1.1-29.9 3.4-39.5 6.6-16.7 5.7-21.6 12.7-13.1 18.8 8.2 5.9 27.7 9.7 52.1 10.2 19 .4 44.9 1 57.7 4.9 6.8 2.1 10.2 4.9 9.7 8s-5.1 6.1-12.6 8.2c-14.1 4-36.9 5.5-56.8 3.6-8.8-.8-24.2-3.1-27.8-8.7-1.9-3-11.5-4.9-21.5-4.4-10 .6-16.6 3.4-14.7 6.4 5.2 8.2 24.4 14.5 52.8 17.2 4.5.4 9.1.7 13.7 1v5c0 3 8.3 5.5 18.5 5.5s18.4-2.5 18.4-5.5v-5.4c16.1-1.1 31.1-3.4 43-6.8 14.3-4.1 22.8-9.6 23.8-15.5 1.1-6.2-6-12-20-16.2z" class="I"/><g class="J"><use xlink:href="#AF"/><path d="m1827.1 1259.6-56.5 10.4c-25.9-6.8-57.7-11.7-92.7-14.1l70.5-12.9c29.6 4.1 56.2 9.8 78.7 16.6z"/></g><g class="K"><use xlink:href="#Q" x="1267"/><use xlink:href="#AB" y="-78.1"/></g><g class="N"><use xlink:href="#AC" y="-78.1"/><use xlink:href="#R" x="1267"/></g><use xlink:href="#S" x="1267" class="O"/><use xlink:href="#T" x="1267" class="P"/><use xlink:href="#m" x="635.9" y="-78.1" class="I"/><use xlink:href="#K" x="1267" y="-78.1" class="J"/><use xlink:href="#AS" x="1267" class="I"/><use xlink:href="#U" x="1267" class="J"/><use xlink:href="#s" x="636" class="I"/><use xlink:href="#AG" class="K"/><use xlink:href="#AH" class="L"/><use xlink:href="#AI" class="M"/><use xlink:href="#AJ" class="I"/><g class="J"><path d="m1431.8 1255.3-56.6 10.4c-9.6-8.2-14.8-17.1-14.8-26.3 0-.7.1-1.4.1-2l70.5-12.9c-4.1 4.8-6.2 9.8-6.2 15 0 5.4 2.4 10.8 7 15.8z"/><use xlink:href="#V" x="1267"/></g><g class="K"><use xlink:href="#E" x="1267" y="-154.8"/><use xlink:href="#AT" x="1267"/></g><path d="m1587.7 1299.7-70.6 12.9c-24.3-3.4-46.6-7.8-66.3-13.1l57.8-10.6c23.1 5.1 49.9 8.9 79.1 10.8zm317.4-60.3c0 .7-.1 1.4-.1 2l-70.9 13c4.3-4.8 6.6-9.8 6.6-15.1 0-3.7-1.2-7.3-3.4-10.8l58.1-10.6c6.3 6.9 9.7 14.1 9.7 21.5z" class="N"/><use xlink:href="#W" x="1267" class="O"/><use xlink:href="#T" x="1267" y="-76.8" class="P"/><use xlink:href="#x" x="635.9" class="I"/><use xlink:href="#K" x="1267" y="-154.8" class="J"/><use xlink:href="#L" x="1267" y="-154.9" class="I"/><use xlink:href="#U" x="1267" y="-76.8" class="J"/><path d="M1905.1 1161.5c0 44.6-121.9 80.8-272.3 80.8s-272.3-36.2-272.3-80.8c0-44.7 121.9-80.8 272.3-80.8 150.4-.1 272.3 36.1 272.3 80.8z" class="I"/><use xlink:href="#g" x="636" y="-232.8" class="K"/><use xlink:href="#AE" y="-154.7" class="L"/><path d="M1696.9 1158.7c-22.6-6.9-58.1-7.7-81.6-8.2-10.3-.2-17.9-1.5-20.7-3.5-3-2.1-.4-4.9 6.9-7.4 6.5-2.2 18.5-3.5 33-3.6 16-.1 27.4 1.3 29.9 2 5 2.5 15.9 3.4 24.6 2 9-1.4 12.3-4.8 7.5-7.4-9.6-5.3-34.3-6.9-46.4-7.3v-4.9c0-3-8.3-5.5-18.4-5.5-10.2 0-18.4 2.5-18.4 5.5v5.4c-16.1 1.1-29.9 3.3-39.6 6.6-16.6 5.7-21.6 12.7-13.1 18.8 8.2 5.9 27.7 9.7 52.1 10.2 19 .4 44.9 1 57.7 4.9 6.8 2.1 10.2 4.9 9.7 8s-5.1 6.1-12.6 8.2c-14.1 4-36.9 5.5-56.8 3.6-8.9-.8-24.2-3.1-27.8-8.8-1.9-3-11.5-4.9-21.5-4.4-10 .6-16.6 3.4-14.7 6.4 5.2 8.2 24.5 14.5 52.8 17.2 4.5.4 9.1.7 13.7 1v5c0 3 8.3 5.5 18.4 5.5 10.2 0 18.4-2.5 18.4-5.5v-5.4c16.1-1.1 31.1-3.4 43-6.7 14.3-4.1 22.8-9.6 23.8-15.5 1.2-6.1-5.9-11.9-19.9-16.2z" class="M"/><path d="M1709.7 1158.7c-22.6-6.9-58.1-7.7-81.6-8.2-10.3-.2-17.9-1.5-20.7-3.5-3-2.1-.4-4.9 6.9-7.4 6.5-2.2 18.5-3.5 33-3.6 16-.1 27.4 1.3 29.9 2 5 2.5 15.9 3.4 24.6 2 9-1.4 12.3-4.8 7.5-7.4-9.6-5.3-34.3-6.9-46.4-7.3v-4.9c0-3-8.3-5.5-18.4-5.5-10.2 0-18.5 2.4-18.5 5.5v5.4c-16.1 1.1-29.9 3.3-39.5 6.6-16.7 5.7-21.6 12.7-13.1 18.8 8.2 5.9 27.7 9.7 52.1 10.2 19 .4 44.9 1 57.7 4.9 6.8 2.1 10.2 4.9 9.7 8s-5.1 6.1-12.6 8.2c-14.1 4-36.9 5.5-56.8 3.6-8.8-.8-24.2-3.1-27.8-8.8-1.9-3-11.5-4.9-21.5-4.4-10 .6-16.6 3.4-14.7 6.4 5.2 8.2 24.4 14.5 52.8 17.2 4.5.4 9.1.7 13.7 1v5c0 3 8.3 5.5 18.5 5.5s18.4-2.5 18.4-5.5v-5.4c16.1-1.1 31.1-3.4 43-6.7 14.3-4.1 22.8-9.6 23.8-15.5 1.1-6.1-6-11.9-20-16.2z" class="I"/><g class="J"><use xlink:href="#AA" y="-232.8"/><use xlink:href="#AK"/></g><g class="K"><use xlink:href="#Q" x="1267" y="-154.7"/><use xlink:href="#AB" y="-232.8"/></g><g class="N"><use xlink:href="#AC" y="-232.8"/><use xlink:href="#Y" x="1267"/></g><use xlink:href="#S" x="1267" y="-154.7" class="O"/><use xlink:href="#T" x="1267" y="-154.7" class="P"/><use xlink:href="#x" x="635.9" y="-78" class="I"/><use xlink:href="#K" x="1267" y="-232.8" class="J"/><use xlink:href="#L" x="1267" y="-232.8" class="I"/><use xlink:href="#U" x="1267" y="-154.7" class="J"/><use xlink:href="#A" x="1267" y="-310.9" class="I"/><use xlink:href="#B" x="1267" y="-310.9" class="K"/><use xlink:href="#z" y="-310.9" class="L"/><path d="M1696.9 1080.7c-22.6-6.9-58.1-7.7-81.6-8.2-10.3-.2-17.9-1.5-20.7-3.5-3-2.1-.4-4.9 6.9-7.4 6.5-2.2 18.5-3.5 33-3.6 16-.1 27.4 1.3 29.9 2 5 2.5 15.9 3.4 24.6 2 9-1.4 12.3-4.8 7.5-7.4-9.6-5.3-34.3-6.9-46.4-7.3v-4.9c0-3-8.3-5.5-18.4-5.5-10.2 0-18.4 2.5-18.4 5.5v5.4c-16.1 1.1-29.9 3.3-39.6 6.6-16.6 5.7-21.6 12.7-13.1 18.8 8.2 5.9 27.7 9.7 52.1 10.2 19 .4 44.9 1 57.7 4.9 6.8 2.1 10.2 4.9 9.7 8s-5.1 6.1-12.6 8.2c-14.1 4-36.9 5.5-56.8 3.6-8.9-.8-24.2-3.1-27.8-8.8-1.9-3-11.5-4.9-21.5-4.4-10 .6-16.6 3.4-14.7 6.4 5.2 8.2 24.5 14.5 52.8 17.2 4.5.4 9.1.8 13.7 1v5c0 3 8.3 5.5 18.4 5.5 10.2 0 18.4-2.5 18.4-5.5v-5.4c16.1-1.1 31.1-3.4 43-6.8 14.3-4.1 22.8-9.6 23.8-15.5 1.2-6.1-5.9-11.9-19.9-16.1z" class="M"/><path d="M1709.7 1080.7c-22.6-6.9-58.1-7.7-81.6-8.2-10.3-.2-17.9-1.5-20.7-3.5-3-2.1-.4-4.9 6.9-7.4 6.5-2.2 18.5-3.5 33-3.6 16-.1 27.4 1.3 29.9 2 5 2.5 15.9 3.4 24.6 2 9-1.4 12.3-4.8 7.5-7.4-9.6-5.3-34.3-6.9-46.4-7.3v-4.9c0-3-8.3-5.5-18.4-5.5-10.2 0-18.5 2.5-18.5 5.5v5.4c-16.1 1.1-29.9 3.3-39.5 6.6-16.7 5.7-21.6 12.7-13.1 18.8 8.2 5.9 27.7 9.7 52.1 10.2 19 .4 44.9 1 57.7 4.9 6.8 2.1 10.2 4.9 9.7 8s-5.1 6.1-12.6 8.2c-14.1 4-36.9 5.5-56.8 3.6-8.8-.8-24.2-3.1-27.8-8.8-1.9-3-11.5-4.9-21.5-4.4-10 .6-16.6 3.4-14.7 6.4 5.2 8.2 24.4 14.5 52.8 17.2 4.5.4 9.1.8 13.7 1v5c0 3 8.3 5.5 18.5 5.5s18.4-2.5 18.4-5.5v-5.4c16.1-1.1 31.1-3.4 43-6.8 14.3-4.1 22.8-9.6 23.8-15.5 1.1-6.1-6-11.9-20-16.1z" class="I"/><g class="J"><use xlink:href="#AF" y="-232.8"/><path d="m1827.1 1026.8-56.5 10.4c-25.9-6.8-57.7-11.7-92.7-14l70.5-12.9c29.6 4 56.2 9.7 78.7 16.5z"/></g><g class="K"><use xlink:href="#Q" x="1267" y="-232.8"/><use xlink:href="#AB" y="-310.9"/></g><g class="N"><use xlink:href="#Ah"/><use xlink:href="#Z" x="1267"/></g><use xlink:href="#a" x="1267" class="O"/><use xlink:href="#b" x="1267" class="P"/><use xlink:href="#AW" x="635.9" class="I"/><use xlink:href="#K" x="1267" y="-310.9" class="J"/><use xlink:href="#L" x="1267" y="-310.9" class="I"/><use xlink:href="#c" x="1267" class="J"/><use xlink:href="#d" x="1267" class="I"/><use xlink:href="#AG" y="-232.8" class="K"/><path d="M1840.7 1006.6c0 32.2-87.9 58.3-196.2 58.3-108.4 0-196.2-26.1-196.2-58.3s87.8-58.2 196.2-58.2c108.3 0 196.2 26.1 196.2 58.2z" class="L"/><path d="M1696.9 1003.9c-22.6-7-58.1-7.7-81.6-8.2-10.3-.2-17.9-1.5-20.7-3.5-3-2.1-.4-4.9 6.9-7.4 6.5-2.2 18.5-3.5 33-3.6 16-.1 27.4 1.3 29.9 2 5 2.5 15.9 3.4 24.6 2 9-1.4 12.3-4.8 7.5-7.4-9.6-5.3-34.3-6.9-46.4-7.3v-4.9c0-3-8.3-5.5-18.4-5.5-10.2 0-18.4 2.4-18.4 5.5v5.4c-16.1 1.1-29.9 3.4-39.6 6.6-16.7 5.7-21.6 12.7-13.1 18.8 8.2 5.9 27.7 9.7 52.1 10.2 19 .4 44.9 1 57.7 4.9 6.8 2.1 10.2 4.9 9.7 8s-5.1 6.1-12.6 8.2c-14.1 4-36.9 5.5-56.8 3.6-8.9-.8-24.2-3.1-27.8-8.7-1.9-3-11.5-4.9-21.5-4.4-10 .6-16.6 3.4-14.7 6.4 5.2 8.2 24.5 14.5 52.8 17.2 4.5.4 9.1.7 13.7 1v5c0 3 8.3 5.5 18.4 5.5 10.2 0 18.4-2.4 18.4-5.5v-5.4c16.1-1.1 31.1-3.4 43-6.8 14.3-4.1 22.8-9.6 23.8-15.5 1.2-6.2-5.9-11.9-19.9-16.2z" class="M"/><path d="M1709.7 1003.9c-22.6-6.9-58.1-7.7-81.6-8.2-10.3-.2-17.9-1.5-20.7-3.5-3-2.1-.4-4.9 6.9-7.4 6.5-2.2 18.5-3.5 33-3.6 16-.1 27.4 1.3 29.9 2 5 2.5 15.9 3.4 24.6 2 9-1.4 12.3-4.8 7.5-7.4-9.6-5.3-34.3-6.9-46.4-7.3v-4.9c0-3-8.3-5.5-18.4-5.5-10.2 0-18.5 2.4-18.5 5.5v5.4c-16.1 1.1-29.9 3.4-39.6 6.6-16.7 5.7-21.6 12.7-13.1 18.8 8.2 5.9 27.7 9.7 52.1 10.2 19 .4 44.9 1 57.7 4.9 6.8 2.1 10.2 4.9 9.7 8s-5.1 6.1-12.6 8.2c-14.1 4-36.9 5.5-56.8 3.6-8.8-.8-24.2-3.1-27.8-8.7-1.9-3-11.5-4.9-21.5-4.4-10 .6-16.6 3.4-14.7 6.4 5.2 8.2 24.5 14.5 52.9 17.2 4.5.4 9.1.7 13.7 1v5c0 3 8.3 5.5 18.5 5.5s18.4-2.4 18.4-5.5v-5.4c16.1-1.1 31.1-3.4 43-6.8 14.3-4.1 22.8-9.6 23.8-15.5 1.1-6.2-6-11.9-20-16.2z" class="I"/><g class="J"><path d="m1431.8 1022.5-56.6 10.4c-9.6-8.3-14.8-17.1-14.8-26.3 0-.7.1-1.4.1-2l70.5-12.9c-4.1 4.8-6.2 9.8-6.2 15 0 5.4 2.4 10.8 7 15.8z"/><use xlink:href="#e" x="1267"/></g><g class="K"><use xlink:href="#E" x="1267" y="-387.6"/><use xlink:href="#AV" x="1267"/></g><g class="N"><use xlink:href="#AC" y="-387.6"/><use xlink:href="#R" x="1267" y="-309.6"/></g><use xlink:href="#S" x="1267" y="-309.5" class="O"/><use xlink:href="#T" x="1267" y="-309.6" class="P"/><use xlink:href="#m" x="635.9" y="-387.6" class="I"/><use xlink:href="#K" x="1267" y="-387.6" class="J"/><use xlink:href="#L" x="1267" y="-387.7" class="I"/><use xlink:href="#f" x="1267" class="J"/><use xlink:href="#s" x="636" y="-317.7" class="I"/><path d="M1840.7 921.7c0 34.1-93.1 61.7-207.9 61.7s-207.9-27.6-207.9-61.7S1518 860 1632.8 860s207.9 27.7 207.9 61.7z" class="K"/><use xlink:href="#AH" y="-317.7" class="L"/><path d="M1696.9 919c-22.6-6.9-58.1-7.7-81.6-8.2-10.3-.2-17.9-1.5-20.7-3.5-3-2.1-.4-4.9 6.9-7.4 6.5-2.2 18.5-3.5 33-3.6 16-.1 27.4 1.3 29.9 2 5 2.5 15.9 3.4 24.6 2 9-1.4 12.3-4.8 7.5-7.4-9.6-5.3-34.3-6.9-46.4-7.3v-4.9c0-3-8.3-5.5-18.4-5.5-10.2 0-18.4 2.5-18.4 5.5v5.4c-16.1 1.1-29.9 3.4-39.6 6.7-16.6 5.7-21.6 12.7-13.1 18.8 8.2 5.9 27.7 9.7 52.1 10.2 19 .4 44.9 1 57.7 4.9 6.8 2.1 10.2 4.9 9.7 8s-5.1 6.1-12.6 8.2c-14.1 4-36.9 5.5-56.8 3.6-8.9-.8-24.2-3.1-27.8-8.7-1.9-3-11.5-4.9-21.5-4.4-10 .6-16.6 3.4-14.7 6.4 5.2 8.2 24.5 14.5 52.8 17.2 4.5.4 9.1.7 13.7 1v5c0 3 8.3 5.5 18.4 5.5 10.2 0 18.4-2.5 18.4-5.5v-5.4c16.1-1.1 31.1-3.4 43-6.7 14.3-4.1 22.8-9.6 23.8-15.5 1.2-6.4-5.9-12.1-19.9-16.4z" class="M"/><path d="M1709.7 919c-22.6-6.9-58.1-7.7-81.6-8.2-10.3-.2-17.9-1.5-20.7-3.5-3-2.1-.4-4.9 6.9-7.4 6.5-2.2 18.5-3.5 33-3.6 16-.1 27.4 1.3 29.9 2 5 2.5 15.9 3.4 24.6 2 9-1.4 12.3-4.8 7.5-7.4-9.6-5.3-34.3-6.9-46.4-7.3v-4.9c0-3-8.3-5.5-18.4-5.5-10.2 0-18.5 2.4-18.5 5.5v5.4c-16.1 1.1-29.9 3.4-39.5 6.7-16.7 5.7-21.6 12.7-13.1 18.8 8.2 5.9 27.7 9.7 52.1 10.2 19 .4 44.9 1 57.7 4.9 6.8 2.1 10.2 4.9 9.7 8s-5.1 6.1-12.6 8.2c-14.1 4-36.9 5.5-56.8 3.6-8.8-.8-24.2-3.1-27.8-8.7-1.9-3-11.5-4.9-21.5-4.4-10 .6-16.6 3.4-14.7 6.4 5.2 8.2 24.4 14.5 52.8 17.2 4.5.4 9.1.7 13.7 1v5c0 3 8.3 5.5 18.5 5.5s18.4-2.5 18.4-5.5v-5.4c16.1-1.1 31.1-3.4 43-6.7 14.3-4.1 22.8-9.6 23.8-15.5 1.1-6.4-6-12.1-20-16.4z" class="I"/><g class="J"><use xlink:href="#AL"/><path d="m1827.1 865.1-56.5 10.4c-25.9-6.8-57.7-11.8-92.7-14l70.5-12.9c29.6 4 56.2 9.7 78.7 16.5z"/></g><g class="K"><use xlink:href="#E" x="1267" y="-472.5"/><use xlink:href="#AB" y="-472.5"/></g><g class="N"><use xlink:href="#AC" y="-472.5"/><use xlink:href="#R" x="1267" y="-394.5"/></g><use xlink:href="#S" x="1267" y="-394.4" class="O"/><use xlink:href="#T" x="1267" y="-394.5" class="P"/><use xlink:href="#AX" x="635.9" class="I"/><use xlink:href="#AY" x="635.9" class="J"/><path d="M1738.4 1060c19.9-2.5 38.5-5.7 55.7-9.4v-63.7c-17.1 3.7-35.8 6.9-55.7 9.4v63.7z" class="I"/><use xlink:href="#AZ" x="636" class="J"/><use xlink:href="#y" y="-550.6" class="I"/><path d="M1840.7 843.7c0 34.1-93.1 61.7-207.9 61.7s-207.9-27.6-207.9-61.7S1518 782 1632.8 782c114.8-.1 207.9 27.6 207.9 61.7z" class="K"/><use xlink:href="#AE" y="-472.5" class="L"/><path d="M1696.9 840.9c-22.6-6.9-58.1-7.7-81.6-8.2-10.3-.2-17.9-1.5-20.7-3.5-3-2.1-.4-4.9 6.9-7.4 6.5-2.2 18.5-3.5 33-3.6 16-.1 27.4 1.3 29.9 2 5 2.5 15.9 3.4 24.6 2 9-1.4 12.3-4.7 7.5-7.4-9.6-5.3-34.3-6.9-46.4-7.3v-4.9c0-3-8.3-5.5-18.4-5.5-10.2 0-18.4 2.5-18.4 5.5v5.4c-16.1 1.1-29.9 3.3-39.6 6.6-16.6 5.7-21.6 12.7-13.1 18.8 8.2 5.9 27.7 9.7 52.1 10.2 19 .4 44.9 1 57.7 4.9 6.8 2.1 10.2 4.9 9.7 8s-5.1 6.1-12.6 8.2c-14.1 4-36.9 5.5-56.8 3.6-8.9-.8-24.2-3.1-27.8-8.7-1.9-3-11.5-4.9-21.5-4.4-10 .6-16.6 3.4-14.7 6.4 5.2 8.2 24.5 14.5 52.8 17.2 4.5.4 9.1.7 13.7 1v5c0 3 8.3 5.5 18.4 5.5 10.2 0 18.4-2.4 18.4-5.5v-5.4c16.1-1.1 31.1-3.4 43-6.8 14.3-4.1 22.8-9.6 23.8-15.5 1.2-6.1-5.9-11.9-19.9-16.2z" class="M"/><path d="M1709.7 840.9c-22.6-6.9-58.1-7.7-81.6-8.2-10.3-.2-17.9-1.5-20.7-3.5-3-2.1-.4-4.9 6.9-7.4 6.5-2.2 18.5-3.5 33-3.6 16-.1 27.4 1.3 29.9 2 5 2.5 15.9 3.4 24.6 2 9-1.4 12.3-4.7 7.5-7.4-9.6-5.3-34.3-6.9-46.4-7.3v-4.9c0-3-8.3-5.5-18.4-5.5-10.2 0-18.5 2.5-18.5 5.5v5.4c-16.1 1.1-29.9 3.3-39.5 6.6-16.7 5.7-21.6 12.7-13.1 18.8 8.2 5.9 27.7 9.7 52.1 10.2 19 .4 44.9 1 57.7 4.9 6.8 2.1 10.2 4.9 9.7 8s-5.1 6.1-12.6 8.2c-14.1 4-36.9 5.5-56.8 3.6-8.8-.8-24.2-3.1-27.8-8.7-1.9-3-11.5-4.9-21.5-4.4-10 .6-16.6 3.4-14.7 6.4 5.2 8.2 24.4 14.5 52.8 17.2 4.5.4 9.1.7 13.7 1v5c0 3 8.3 5.5 18.5 5.5s18.4-2.4 18.4-5.5v-5.4c16.1-1.1 31.1-3.4 43-6.8 14.3-4.1 22.8-9.6 23.8-15.5 1.1-6.1-6-11.9-20-16.2z" class="I"/><g class="J"><use xlink:href="#AA" y="-550.6"/><path d="m1827.1 787.1-56.5 10.4c-25.9-6.8-57.7-11.8-92.7-14.1l70.5-12.9c29.6 4.1 56.2 9.7 78.7 16.6z"/></g><g class="K"><use xlink:href="#E" x="1267" y="-550.6"/><use xlink:href="#AB" y="-550.6"/></g><g class="N"><use xlink:href="#AC" y="-550.6"/><path d="M1905.1 843.7c0 .7-.1 1.4-.1 2l-70.9 13c4.3-4.8 6.6-9.9 6.6-15.1 0-3.7-1.2-7.3-3.4-10.8l58.1-10.7c6.3 7 9.7 14.1 9.7 21.6z"/></g><path d="M1632.7 924.5c-150.4 0-272.3-36.2-272.3-80.8v63.7c0 44.6 121.9 80.8 272.3 80.8S1905 952 1905 907.4l-1-57.1c-11.2 41.5-128.3 74.2-271.3 74.2z" class="O"/><use xlink:href="#T" x="1267" y="-472.6" class="P"/><use xlink:href="#Aa" x="635.9" class="I"/><use xlink:href="#Ab" x="635.9" class="J"/><use xlink:href="#L" x="1267" y="-550.6" class="I"/><use xlink:href="#Ac" x="636" class="J"/><use xlink:href="#A" x="1267" y="-627.4" class="I"/><use xlink:href="#AG" y="-472.5" class="K"/><use xlink:href="#AE" y="-549.3" class="L"/><use xlink:href="#AI" y="-472.5" class="M"/><use xlink:href="#AJ" y="-472.5" class="I"/><g class="J"><path d="m1431.8 782.8-56.6 10.4c-9.6-8.2-14.8-17.1-14.8-26.3 0-.7.1-1.4.1-2L1431 752c-4.1 4.8-6.2 9.8-6.2 15 0 5.4 2.4 10.7 7 15.8z"/><use xlink:href="#V" x="1267" y="-472.5"/></g><g class="K"><use xlink:href="#Q" x="1267" y="-549.3"/><use xlink:href="#AB" y="-627.4"/></g><g class="N"><use xlink:href="#Ah" y="-316.5"/><use xlink:href="#AM"/></g><use xlink:href="#S" x="1267" y="-549.3" class="O"/><use xlink:href="#T" x="1267" y="-549.3" class="P"/><use xlink:href="#Ad" x="635.9" class="I"/><use xlink:href="#Ae" x="635.9" class="J"/><use xlink:href="#Af" x="636" class="I"/><use xlink:href="#Ag" x="636" class="J"/><use xlink:href="#AN" class="I"/><use xlink:href="#AO" class="K"/><use xlink:href="#AH" y="-550.5" class="L"/><path d="M1696.9 686.2c-22.6-6.9-58.1-7.7-81.6-8.2-10.3-.2-17.9-1.5-20.7-3.5-3-2.1-.4-4.9 6.9-7.4 6.5-2.2 18.5-3.5 33-3.6 16-.1 27.4 1.3 29.9 2 5 2.5 15.9 3.4 24.6 2 9-1.4 12.3-4.8 7.5-7.4-9.6-5.3-34.3-6.9-46.4-7.3v-4.9c0-3-8.3-5.5-18.4-5.5-10.2 0-18.4 2.4-18.4 5.5v5.4c-16.1 1.1-29.9 3.4-39.6 6.6-16.6 5.7-21.6 12.7-13.1 18.8 8.2 5.9 27.7 9.7 52.1 10.2 19 .4 44.9 1 57.7 4.9 6.8 2.1 10.2 4.9 9.7 8s-5.1 6.1-12.6 8.2c-14.1 4-36.9 5.5-56.8 3.6-8.9-.8-24.2-3.1-27.8-8.8-1.9-3-11.5-4.9-21.5-4.4-10 .6-16.6 3.4-14.7 6.4 5.2 8.2 24.5 14.5 52.8 17.2 4.5.4 9.1.7 13.7 1v5c0 3 8.3 5.5 18.4 5.5 10.2 0 18.4-2.5 18.4-5.5v-5.4c16.1-1.1 31.1-3.4 43-6.8 14.3-4.1 22.8-9.6 23.8-15.5 1.2-6.1-5.9-11.8-19.9-16.1z" class="M"/><path d="M1709.7 686.2c-22.6-6.9-58.1-7.7-81.6-8.2-10.3-.2-17.9-1.5-20.7-3.5-3-2.1-.4-4.9 6.9-7.4 6.5-2.2 18.5-3.5 33-3.6 16-.1 27.4 1.3 29.9 2 5 2.5 15.9 3.4 24.6 2 9-1.4 12.3-4.8 7.5-7.4-9.6-5.3-34.3-6.9-46.4-7.3v-4.9c0-3-8.3-5.5-18.4-5.5-10.2 0-18.5 2.4-18.5 5.5v5.4c-16.1 1.1-29.9 3.4-39.5 6.6-16.7 5.7-21.6 12.7-13.1 18.8 8.2 5.9 27.7 9.7 52.1 10.2 19 .4 44.9 1 57.7 4.9 6.8 2.1 10.2 4.9 9.7 8s-5.1 6.1-12.6 8.2c-14.1 4-36.9 5.5-56.8 3.6-8.8-.8-24.2-3.1-27.8-8.8-1.9-3-11.5-4.9-21.5-4.4-10 .6-16.6 3.4-14.7 6.4 5.2 8.2 24.4 14.5 52.8 17.2 4.5.4 9.1.7 13.7 1v5c0 3 8.3 5.5 18.5 5.5s18.4-2.5 18.4-5.5v-5.4c16.1-1.1 31.1-3.4 43-6.8 14.3-4.1 22.8-9.6 23.8-15.5 1.1-6.1-6-11.8-20-16.1z" class="I"/><g class="J"><path d="m1431.8 704.9-56.6 10.4c-9.6-8.2-14.8-17.1-14.8-26.3 0-.7.1-1.4.1-2l70.5-13c-4.1 4.8-6.2 9.8-6.2 15 0 5.4 2.4 10.8 7 15.9z"/><use xlink:href="#AK" y="-472.5"/></g><g class="K"><use xlink:href="#E" x="1267" y="-705.3"/><use xlink:href="#AB" y="-705.3"/></g><g class="N"><use xlink:href="#AC" y="-705.3"/><use xlink:href="#Z" x="1267" y="-394.5"/></g><use xlink:href="#S" x="1267" y="-627.2" class="O"/><use xlink:href="#T" x="1267" y="-627.3" class="P"/><path d="M1540.4 765c-14.8-1.6-29-3.6-42.4-5.8v63.7c13.5 2.3 27.6 4.2 42.4 5.8V765z" class="I"/><path d="M1476.3 755.1c-7.3-1.5-14.4-3.2-21.2-4.9v63.7c6.8 1.7 13.9 3.4 21.2 4.9v-63.7z" class="J"/><path d="M1738.4 827.2c19.9-2.5 38.5-5.7 55.7-9.4V754c-17.1 3.7-35.8 6.9-55.7 9.4v63.8z" class="I"/><path d="M1854 736c-11.6 4.8-25 9.2-39.8 13.2v63.7c14.8-3.9 28.2-8.3 39.8-13.2V736z" class="J"/><use xlink:href="#AD" y="-705.3" class="I"/><use xlink:href="#g" x="636" y="-783.4" class="K"/><use xlink:href="#AE" y="-705.3" class="L"/><path d="M1696.9 608.1c-22.6-6.9-58.1-7.7-81.6-8.2-10.3-.2-17.9-1.5-20.7-3.5-3-2.1-.4-4.9 6.9-7.4 6.5-2.2 18.5-3.5 33-3.6 16-.1 27.4 1.3 29.9 2 5 2.5 15.9 3.4 24.6 2 9-1.4 12.3-4.8 7.5-7.4-9.6-5.3-34.3-6.9-46.4-7.3v-4.9c0-3-8.3-5.5-18.4-5.5-10.2 0-18.4 2.5-18.4 5.5v5.4c-16.1 1.1-29.9 3.4-39.6 6.6-16.6 5.7-21.6 12.7-13.1 18.8 8.2 5.9 27.7 9.7 52.1 10.2 19 .4 44.9 1 57.7 4.9 6.8 2.1 10.2 4.9 9.7 8s-5.1 6.1-12.6 8.2c-14.1 4-36.9 5.5-56.8 3.6-8.9-.8-24.2-3.1-27.8-8.7-1.9-3-11.5-4.9-21.5-4.4-10 .6-16.6 3.4-14.7 6.4 5.2 8.2 24.5 14.5 52.8 17.2 4.5.4 9.1.7 13.7 1v5c0 3 8.3 5.5 18.4 5.5 10.2 0 18.4-2.4 18.4-5.5v-5.4c16.1-1.1 31.1-3.4 43-6.8 14.3-4.1 22.8-9.6 23.8-15.5 1.2-6.1-5.9-11.9-19.9-16.2z" class="M"/><path d="M1709.7 608.1c-22.6-6.9-58.1-7.7-81.6-8.2-10.3-.2-17.9-1.5-20.7-3.5-3-2.1-.4-4.9 6.9-7.4 6.5-2.2 18.5-3.5 33-3.6 16-.1 27.4 1.3 29.9 2 5 2.5 15.9 3.4 24.6 2 9-1.4 12.3-4.8 7.5-7.4-9.6-5.3-34.3-6.9-46.4-7.3v-4.9c0-3-8.3-5.5-18.4-5.5-10.2 0-18.5 2.5-18.5 5.5v5.4c-16.1 1.1-29.9 3.4-39.5 6.6-16.7 5.7-21.6 12.7-13.1 18.8 8.2 5.9 27.7 9.7 52.1 10.2 19 .4 44.9 1 57.7 4.9 6.8 2.1 10.2 4.9 9.7 8s-5.1 6.1-12.6 8.2c-14.1 4-36.9 5.5-56.8 3.6-8.8-.8-24.2-3.1-27.8-8.7-1.9-3-11.5-4.9-21.5-4.4-10 .6-16.6 3.4-14.7 6.4 5.2 8.2 24.4 14.5 52.8 17.2 4.5.4 9.1.7 13.7 1v5c0 3 8.3 5.5 18.5 5.5s18.4-2.4 18.4-5.5v-5.4c16.1-1.1 31.1-3.4 43-6.8 14.3-4.1 22.8-9.6 23.8-15.5 1.1-6.1-6-11.9-20-16.2z" class="I"/><path d="m1431.8 626.8-56.6 10.4c-9.6-8.2-14.8-17.1-14.8-26.3 0-.7.1-1.4.1-2L1431 596c-4.1 4.8-6.2 9.8-6.2 15 0 5.4 2.4 10.7 7 15.8zm395.3-72.5-56.5 10.4c-25.9-6.8-57.7-11.8-92.7-14l70.5-12.9c29.6 4 56.2 9.6 78.7 16.5z" class="J"/><g class="K"><use xlink:href="#Q" x="1267" y="-705.3"/><use xlink:href="#AB" y="-783.4"/></g><g class="N"><use xlink:href="#AC" y="-783.4"/><use xlink:href="#AP"/></g><use xlink:href="#S" x="1267" y="-705.3" class="O"/><use xlink:href="#T" x="1267" y="-705.4" class="P"/><path d="M1540.4 686.9c-14.8-1.6-29-3.5-42.4-5.8v63.7c13.5 2.3 27.6 4.3 42.4 5.8v-63.7z" class="I"/><path d="M1476.3 677c-7.3-1.5-14.4-3.2-21.2-4.9v63.7c6.8 1.7 13.9 3.4 21.2 4.9V677z" class="J"/><path d="M1738.4 749.1c19.9-2.5 38.5-5.7 55.7-9.4V676c-17.1 3.7-35.8 6.9-55.7 9.4v63.7z" class="I"/><path d="M1854 658c-11.6 4.8-25 9.2-39.8 13.2v63.7c14.8-3.9 28.2-8.4 39.8-13.2V658z" class="J"/><use xlink:href="#AN" y="-154.8" class="I"/><use xlink:href="#AG" y="-705.3" class="K"/><path d="M1840.7 534.1c0 32.2-87.9 58.2-196.2 58.2-108.4 0-196.2-26.1-196.2-58.2 0-32.2 87.8-58.2 196.2-58.2 108.3 0 196.2 26 196.2 58.2z" class="L"/><path d="M1696.9 531.4c-22.6-6.9-58.1-7.7-81.6-8.2-10.3-.2-17.9-1.5-20.7-3.5-3-2.1-.4-4.9 6.9-7.4 6.5-2.2 18.5-3.5 33-3.6 16-.1 27.4 1.3 29.9 2 5 2.5 15.9 3.4 24.6 2 9-1.4 12.3-4.8 7.5-7.4-9.6-5.3-34.3-6.9-46.4-7.3v-5c0-3-8.3-5.5-18.4-5.5-10.2 0-18.4 2.4-18.4 5.5v5.4c-16.1 1.1-29.9 3.4-39.6 6.6-16.7 5.7-21.6 12.7-13.1 18.8 8.2 5.9 27.7 9.7 52.1 10.2 19 .4 44.9 1 57.7 4.9 6.8 2.1 10.2 4.9 9.7 8s-5.1 6.1-12.6 8.2c-14.1 4-36.9 5.5-56.8 3.6-8.9-.8-24.2-3.1-27.8-8.7-1.9-3-11.5-4.9-21.5-4.4-10 .6-16.6 3.4-14.7 6.4 5.2 8.2 24.5 14.5 52.8 17.2 4.5.4 9.1.7 13.7 1v5c0 3 8.3 5.5 18.4 5.5 10.2 0 18.4-2.4 18.4-5.5v-5.4c16.1-1.1 31.1-3.4 43-6.8 14.3-4.1 22.8-9.6 23.8-15.5 1.2-6.1-5.9-11.8-19.9-16.1z" class="M"/><path d="M1709.7 531.4c-22.6-6.9-58.1-7.7-81.6-8.2-10.3-.2-17.9-1.5-20.7-3.5-3-2.1-.4-4.9 6.9-7.4 6.5-2.2 18.5-3.5 33-3.6 16-.1 27.4 1.3 29.9 2 5 2.5 15.9 3.4 24.6 2 9-1.4 12.3-4.8 7.5-7.4-9.6-5.3-34.3-6.9-46.4-7.3v-5c0-3-8.3-5.5-18.4-5.5-10.2 0-18.5 2.4-18.5 5.5v5.4c-16.1 1.1-29.9 3.4-39.6 6.6-16.7 5.7-21.6 12.7-13.1 18.8 8.2 5.9 27.7 9.7 52.1 10.2 19 .4 44.9 1 57.7 4.9 6.8 2.1 10.2 4.9 9.7 8s-5.1 6.1-12.6 8.2c-14.1 4-36.9 5.5-56.8 3.6-8.8-.8-24.2-3.1-27.8-8.7-1.9-3-11.5-4.9-21.5-4.4-10 .6-16.6 3.4-14.7 6.4 5.2 8.2 24.5 14.5 52.9 17.2 4.5.4 9.1.7 13.7 1v5c0 3 8.3 5.5 18.5 5.5s18.4-2.4 18.4-5.5v-5.4c16.1-1.1 31.1-3.4 43-6.8 14.3-4.1 22.8-9.6 23.8-15.5 1.1-6.1-6-11.8-20-16.1z" class="I"/><g class="J"><use xlink:href="#AF" y="-782.1"/><path d="m1827.1 477.5-56.6 10.4c-25.9-6.8-57.7-11.8-92.7-14.1l70.5-12.9c29.7 4.1 56.3 9.8 78.8 16.6z"/></g><g class="K"><path d="m1465.7 570.9-54.9 10.1c-8.6-3.6-16.2-7.4-22.8-11.4l55.1-10.1c6.2 4 13.8 7.9 22.6 11.4z"/><use xlink:href="#AB" y="-860.2"/></g><g class="N"><path d="m1587.7 594.4-70.6 12.9c-24.3-3.4-46.6-7.8-66.3-13.1l57.8-10.6c23.1 5.1 49.9 8.9 79.1 10.8z"/><use xlink:href="#AQ"/></g><use xlink:href="#S" x="1267" y="-782.1" class="O"/><use xlink:href="#T" x="1267" y="-782.1" class="P"/><path d="M1540.4 610.2c-14.8-1.6-29-3.5-42.4-5.8V668c13.5 2.3 27.6 4.2 42.4 5.8v-63.6z" class="I"/><path d="M1476.3 600.2c-7.3-1.5-14.4-3.2-21.2-4.9V659c6.8 1.7 13.9 3.4 21.2 4.9v-63.7z" class="J"/><use xlink:href="#L" x="1267" y="-860.2" class="I"/><path d="M1854 581.2c-11.6 4.8-25 9.2-39.8 13.2v63.7c14.8-3.9 28.2-8.4 39.8-13.2v-63.7z" class="J"/><use xlink:href="#AN" y="-231.6" class="I"/><use xlink:href="#AO" y="-231.6" class="K"/><path d="M1840.7 457.3c0 32.2-87.9 58.2-196.2 58.2-108.4 0-196.2-26.1-196.2-58.2s87.8-58.2 196.2-58.2c108.3 0 196.2 26.1 196.2 58.2z" class="L"/><path d="M1696.9 454.6c-22.6-6.9-58.1-7.7-81.6-8.2-10.3-.2-17.9-1.5-20.7-3.5-3-2.1-.4-4.9 6.9-7.4 6.5-2.2 18.5-3.5 33-3.6 16-.1 27.4 1.3 29.9 2 5 2.5 15.9 3.4 24.6 2 9-1.4 12.3-4.8 7.5-7.4-9.6-5.3-34.3-6.9-46.4-7.3v-4.9c0-3-8.3-5.5-18.4-5.5-10.2 0-18.4 2.5-18.4 5.5v5.4c-16.1 1.1-29.9 3.3-39.6 6.6-16.6 5.7-21.6 12.7-13.1 18.8 8.2 5.9 27.7 9.7 52.1 10.2 19 .4 44.9 1 57.7 4.9 6.8 2.1 10.2 4.9 9.7 8s-5.1 6.1-12.6 8.2c-14.1 4-36.9 5.5-56.8 3.6-8.9-.8-24.2-3.1-27.8-8.7-1.9-3-11.5-4.9-21.5-4.4-10 .6-16.6 3.4-14.7 6.4 5.2 8.2 24.5 14.5 52.8 17.2 4.5.4 9.1.7 13.7 1v5c0 3 8.3 5.5 18.4 5.5 10.2 0 18.4-2.4 18.4-5.5V493c16.1-1.1 31.1-3.4 43-6.8 14.3-4.1 22.8-9.6 23.8-15.5 1.2-6.1-5.9-11.8-19.9-16.1z" class="M"/><path d="M1709.7 454.6c-22.6-6.9-58.1-7.7-81.6-8.2-10.3-.2-17.9-1.5-20.7-3.5-3-2.1-.4-4.9 6.9-7.4 6.5-2.2 18.5-3.5 33-3.6 16-.1 27.4 1.3 29.9 2 5 2.5 15.9 3.4 24.6 2 9-1.4 12.3-4.8 7.5-7.4-9.6-5.3-34.3-6.9-46.4-7.3v-4.9c0-3-8.3-5.5-18.4-5.5-10.2 0-18.5 2.5-18.5 5.5v5.4c-16.1 1.1-29.9 3.3-39.5 6.6-16.7 5.7-21.6 12.7-13.1 18.8 8.2 5.9 27.7 9.7 52.1 10.2 19 .4 44.9 1 57.7 4.9 6.8 2.1 10.2 4.9 9.7 8s-5.1 6.1-12.6 8.2c-14.1 4-36.9 5.5-56.8 3.6-8.8-.8-24.2-3.1-27.8-8.7-1.9-3-11.5-4.9-21.5-4.4-10 .6-16.6 3.4-14.7 6.4 5.2 8.2 24.4 14.5 52.8 17.2 4.5.4 9.1.7 13.7 1v5c0 3 8.3 5.5 18.5 5.5s18.4-2.4 18.4-5.5V493c16.1-1.1 31.1-3.4 43-6.8 14.3-4.1 22.8-9.6 23.8-15.5 1.1-6.1-6-11.8-20-16.1z" class="I"/><g class="J"><use xlink:href="#AL" y="-464.4"/><path d="m1827.1 400.7-56.5 10.4c-25.9-6.8-57.7-11.7-92.7-14l70.5-12.9c29.6 4.1 56.2 9.7 78.7 16.5z"/></g><g class="K"><use xlink:href="#E" x="1267" y="-936.9"/><use xlink:href="#AB" y="-936.9"/></g><g class="N"><use xlink:href="#AC" y="-936.9"/><use xlink:href="#AM" y="-309.6"/></g><path d="M1632.7 538.2c-150.4 0-272.3-36.2-272.3-80.8V521c0 44.6 121.9 80.8 272.3 80.8S1905 565.6 1905 521l-1-57.1c-11.2 41.6-128.3 74.3-271.3 74.3z" class="O"/><path d="M1396.1 561c11.7 6.1 26 11.7 42.4 16.7V514c-16.4-5-30.7-10.6-42.4-16.7V561z" class="P"/><path d="M1540.4 533.4c-14.8-1.6-29-3.5-42.4-5.8v63.7c13.5 2.3 27.6 4.2 42.4 5.8v-63.7z" class="I"/><path d="M1476.3 523.5c-7.3-1.5-14.4-3.2-21.2-4.9v63.7c6.8 1.7 13.9 3.4 21.2 4.9v-63.7z" class="J"/><use xlink:href="#L" x="1267" y="-936.9" class="I"/><path d="M1854 504.4c-11.6 4.8-25 9.2-39.8 13.2v63.7c14.8-3.9 28.2-8.3 39.8-13.2v-63.7z" class="J"/><use xlink:href="#y" y="-1015" class="I"/><use xlink:href="#g" x="636" y="-1015" class="K"/><use xlink:href="#z" y="-1015" class="L"/><path d="M1696.9 376.5c-22.6-6.9-58.1-7.7-81.6-8.2-10.3-.2-17.9-1.5-20.7-3.5-3-2.1-.4-4.9 6.9-7.4 6.5-2.2 18.5-3.5 33-3.6 16-.1 27.4 1.3 29.9 2 5 2.5 15.9 3.4 24.6 2 9-1.4 12.3-4.8 7.5-7.4-9.6-5.3-34.3-6.9-46.4-7.3v-4.9c0-3-8.3-5.5-18.4-5.5-10.2 0-18.4 2.5-18.4 5.5v5.4c-16.1 1.1-29.9 3.4-39.6 6.7-16.6 5.7-21.6 12.7-13.1 18.8 8.2 5.9 27.7 9.7 52.1 10.2 19 .4 44.9 1 57.7 4.9 6.8 2.1 10.2 4.9 9.7 8s-5.1 6.1-12.6 8.2c-14.1 4-36.9 5.5-56.8 3.6-8.9-.8-24.2-3.1-27.8-8.8-1.9-3-11.5-4.9-21.5-4.4-10 .6-16.6 3.4-14.7 6.4 5.2 8.2 24.5 14.5 52.8 17.2 4.5.4 9.1.8 13.7 1v5c0 3 8.3 5.5 18.4 5.5 10.2 0 18.4-2.5 18.4-5.5V415c16.1-1.1 31.1-3.4 43-6.8 14.3-4.1 22.8-9.6 23.8-15.5 1.2-6.1-5.9-11.9-19.9-16.2z" class="M"/><path d="M1709.7 376.5c-22.6-6.9-58.1-7.7-81.6-8.2-10.3-.2-17.9-1.5-20.7-3.5-3-2.1-.4-4.9 6.9-7.4 6.5-2.2 18.5-3.5 33-3.6 16-.1 27.4 1.3 29.9 2 5 2.5 15.9 3.4 24.6 2 9-1.4 12.3-4.8 7.5-7.4-9.6-5.3-34.3-6.9-46.4-7.3v-4.9c0-3-8.3-5.5-18.4-5.5-10.2 0-18.5 2.5-18.5 5.5v5.4c-16.1 1.1-29.9 3.4-39.5 6.7-16.7 5.7-21.6 12.7-13.1 18.8 8.2 5.9 27.7 9.7 52.1 10.2 19 .4 44.9 1 57.7 4.9 6.8 2.1 10.2 4.9 9.7 8s-5.1 6.1-12.6 8.2c-14.1 4-36.9 5.5-56.8 3.6-8.8-.8-24.2-3.1-27.8-8.8-1.9-3-11.5-4.9-21.5-4.4-10 .6-16.6 3.4-14.7 6.4 5.2 8.2 24.4 14.5 52.8 17.2 4.5.4 9.1.8 13.7 1v5c0 3 8.3 5.5 18.5 5.5s18.4-2.5 18.4-5.5V415c16.1-1.1 31.1-3.4 43-6.8 14.3-4.1 22.8-9.6 23.8-15.5 1.1-6.1-6-11.9-20-16.2z" class="I"/><g class="J"><use xlink:href="#AA" y="-1015"/><use xlink:href="#AK" y="-782.2"/></g><g class="K"><use xlink:href="#Q" x="1267" y="-936.9"/><use xlink:href="#AB" y="-1015"/></g><g class="N"><use xlink:href="#AC" y="-1015"/><use xlink:href="#AP" y="-231.6"/></g><path d="M1632.7 460.1c-150.4 0-272.3-36.2-272.3-80.8V443c0 44.7 121.9 80.8 272.3 80.8S1905 487.6 1905 443l-1-57.1c-11.2 41.5-128.3 74.2-271.3 74.2z" class="O"/><path d="M1396.1 482.9c11.7 6.1 26 11.7 42.4 16.7v-63.7c-16.4-5-30.7-10.6-42.4-16.6v63.6z" class="P"/><path d="M1540.4 455.3c-14.8-1.6-29-3.5-42.4-5.8v63.7c13.5 2.3 27.6 4.2 42.4 5.8v-63.7z" class="I"/><path d="M1476.3 445.4c-7.3-1.5-14.4-3.2-21.2-4.9v63.7c6.8 1.7 13.9 3.4 21.2 4.9v-63.7z" class="J"/><use xlink:href="#L" x="1267" y="-1015" class="I"/><path d="M1854 426.4c-11.6 4.8-25 9.2-39.8 13.1v63.7c14.8-3.9 28.2-8.3 39.8-13.1v-63.7z" class="J"/><use xlink:href="#N" x="1267" y="-1013.7" class="I"/><use xlink:href="#AG" y="-936.9" class="K"/><path d="M1840.7 302.5c0 32.2-87.9 58.3-196.2 58.3-108.4 0-196.2-26.1-196.2-58.3s87.8-58.2 196.2-58.2c108.3 0 196.2 26 196.2 58.2z" class="L"/><path d="M1696.9 299.8c-22.6-6.9-58.1-7.7-81.6-8.2-10.3-.2-17.9-1.5-20.7-3.5-3-2.1-.4-4.9 6.9-7.4 6.5-2.2 18.5-3.5 33-3.6 16-.1 27.4 1.3 29.9 2 5 2.5 15.9 3.4 24.6 2 9-1.4 12.3-4.8 7.5-7.4-9.6-5.3-34.3-6.9-46.4-7.3v-4.9c0-3-8.3-5.5-18.4-5.5-10.2 0-18.4 2.4-18.4 5.5v5.4c-16.1 1.1-29.9 3.4-39.6 6.6-16.7 5.7-21.6 12.7-13.1 18.8 8.2 5.9 27.7 9.7 52.1 10.2 19 .4 44.9 1 57.7 4.9 6.8 2.1 10.2 4.9 9.7 8s-5.1 6.1-12.6 8.2c-14.1 4-36.9 5.5-56.8 3.6-8.9-.8-24.2-3.1-27.8-8.7-1.9-3-11.5-4.9-21.5-4.4-10 .6-16.6 3.4-14.7 6.4 5.2 8.2 24.5 14.5 52.8 17.2 4.5.4 9.1.7 13.7 1v5c0 3 8.3 5.5 18.4 5.5 10.2 0 18.4-2.5 18.4-5.5v-5.4c16.1-1.1 31.1-3.4 43-6.8 14.3-4.1 22.8-9.6 23.8-15.5 1.2-6.2-5.9-11.9-19.9-16.2z" class="M"/><path d="M1709.7 299.8c-22.6-6.9-58.1-7.7-81.6-8.2-10.3-.2-17.9-1.5-20.7-3.5-3-2.1-.4-4.9 6.9-7.4 6.5-2.2 18.5-3.5 33-3.6 16-.1 27.4 1.3 29.9 2 5 2.5 15.9 3.4 24.6 2 9-1.4 12.3-4.8 7.5-7.4-9.6-5.3-34.3-6.9-46.4-7.3v-4.9c0-3-8.3-5.5-18.4-5.5-10.2 0-18.5 2.4-18.5 5.5v5.4c-16.1 1.1-29.9 3.4-39.6 6.6-16.7 5.7-21.6 12.7-13.1 18.8 8.2 5.9 27.7 9.7 52.1 10.2 19 .4 44.9 1 57.7 4.9 6.8 2.1 10.2 4.9 9.7 8s-5.1 6.1-12.6 8.2c-14.1 4-36.9 5.5-56.8 3.6-8.8-.8-24.2-3.1-27.8-8.7-1.9-3-11.5-4.9-21.5-4.4-10 .6-16.6 3.4-14.7 6.4 5.2 8.2 24.5 14.5 52.9 17.2 4.5.4 9.1.7 13.7 1v5c0 3 8.3 5.5 18.5 5.5s18.4-2.5 18.4-5.5v-5.4c16.1-1.1 31.1-3.4 43-6.8 14.3-4.1 22.8-9.6 23.8-15.5 1.1-6.2-6-11.9-20-16.2z" class="I"/><g class="J"><use xlink:href="#AF" y="-1013.7"/><use xlink:href="#e" x="1267" y="-704.1"/></g><g class="K"><use xlink:href="#Q" x="1267" y="-1013.7"/><use xlink:href="#AB" y="-1091.8"/></g><g class="N"><use xlink:href="#AC" y="-1091.8"/><use xlink:href="#AQ" y="-231.6"/></g><use xlink:href="#S" x="1267" y="-1013.7" class="O"/><use xlink:href="#T" x="1267" y="-1013.7" class="P"/><path d="M1540.4 378.6c-14.8-1.6-29-3.5-42.4-5.8v63.7c13.5 2.3 27.6 4.2 42.4 5.8v-63.7z" class="I"/><path d="M1476.3 368.6c-7.3-1.5-14.4-3.2-21.2-4.9v63.7c6.8 1.7 13.9 3.4 21.2 4.9v-63.7z" class="J"/><use xlink:href="#L" x="1267" y="-1091.8" class="I"/><path d="M1854 349.6c-11.6 4.8-25 9.2-39.8 13.2v63.7c14.8-3.9 28.2-8.4 39.8-13.2v-63.7z" class="J"/><g fill="#fff"><use xlink:href="#AR"/><use xlink:href="#AR" x="663.4" y="-266.3"/><path d="M334.7 1263c-70.3 6.3-75.4 11.4-81.7 81.7-6.3-70.3-11.4-75.4-81.7-81.7 70.3-6.3 75.4-11.4 81.7-81.7 6.3 70.3 11.4 75.4 81.7 81.7z"/></g><path fill="none" stroke="#e64645" stroke-miterlimit="10" stroke-width="74" d="m21.5 715.9 486.8-256.5L527 563.3l554.1-307.4 35.4 132.1 572.7-332.4"/><path fill="#e64645" d="m1628.3 2.7 72.6 142.2L1750.1 23z"/><defs><path id="A" d="M638.1 1394.3c0 44.6-121.9 80.8-272.3 80.8s-272.3-36.2-272.3-80.8 121.9-80.8 272.3-80.8 272.3 36.1 272.3 80.8z"/><path id="B" d="M573.7 1394.3c0 34.1-93.1 61.7-207.9 61.7s-207.9-27.6-207.9-61.7 93.1-61.7 207.9-61.7 207.9 27.6 207.9 61.7z"/><path id="C" d="M573.7 1394.3c0 32.2-87.8 58.2-196.2 58.2s-196.2-26.1-196.2-58.2c0-32.2 87.9-58.3 196.2-58.3s196.2 26.1 196.2 58.3z"/><path id="D" d="m164.8 1410.2-56.6 10.4c-9.6-8.2-14.8-17.1-14.8-26.3 0-.7 0-1.4.1-2l70.5-12.9c-4.1 4.8-6.2 9.8-6.2 15 0 5.4 2.4 10.7 7 15.8z"/><path id="E" d="m198.7 1431-54.9 10.1c-8.6-3.6-16.2-7.4-22.8-11.3l55.1-10.1c6.2 4 13.8 7.8 22.6 11.3z"/><path id="F" d="m606.2 1356.3-54.9 10.1c-6.8-4-14.9-7.7-24.3-11.1l55.1-10.1c9 3.5 17.1 7.2 24.1 11.1z"/><path id="G" d="m320.7 1454.5-70.6 12.9c-24.3-3.4-46.6-7.8-66.3-13.1l57.8-10.6c23.2 5.2 49.9 8.9 79.1 10.8z"/><path id="H" d="m638.1 1394.3-.1 2.1-70.9 13c4.3-4.8 6.6-9.9 6.6-15.1 0-3.7-1.2-7.3-3.4-10.8l58.1-10.7c6.3 6.9 9.7 14 9.7 21.5z"/><path id="I" d="M129.1 1498c11.7 6.1 26 11.7 42.4 16.7V1451c-16.4-5-30.7-10.6-42.4-16.7v63.7z"/><path id="J" d="M273.4 1470.3c-14.8-1.6-28.9-3.5-42.4-5.8v63.7c13.5 2.3 27.6 4.2 42.4 5.8v-63.7z"/><path id="K" d="M209.3 1460.4c-7.3-1.5-14.4-3.2-21.2-4.9v63.7c6.8 1.7 13.9 3.4 21.2 4.9v-63.7z"/><path id="L" d="M471.4 1532.5c19.9-2.5 38.5-5.7 55.7-9.4v-63.7c-17.1 3.7-35.8 6.9-55.7 9.4v63.7z"/><path id="M" d="M587 1441.4c-11.6 4.8-25 9.2-39.8 13.1v63.7c14.8-3.9 28.2-8.3 39.8-13.2v-63.6z"/><path id="N" d="M638.1 1316.2c0 44.7-121.9 80.8-272.3 80.8s-272.3-36.2-272.3-80.8 121.9-80.8 272.3-80.8 272.3 36.1 272.3 80.8z"/><path id="O" d="M573.7 1316.2c0 32.2-87.8 58.2-196.2 58.2s-196.2-26.1-196.2-58.2c0-32.2 87.9-58.2 196.2-58.2 108.3-.1 196.2 26 196.2 58.2z"/><path id="P" d="m164.8 1332.1-56.6 10.4c-9.6-8.3-14.8-17.1-14.8-26.3 0-.7 0-1.4.1-2l70.5-12.9c-4.1 4.8-6.2 9.8-6.2 15 0 5.4 2.4 10.7 7 15.8z"/><path id="Q" d="m198.7 1353-54.9 10.1c-8.6-3.6-16.2-7.4-22.8-11.3l55.1-10.1c6.2 3.9 13.8 7.7 22.6 11.3z"/><path id="R" d="m638.1 1316.2-.1 2.1-70.9 13c4.3-4.8 6.6-9.9 6.6-15.1 0-3.7-1.2-7.3-3.4-10.8l58.1-10.7c6.3 6.9 9.7 14.1 9.7 21.5z"/><path id="S" d="M365.7 1397c-150.4 0-272.3-36.2-272.3-80.8v63.7c0 44.6 121.9 80.8 272.3 80.8s272.3-36.2 272.3-80.8l-1-57.1c-11.2 41.5-128.3 74.2-271.3 74.2z"/><path id="T" d="M129.1 1419.9c11.7 6.1 26 11.7 42.4 16.7v-63.7c-16.4-5-30.7-10.6-42.4-16.7v63.7z"/><path id="U" d="M587 1363.3c-11.6 4.8-25 9.2-39.8 13.2v63.7c14.8-3.9 28.2-8.4 39.8-13.2v-63.7z"/><path id="V" d="m560.1 1182.8-56.6 10.4c-25.9-6.8-57.7-11.7-92.7-14l70.5-12.9c29.7 4 56.3 9.7 78.8 16.5z"/><path id="W" d="M365.7 1320.2c-150.4 0-272.3-36.2-272.3-80.8v63.7c0 44.6 121.9 80.8 272.3 80.8s272.3-36.2 272.3-80.8l-1-57.1c-11.2 41.6-128.3 74.2-271.3 74.2z"/><path id="X" d="M638.1 1161.5c0 44.6-121.9 80.8-272.3 80.8s-272.3-36.2-272.3-80.8c0-44.7 121.9-80.8 272.3-80.8s272.3 36.1 272.3 80.8z"/><path id="Y" d="M638.1 1161.5c0 .7-.1 1.4-.1 2l-70.9 13c4.3-4.8 6.6-9.8 6.6-15.1 0-3.7-1.2-7.3-3.4-10.8l58.1-10.7c6.3 7 9.7 14.1 9.7 21.6z"/><path id="Z" d="M638.1 1083.4c0 .7-.1 1.4-.1 2l-70.9 13c4.3-4.8 6.6-9.8 6.6-15.1 0-3.7-1.2-7.3-3.4-10.8l58.1-10.7c6.3 7 9.7 14.2 9.7 21.6z"/><path id="a" d="M365.7 1164.2c-150.4 0-272.3-36.2-272.3-80.8v63.7c0 44.7 121.9 80.8 272.3 80.8s272.3-36.2 272.3-80.8l-1-57.1c-11.2 41.5-128.3 74.2-271.3 74.2z"/><path id="b" d="M129.1 1187.1c11.7 6.1 26 11.7 42.4 16.7V1140c-16.4-5-30.7-10.6-42.4-16.7v63.8z"/><path id="c" d="M587 1130.5c-11.6 4.8-25 9.2-39.8 13.1v63.7c14.8-3.9 28.2-8.4 39.8-13.2v-63.6z"/><path id="d" d="M638.1 1006.6c0 44.7-121.9 80.8-272.3 80.8s-272.3-36.2-272.3-80.8 121.9-80.8 272.3-80.8 272.3 36.2 272.3 80.8z"/><path id="e" d="m560.1 950-56.6 10.4c-25.9-6.8-57.7-11.8-92.7-14l70.5-12.9c29.7 4 56.3 9.7 78.8 16.5z"/><path id="f" d="M587 1053.7c-11.6 4.8-25 9.2-39.8 13.2v63.7c14.8-3.9 28.2-8.4 39.8-13.1v-63.8z"/><path id="g" d="M1204.7 1394.3c0 34.1-93.1 61.7-207.9 61.7s-207.9-27.6-207.9-61.7 93.1-61.7 207.9-61.7c114.8-.1 207.9 27.6 207.9 61.7z"/><path id="h" d="M1204.7 1394.3c0 32.2-87.9 58.2-196.2 58.2-108.4 0-196.2-26.1-196.2-58.2 0-32.2 87.8-58.3 196.2-58.3s196.2 26.1 196.2 58.3z"/><path id="i" d="m795.9 1410.2-56.6 10.4c-9.6-8.2-14.8-17.1-14.8-26.3 0-.7 0-1.4.1-2l70.5-12.9c-4.1 4.8-6.2 9.8-6.2 15-.1 5.4 2.4 10.7 7 15.8z"/><path id="j" d="m1237.2 1356.3-54.9 10.1c-6.7-4-14.9-7.7-24.3-11.1l55.1-10.1c9.1 3.5 17.1 7.2 24.1 11.1z"/><path id="k" d="m951.7 1454.5-70.6 12.9c-24.3-3.4-46.6-7.8-66.3-13.1l57.8-10.6c23.2 5.2 50 8.9 79.1 10.8z"/><path id="l" d="M996.8 1475.1c-150.4 0-272.3-36.2-272.3-80.8v63.7c0 44.7 121.9 80.8 272.3 80.8s272.3-36.2 272.3-80.8l-1-57.1c-11.2 41.5-128.4 74.2-271.3 74.2z"/><path id="m" d="M904.5 1470.3c-14.8-1.6-29-3.5-42.4-5.8v63.7c13.5 2.3 27.6 4.2 42.4 5.8v-63.7z"/><path id="n" d="M1102.4 1532.5c19.9-2.5 38.5-5.7 55.6-9.4v-63.7c-17.1 3.7-35.8 6.9-55.6 9.4v63.7z"/><path id="o" d="M1204.7 1316.2c0 32.2-87.9 58.2-196.2 58.2-108.4 0-196.2-26.1-196.2-58.2 0-32.2 87.8-58.2 196.2-58.2 108.4-.1 196.2 26 196.2 58.2z"/><path id="p" d="m795.9 1332.1-56.6 10.4c-9.6-8.3-14.8-17.1-14.8-26.3 0-.7 0-1.4.1-2l70.5-12.9c-4.1 4.8-6.2 9.8-6.2 15-.1 5.4 2.4 10.7 7 15.8z"/><path id="q" d="m1269.1 1316.2-.1 2.1-71 13c4.3-4.8 6.6-9.9 6.6-15.1 0-3.7-1.2-7.3-3.4-10.8l58.1-10.7c6.5 6.9 9.8 14.1 9.8 21.5z"/><path id="r" d="M996.8 1397c-150.4 0-272.3-36.2-272.3-80.8v63.7c0 44.6 121.9 80.8 272.3 80.8s272.3-36.2 272.3-80.8l-1-57.1c-11.2 41.5-128.4 74.2-271.3 74.2z"/><path id="s" d="M1269.1 1239.4c0 44.6-121.9 80.8-272.3 80.8s-272.3-36.2-272.3-80.8c0-44.7 121.9-80.8 272.3-80.8s272.3 36.2 272.3 80.8z"/><path id="t" d="M1204.7 1239.4c0 32.2-87.9 58.2-196.2 58.2-108.4 0-196.2-26.1-196.2-58.2 0-32.2 87.8-58.2 196.2-58.2s196.2 26.1 196.2 58.2z"/><path id="u" d="M1061 1236.7c-22.6-6.9-58.1-7.7-81.6-8.2-10.3-.2-17.9-1.5-20.7-3.5-3-2.1-.4-4.9 6.9-7.4 6.4-2.2 18.5-3.5 33-3.6 16-.1 27.4 1.3 29.9 2 5 2.5 15.9 3.4 24.6 2 9-1.4 12.3-4.8 7.5-7.4-9.6-5.3-34.3-6.9-46.4-7.3v-4.9c0-3-8.3-5.5-18.5-5.5s-18.4 2.4-18.4 5.5v5.4c-16.1 1.1-29.9 3.4-39.6 6.6-16.6 5.7-21.6 12.7-13.1 18.8 8.2 5.9 27.7 9.7 52.1 10.2 19 .4 44.9 1 57.7 4.9 6.8 2.1 10.2 4.9 9.7 8s-5.1 6.1-12.6 8.2c-14.1 4-36.9 5.5-56.8 3.6-8.8-.8-24.2-3.1-27.8-8.8-1.9-3-11.5-4.9-21.5-4.4-10 .6-16.6 3.4-14.7 6.4 5.2 8.2 24.5 14.5 52.8 17.2 4.5.4 9.1.7 13.7 1v5c0 3 8.3 5.5 18.4 5.5 10.2 0 18.5-2.5 18.5-5.5v-5.4c16.1-1.1 31.1-3.4 43-6.8 14.3-4.1 22.8-9.6 23.8-15.5 1.2-6.1-5.9-11.8-19.9-16.1z"/><path id="v" d="M1073.7 1236.7c-22.6-6.9-58.1-7.7-81.6-8.2-10.3-.2-17.9-1.5-20.7-3.5-3-2.1-.4-4.9 6.9-7.4 6.5-2.2 18.5-3.5 33-3.6 16-.1 27.4 1.3 29.9 2 5 2.5 15.9 3.4 24.6 2 9-1.4 12.3-4.8 7.5-7.4-9.6-5.3-34.3-6.9-46.4-7.3v-4.9c0-3-8.3-5.5-18.4-5.5-10.2 0-18.5 2.4-18.5 5.5v5.4c-16.1 1.1-29.9 3.4-39.6 6.6-16.6 5.7-21.5 12.7-13.1 18.8 8.2 5.9 27.7 9.7 52.1 10.2 19 .4 44.9 1 57.7 4.9 6.8 2.1 10.2 4.9 9.7 8s-5.1 6.1-12.6 8.2c-14.1 4-36.9 5.5-56.8 3.6-8.8-.8-24.2-3.1-27.8-8.8-1.9-3-11.5-4.9-21.5-4.4-10 .6-16.6 3.4-14.7 6.4 5.2 8.2 24.4 14.5 52.8 17.2 4.5.4 9.1.7 13.7 1v5c0 3 8.3 5.5 18.5 5.5s18.4-2.5 18.4-5.5v-5.4c16.1-1.1 31.1-3.4 43-6.8 14.3-4.1 22.8-9.6 23.8-15.5 1.2-6.1-5.9-11.8-19.9-16.1z"/><path id="w" d="m1191.2 1182.8-56.6 10.4c-25.9-6.8-57.7-11.7-92.7-14l70.5-12.9c29.6 4 56.2 9.7 78.8 16.5z"/><path id="x" d="M904.5 1315.5c-14.8-1.6-29-3.6-42.4-5.8v63.7c13.5 2.3 27.6 4.2 42.4 5.8v-63.7z"/><path id="y" d="M1905.1 1394.3c0 44.6-121.9 80.8-272.3 80.8s-272.3-36.2-272.3-80.8 121.9-80.8 272.3-80.8c150.4-.1 272.3 36.1 272.3 80.8z"/><path id="z" d="M1840.7 1394.3c0 32.2-87.9 58.2-196.2 58.2-108.4 0-196.2-26.1-196.2-58.2 0-32.2 87.8-58.3 196.2-58.3 108.3 0 196.2 26.1 196.2 58.3z"/><path id="AA" d="m1431.8 1410.2-56.6 10.4c-9.6-8.2-14.8-17.1-14.8-26.3 0-.7.1-1.4.1-2l70.5-12.9c-4.1 4.8-6.2 9.8-6.2 15 0 5.4 2.4 10.7 7 15.8z"/><path id="AB" d="m1873.2 1356.3-54.9 10.1c-6.7-4-14.9-7.7-24.3-11.1l55.1-10.1c9 3.5 17.1 7.2 24.1 11.1z"/><path id="AC" d="m1587.7 1454.5-70.6 12.9c-24.3-3.4-46.6-7.8-66.3-13.1l57.8-10.6c23.1 5.2 49.9 8.9 79.1 10.8z"/><path id="AD" d="M1905.1 1316.2c0 44.7-121.9 80.8-272.3 80.8s-272.3-36.2-272.3-80.8 121.9-80.8 272.3-80.8c150.4-.1 272.3 36.1 272.3 80.8z"/><path id="AE" d="M1840.7 1316.2c0 32.2-87.9 58.2-196.2 58.2-108.4 0-196.2-26.1-196.2-58.2 0-32.2 87.8-58.2 196.2-58.2 108.3-.1 196.2 26 196.2 58.2z"/><path id="AF" d="m1431.8 1332.1-56.6 10.4c-9.6-8.3-14.8-17.1-14.8-26.3 0-.7.1-1.4.1-2l70.5-12.9c-4.1 4.8-6.2 9.8-6.2 15 0 5.4 2.4 10.7 7 15.8z"/><path id="AG" d="M1840.7 1239.4c0 34.1-93.1 61.7-208 61.7-114.8 0-207.9-27.6-207.9-61.7s93.1-61.7 207.9-61.7c114.9 0 208 27.6 208 61.7z"/><path id="AH" d="M1840.7 1239.4c0 32.2-87.9 58.2-196.2 58.2-108.4 0-196.2-26.1-196.2-58.2 0-32.2 87.8-58.2 196.2-58.2 108.3 0 196.2 26.1 196.2 58.2z"/><path id="AI" d="M1696.9 1236.7c-22.6-6.9-58.1-7.7-81.6-8.2-10.3-.2-17.9-1.5-20.7-3.5-3-2.1-.4-4.9 6.9-7.4 6.5-2.2 18.5-3.5 33-3.6 16-.1 27.4 1.3 29.9 2 5 2.5 15.9 3.4 24.6 2 9-1.4 12.3-4.8 7.5-7.4-9.6-5.3-34.3-6.9-46.4-7.3v-4.9c0-3-8.3-5.5-18.4-5.5-10.2 0-18.4 2.4-18.4 5.5v5.4c-16.1 1.1-29.9 3.4-39.6 6.6-16.7 5.7-21.6 12.7-13.1 18.8 8.2 5.9 27.7 9.7 52.1 10.2 19 .4 44.9 1 57.7 4.9 6.8 2.1 10.2 4.9 9.7 8s-5.1 6.1-12.6 8.2c-14.1 4-36.9 5.5-56.8 3.6-8.9-.8-24.2-3.1-27.8-8.8-1.9-3-11.5-4.9-21.5-4.4-10 .6-16.6 3.4-14.7 6.4 5.2 8.2 24.5 14.5 52.8 17.2 4.5.4 9.1.7 13.7 1v5c0 3 8.3 5.5 18.4 5.5 10.2 0 18.4-2.5 18.4-5.5v-5.4c16.1-1.1 31.1-3.4 43-6.8 14.3-4.1 22.8-9.6 23.8-15.5 1.2-6.1-5.9-11.8-19.9-16.1z"/><path id="AJ" d="M1709.7 1236.7c-22.6-6.9-58.1-7.7-81.6-8.2-10.3-.2-17.9-1.5-20.7-3.5-3-2.1-.4-4.9 6.9-7.4 6.5-2.2 18.5-3.5 33-3.6 16-.1 27.4 1.3 29.9 2 5 2.5 15.9 3.4 24.6 2 9-1.4 12.3-4.8 7.5-7.4-9.6-5.3-34.3-6.9-46.4-7.3v-4.9c0-3-8.3-5.5-18.4-5.5-10.2 0-18.5 2.4-18.5 5.5v5.4c-16.1 1.1-29.9 3.4-39.6 6.6-16.7 5.7-21.6 12.7-13.1 18.8 8.2 5.9 27.7 9.7 52.1 10.2 19 .4 44.9 1 57.7 4.9 6.8 2.1 10.2 4.9 9.7 8s-5.1 6.1-12.6 8.2c-14.1 4-36.9 5.5-56.8 3.6-8.8-.8-24.2-3.1-27.8-8.8-1.9-3-11.5-4.9-21.5-4.4-10 .6-16.6 3.4-14.7 6.4 5.2 8.2 24.5 14.5 52.9 17.2 4.5.4 9.1.7 13.7 1v5c0 3 8.3 5.5 18.5 5.5s18.4-2.5 18.4-5.5v-5.4c16.1-1.1 31.1-3.4 43-6.8 14.3-4.1 22.8-9.6 23.8-15.5 1.1-6.1-6-11.8-20-16.1z"/><path id="AK" d="m1827.1 1104.9-56.5 10.4c-25.9-6.8-57.7-11.7-92.7-14l70.5-12.9c29.6 4 56.2 9.6 78.7 16.5z"/><path id="AL" d="m1431.8 937.7-56.6 10.4c-9.6-8.2-14.8-17.1-14.8-26.3 0-.7.1-1.4.1-2l70.5-12.9c-4.1 4.8-6.2 9.8-6.2 15 0 5.3 2.4 10.7 7 15.8z"/><path id="AM" d="M1905.1 766.9c0 .7-.1 1.4-.1 2l-70.9 13c4.3-4.8 6.6-9.9 6.6-15.1 0-3.7-1.2-7.3-3.4-10.8l58.1-10.7c6.3 7 9.7 14.2 9.7 21.6z"/><path id="AN" d="M1905.1 688.9c0 44.6-121.9 80.8-272.3 80.8s-272.3-36.2-272.3-80.8 121.9-80.8 272.3-80.8 272.3 36.2 272.3 80.8z"/><path id="AO" d="M1840.7 688.9c0 34.1-93.1 61.7-207.9 61.7s-207.9-27.6-207.9-61.7 93.1-61.7 207.9-61.7 207.9 27.7 207.9 61.7z"/><path id="AP" d="m1905.1 610.9-.1 2.1-70.9 13c4.3-4.8 6.6-9.8 6.6-15.1 0-3.7-1.2-7.3-3.4-10.8l58.1-10.7c6.3 6.9 9.7 14 9.7 21.5z"/><path id="AQ" d="m1905.1 534.1-.1 2.1-70.9 13c4.3-4.8 6.6-9.9 6.6-15.1 0-3.7-1.2-7.3-3.4-10.8l58.1-10.6c6.3 6.8 9.7 14 9.7 21.4z"/><path id="AR" d="M1140.2 844.7c-70.3 6.3-75.4 11.4-81.7 81.7-6.3-70.3-11.4-75.4-81.7-81.7 70.3-6.3 75.4-11.4 81.7-81.7 6.3 70.4 11.4 75.5 81.7 81.7z"/><path id="AS" d="M471.4 1454.4c19.9-2.5 38.5-5.7 55.7-9.4v-63.7c-17.1 3.8-35.8 6.9-55.7 9.4v63.7z"/><path id="AT" d="m606.2 1201.5-54.9 10.1c-6.7-4-14.9-7.7-24.3-11.1l55.1-10.1c9 3.4 17.1 7.1 24.1 11.1z"/><path id="AU" d="M273.4 1315.5c-14.8-1.6-28.9-3.6-42.4-5.8v63.7c13.5 2.3 27.6 4.2 42.4 5.8v-63.7z"/><path id="AV" d="m606.2 968.7-54.9 10.1c-6.7-4-14.9-7.7-24.3-11.1l55.1-10.1c9 3.4 17.1 7.2 24.1 11.1z"/><path id="AW" d="M904.5 1159.5c-14.8-1.6-29-3.5-42.4-5.8v63.7c13.5 2.3 27.6 4.3 42.4 5.8v-63.7z"/><path id="AX" d="M904.5 997.8c-14.8-1.6-29-3.5-42.4-5.8v63.7c13.5 2.3 27.6 4.2 42.4 5.8v-63.7z"/><path id="AY" d="M840.4 987.9c-7.3-1.5-14.4-3.2-21.2-4.9v63.7c6.8 1.7 13.9 3.4 21.2 4.9v-63.7z"/><path id="AZ" d="M1218 968.8c-11.6 4.8-25 9.2-39.8 13.2v63.7c14.8-3.9 28.2-8.3 39.8-13.2v-63.7z"/><path id="Aa" d="M904.5 919.7c-14.8-1.6-29-3.5-42.4-5.8v63.7c13.5 2.3 27.6 4.2 42.4 5.8v-63.7z"/><path id="Ab" d="M840.4 909.8c-7.3-1.5-14.4-3.2-21.2-4.9v63.7c6.8 1.7 13.9 3.4 21.2 4.9v-63.7z"/><path id="Ac" d="M1218 890.7c-11.6 4.8-25 9.2-39.8 13.2v63.7c14.8-3.9 28.2-8.3 39.8-13.1v-63.8z"/><path id="Ad" d="M904.5 843c-14.8-1.6-29-3.6-42.4-5.8v63.7c13.5 2.3 27.6 4.2 42.4 5.8V843z"/><path id="Ae" d="M840.4 833c-7.3-1.5-14.4-3.2-21.2-4.9v63.7c6.8 1.7 13.9 3.4 21.2 4.9V833z"/><path id="Af" d="M1102.4 905.1c19.9-2.5 38.5-5.7 55.7-9.4V832c-17.1 3.7-35.8 6.9-55.7 9.4v63.7z"/><path id="Ag" d="M1218 814c-11.6 4.8-25 9.2-39.8 13.1v63.7c14.8-3.9 28.2-8.4 39.8-13.2V814z"/><path id="Ah" d="m1587.7 1143.7-70.6 12.9c-24.3-3.4-46.6-7.8-66.3-13.1l57.8-10.6c23.1 5.1 49.9 8.8 79.1 10.8z"/></defs></svg>