<svg xmlns="http://www.w3.org/2000/svg" viewBox="0 0 1905.1 1306.2"><style>.V{fill:#f7a483}.W{fill:#e98b6f}.X{fill:#e59375}.Y{fill:#3c2415}.Z{fill:#fff}.a{fill:#3f1901}.b{fill:#09111c}.c{fill:#e1876f}.d{fill:#f8a07d}.e{fill:#5c1b1b}.f{stroke-miterlimit:10}.g{fill:#4fa6c9}.h{fill:#7ad0e2}.i{fill:#9f4541}.j{fill:#d45f5a}.k{fill:#9698bc}.l{fill:#1a2530}.m{fill:#091420}.n{fill:#e6e7e8}.o{stroke-width:5.338}.p{stroke-width:8.732}</style><g class="X"><path d="m56 1306.2-.6-9.4-9.9-58.1-34.4 3.7-9.3 54.5-1.8 9.3z"/><path d="M140.5 873.3s-85.5 296.3-95 365.5c0 0-30.6 34-34.4 3.6-7.7-60.6 16.2-376 32.4-400.5s97 31.4 97 31.4z"/></g><path fill="#4b9ebf" d="M31.5 895.2S9.6 1061.3 7.4 1263.9c0 0 36.7 9.5 54.7 1.7 0 0 100.5-274.2 87-402.1 0 0-92.2-49.5-117.6 31.7z"/><path d="M432.2 276.2c-5.1 58.9-24.9 75.3-3.4 135.3 19.8 55.5 68.6 94.5 77.9 155 6.6 43-1 113.8-27.8 150-39 52.6-135.1 29-189.6 23-62-6.8-199.3-4.2-240.3-62.9-31.1-44.5 1.2-128 10.6-175.6l35.2-181.2c9.8-55.1 23.4-144.8 61.9-189.6 32.7-38.1 77.8-41.4 131.9-34.4C391 109.2 438.5 202.6 432.2 276.2z" class="a"/><g class="X"><path d="M123.6 509.1c-44.2-1.2-81 33.6-82.3 77.8-1.2 44.2 22.9 158.2 56.5 129.5C164 660.1 197 626.2 198.2 582c1.3-44.2-30.4-71.6-74.6-72.9z"/><path d="m61.6 570.9 80-10.9 48.5 67.3s-60.9 258.3-97.6 308.1c-39.1 53.1-48.5-1.6-54.8-23.1 0 0-2.7-297.2 23.9-341.4z"/></g><path d="m332.2 1306.2 8.8-38.7-218.5-134.1s-28.7 101.1-44 172.8h253.7z" class="V"/><path fill="#010814" d="m331.5 1306.2 3.4-24.7c39.4-177.8-222.9-164.8-222.9-164.8-23.7 43.4-40.4 111.8-52.3 189.5h271.8z"/><path fill="#e79675" d="M211.9 912.6c-10.1-1.8-52 19.8-52 19.8s-52.2 167.9-54.5 193.4 173.3 157.6 369.4 82.4c0 0-90.8-236.4-96.3-294.6-5.5-58.3-166.6-1-166.6-1z"/><g class="b"><path d="M160 932.3s-50.1 151.4-54.5 193.4c-15.6 148.7 185.6 211.1 381.7 135.8 0 0 12.7-204.5-108.7-348 0 0-32.2 29.4-218.5 18.8zm326.6 373.9.6-12.1-22.1 12.1h21.5z"/><path d="M485.5 1306.2c13-124-54.2-143.4-54.2-143.4-116.7-52.1-224.2 14.7-208.9 143.4h263.1z"/></g><path d="M335.7 500.3H199.2c6.2-19.9 19-71.3-.8-106.3l137.9-90.5c-.1-.1-24.6 151.9-.6 196.8z" class="V"/><path d="M209 440.6c.4-15.2-2.1-31.7-10.6-46.7l137.9-90.5s-10 61.9-11 118.4c-49.9 15.9-70.4 22-116.3 18.8z" class="c"/><path d="M429.4 512.1c61.4 30 27.3 102.2 27.3 102.2l-83 302.2s-77.6 31.7-213.7 15.8c-18.9-27.1-57.8-140.4-70.8-227-10.7-71.3-44-141.5-7.8-181.3 13.9-15.2 119.8-30.5 120.4-32.9h127.5l100.1 21zM177.1 406.4l-8.3-20.1-20.7-59.4c-2.9-9.5-4.7-22.5-1.9-32 3.4-11.4 5.5-29.9.3-50.2-14-54.3 8.9-84.2 8.9-84.2 29.5-52.1 105.1-55.7 105.1-55.7 93.7.1 106 90.2 106 90.2 18.1 59.5-27.4 111.9-27.5 112-5.8 6.6-5.9 16.9-8.4 24.9-2.7 8.5-7.1 16.6-12.6 23.6-12.4 15.7-28.8 31-46 40.9-16.3 9.4-48.2 19.7-71.2 20.7-9.6.2-18.9.8-23.7-10.7z" class="V"/><path d="M330.2 342.4c-1.7-42.7-2.6-40-2.6-40-1.6-12.4-24.7 15.7-25.1-.6-1.5-74.5-30.3-108.5-41.1-113.7-29.5-14.1-60-17-83.8-11.5-37.3 8.6-33.3 58.6-33.3 58.6-41.4-181.7 166-133.5 166-133.5 100.9 21.1 95.4 115.4 95.4 115.4 17.3 100.1-78.9 163.2-78.9 163.2l3.4-37.9z" class="a"/><path d="M322.9 328.2c3.5 2.4 7.8 3.7 13.2 3.3 14.5-.9 25.8-15.1 25.3-31.6s-12.6-29.1-27-28.1c-6.9.5-13 3.9-17.5 9.1-6.6 7.6-6.1 21.1-4 30.2 1.6 7.2 4.8 13.5 10 17.1z" class="d"/><path d="M329.3 287.4c.4-8.7 18.3-1.3 15.9 3.7-1.4 2.9-4.4 5.1-6.6 7.2-3.2 2.8-4.7 5.4-4.9 9.7 0 .5-.1 2 .5 2.3 2.3 1.5 9.3-7.4 10.9-9.2 3-3.7 3.2-9.7 1.4-13.9-1.9-4.5-5-6.5-9.9-6-3.9.4-7.9.9-7.5 5.8 0 0 .2.8.2.4zm6 8.6c-1.9-1.7-3.6-.1-5.4 1.3-1.7 1.4-2.5 3.2-2.9 5.3-.8 4.5.1 10.5 2.9 14.3 2.2 3.1 5.8 4.8 9.6 4.5 5.3-.4 6.6-5.1 6.6-9.6 0-1.2 0-4-1.2-4.7-1.3-.7-2.1 1.3-2.9 2.2-1.1 1.2-2.8 1.7-4.4 1.9-3 .4-6-1-8-3.1-.4-.4-.7-.8-.9-1.3.1 2.9.3 3.6.6 1.9.2-.8.5-1.5.9-2.1 1.1-2.1 3.1-3.5 4.4-5.6.6-.9 1.7-4.1.7-5z" class="W"/><path d="M236.8 268.7c-.3 5.2 2.4 9.6 6 9.7 3.5.2 6.6-3.9 6.8-9.1s-2.4-9.6-6-9.7c-3.5-.2-6.6 3.9-6.8 9.1zm-72.4-6c.1 5.2 3 9.4 6.5 9.4s6.3-4.3 6.3-9.5c-.1-5.2-3-9.4-6.5-9.3-3.6-.1-6.4 4.2-6.3 9.4z" class="Y"/><path d="M267.4 260.1c-13.9-18.2-50.5-11.1-50.5-11.1s-2.1 0-1.9-6.5c0 0-.1-5.7 4.5-5.4 0 .1 44.9-7.6 47.9 23zm-123.1-25c6.4-12.2 40.5-.5 40.5-.5 4.6.4 3.5 6.1 3.5 6.1-.8 6.4-2.9 6.1-2.9 6.1s-33.9-13.2-39.7-5.4c-1-4.3-.7-4-1.4-6.3z" class="a"/><path d="m176 331.5 50.6 6.7c2.6.4 3.7 2.3 2.3 4.3 0 0-14.4 20.5-30.8 18.2-16.4-2.2-24.7-25.8-24.7-25.8-.8-2 .4-3.4 2.6-3.4z" class="Z"/><path d="M213.3 319.6c-26.9-.6-28.8-7.5-28.8-7.5l12.6-29c0-.1-1.8 28.4 16.2 36.5z" class="W"/><path d="M322.4 331.2c.2 4.9 4.4 8.7 9.3 8.4 4.9-.2 8.7-4.4 8.4-9.3-.2-4.9-4.4-8.7-9.3-8.4-4.9.2-8.7 4.4-8.4 9.3z" class="Z"/><g class="V"><path d="M348.2 576.4c-2.8 44.1 20.3 87.5 64.5 90.2 44.1 2.8 158.9-17.4 131.4-52-54-68.1-86.8-102.2-130.9-104.9-44.2-2.9-62.3 22.5-65 66.7z"/><path d="m381.9 640.5 28.1-75.7 82.2-11.1S691.3 729.2 718 785c28.4 59.5-24.3 42-46.1 37.4-.1.1-263.6-137.6-290-181.9z"/><path d="M722.4 823.4s-99.2 139.5-191.6 219c0 0-39.8-4-27.2-25.7 21.5-36.9 109.7-209.5 131.4-246.5 12.3-20.8 87.4 53.2 87.4 53.2z"/><path d="m503.7 1016.7-46.6 11.9-20-26c.2 28.8-9.1 48.5-9.1 48.5-26 27.7-41.7 49.4-41.7 49.4-10.2 9.4 1.2 14.6 1.2 14.6 19.1-5.7 55.3-33.8 55.3-33.8-18.1 18.7-52.5 45.3-52.5 45.3-7 9.2 4.7 12 4.7 12 27.5-.7 59.3-41.5 59.3-41.5-11.5 15.8-44.3 43.2-44.3 43.2-1.4 8.2 3.2 7.8 3.2 7.8 21.9 2.8 52.4-36.6 52.4-36.6l-11.8 14.5c-17.9 18.4-1.4 20.3-1.4 20.3l10.9-8.1c32.7-25.4 45.2-57.7 45.2-57.7l22.6-37.9-27.4-25.9z"/></g><path d="M726.1 805.7s8.1 11.7-20.4 50.5c0 0-106.8 154.1-175.8 191.7 0 0-30.4-12.1-34.3-34.8 0 0 91.5-210.7 148.5-246.6s45.4-33.3 82 39.2" class="g"/><path fill="#4b9ebf" d="M77.1 522s-41.4 10.3-41.4 102.7c0 0-32.9 318.3 24.4 333.8 0 0 71.5 22.7 123.5-308.3.1-.1-11.8-129.7-106.5-128.2z"/><g class="g"><path d="m164.4 498.5-58.9 10.6s-42.9 9.4-44.3 46.1c0 0-2.4 69.6 35.5 195.5-.1 0 62.6-193.1 67.7-252.2z"/><path d="m179.4 496.2-26.5 4.1s-51.5 99.6-63.7 205c13 86.6 39.1 217.6 70.8 227 107.3 31.7 219.3-18.1 219.3-18.1l51.3-204.9c-137.8-53.7-68.2-211.2-68.2-211.2l-28.9-6.9-121.8 123.1-32.3-118.1"/><path d="m362.5 498.1 68.2 11.3s32.7 11.6 51.9 35c0 0 272.9 203.8 242.7 277.1 0 0-8.9 24.8-37 17.1L424 714s-147.4-68-61.5-215.9zM125 564.2s-53.9 74.6-63.2 113c-6.2 25.3 37.9 82.2 73.4 92.2 19.4 5.5 19.8-200.2-10.2-205.2z"/></g><g fill="#111924"><path d="M125 564.2s-53.9 74.6-63.2 113c-6.2 25.3 37.9 82.2 73.4 92.2 19.4 5.5 19.8-200.2-10.2-205.2z"/><path d="M148.8 500.3S99.7 600.5 87.6 706c13 86.6 40.8 217 72.4 226.4 107.3 31.7 219.3-18.1 219.3-18.1l51.3-204.9c-137.8-53.7-68.2-211.2-68.2-211.2l-28.9-6.9-128.9 184.1-25.2-179.1-30.6 4z"/></g><g fill="#222b35"><path d="M333.5 491.1 204.6 675.4l92.7-25.1s13.5-11.4 4.9-23.9l-12.8-24.9 17-5s22.3-2.6 26-20.8l13.9-81.5-12.8-3.1z"/><path d="m179.9 496.5 24.8 178.9-50.4-46.8s-20.7-16.8-1.3-25.3l24-7.4-28.2-25.3s-5.8-7.7 0-22.3l16.9-50.2 14.2-1.6z"/></g><path fill="#111924" d="m384.1 895.2 82.1 136.1s-73 72-216.6 84.8c0 0-100.6 2.5-162-53.8l51.3-167.1h245.2z"/><path fill="#4592b1" d="m230 525.4 1.6 69.1 25.4-24.8z"/><path d="M230 523.9s77.2-31.6 96.4-63.1l36.1 37.3-93.6 90.8-38.9-63.5m-68.7 2s7.5-28.9 44.2-53.4l-4.8 99.8c-.1 0-20.4-51.1-39.4-46.4z" class="h"/><path fill="#4592b1" d="m158 573.8 3.3-46.4c11.2-2.7 21.2 12.9 29.4 25.8L158 573.8z"/><path d="M189.4 159.9c63.5 30.7 99.9 60.1 87.7 136-11 68.5-14 105.9 26.4 164.4 38 55 42.8 87.2 15.6 149.6-21.8 50.1-43.2 98.2 19 124.5 117.5 49.6 219.6-46.8 170.3-168.8-22.1-54.7-70.9-90.3-95.9-142.6-25.3-53.1-5.9-100.4-3.9-155.4 3.4-92.1-128.5-218.8-202.8-126-6.2 7.8-11.4 17.4-16 26.3l-.4-8z" class="a"/><path d="M1557.1 1306.2h271.7c-11.9-77.6-28.7-146.1-52.3-189.5 0 0-262.3-13-222.9 164.8 0 0 1.1 9 3.5 24.7z" class="X"/><path d="M1752.7 317.5c5.3 66 17.9 130.9 54 188 10 15.9 20.2 32.7 34.2 45.5-54 11.5-196 11.1-217.7-69.6-14.2-52.8-17.2-108-15.4-162.3 1.7-49.2 2.8-104.1 23.7-149.5 19-41.3 86-40.8 110.9-2.9 12.1 18.4 5.3 41 6 61.8 1 29.5 1.9 59.4 4.3 89z" class="e"/><path d="M1764.9 509.1c44.2-1.2 68.4 38.1 82.2 77.8 14.5 41.8-22.8 158.2-56.5 129.5-66.2-56.3-99.2-90.2-100.4-134.4s30.5-71.6 74.7-72.9z" class="X"/><path fill="#e79675" d="M1676.6 912.6c10.1-1.8 52 19.8 52 19.8s52.2 167.9 54.5 193.4-173.3 157.6-369.4 82.4c0 0 90.8-236.4 96.3-294.6 5.6-58.3 166.6-1 166.6-1z"/><path d="M1728.6 932.3s50.1 151.4 54.5 193.4c15.6 148.7-185.6 211.1-381.7 135.8 0 0-12.7-204.5 108.7-348-.1 0 32.2 29.4 218.5 18.8z" class="b"/><g class="V"><path d="m1423.5 1306.2-22.1-12.1.6 12.1h21.5z"/><path d="M1666.2 1306.2c15.2-128.8-92.2-195.5-208.9-143.4 0 0-67.2 19.4-54.2 143.4h263.1zm-113.3-805.9h136.5c-6.2-19.9-19.1-71.3.8-106.3l-137.9-90.5c0-.1 24.5 151.9.6 196.8z"/></g><path d="M1679.6 440.6c-.4-15.2 2.1-31.7 10.6-46.7l-137.9-90.5s10 61.9 11 118.4c49.8 15.9 70.3 22 116.3 18.8z" class="c"/><path d="M1461.4 513.2c-63.9 30.5-29.6 101.1-29.6 101.1l83 302.2s77.6 31.7 213.7 15.8c18.9-27.1 57.8-140.4 70.8-227 10.7-71.3 44-141.5 7.7-181.3-13.9-15.2-119.8-30.5-120.4-32.9l-125.1-.5-100.1 22.6zm250-106.8 8.3-20.1 20.7-59.4c2.9-9.5 4.8-22.5 1.9-32-3.4-11.4-5.5-29.9-.3-50.2 14-54.3-8.9-84.2-8.9-84.2-29.5-52.1-105.1-55.7-105.1-55.7-93.7.1-105.9 90.2-105.9 90.2-18.1 59.5 27.4 111.9 27.5 112 5.8 6.6 5.9 16.9 8.4 24.9a75.44 75.44 0 0 0 12.5 23.6c12.4 15.7 28.8 31 46 40.9 16.3 9.4 48.2 19.7 71.2 20.7 9.6.2 19 .8 23.7-10.7z" class="V"/><path d="M1558.3 342.4c1.7-42.7 2.6-40 2.6-40 1.6-12.4 24.7 15.7 25.1-.6 1.5-74.5 30.3-108.5 41.1-113.7 29.5-14.1 60-17 83.8-11.5 37.3 8.6 33.3 58.6 33.3 58.6 41.4-181.7-166-133.5-166-133.5-100.9 21.1-95.4 115.4-95.4 115.4-17.3 100.1 78.9 163.2 78.9 163.2l-3.4-37.9z" class="e"/><path d="M1565.6 328.2c-3.5 2.4-7.8 3.7-13.2 3.3-14.5-.9-25.8-15.1-25.3-31.6s12.6-29.1 27.1-28.1c6.9.5 13 3.9 17.5 9.1 6.6 7.6 6.1 21.1 4 30.2-1.7 7.2-4.9 13.5-10.1 17.1z" class="d"/><path d="M1559.3 287.4c-.4-8.7-18.3-1.3-15.9 3.7 1.4 2.9 4.4 5.1 6.7 7.2 3.2 2.8 4.7 5.4 4.9 9.7 0 .5.1 2-.5 2.3-2.3 1.5-9.3-7.4-10.9-9.2-3-3.7-3.2-9.7-1.4-13.9 1.9-4.5 5-6.5 9.9-6 3.9.4 7.9.9 7.4 5.8 0 0-.2.8-.2.4zm-6.1 8.6c1.9-1.7 3.6-.1 5.4 1.3 1.7 1.4 2.5 3.2 2.9 5.3.8 4.5-.1 10.5-2.9 14.3-2.2 3.1-5.8 4.8-9.6 4.5-5.3-.4-6.6-5.1-6.6-9.6 0-1.2.1-4 1.2-4.7 1.3-.7 2.1 1.3 2.9 2.2 1.1 1.2 2.8 1.7 4.4 1.9 3 .4 6-1 8-3.1.3-.4.7-.8.9-1.3-.2 2.9-.3 3.6-.6 1.9-.2-.8-.5-1.5-.9-2.1-1.1-2.1-3.1-3.5-4.4-5.6-.6-.9-1.7-4.1-.7-5z" class="W"/><path d="M1651.8 268.7c.2 5.2-2.4 9.6-6 9.7-3.5.2-6.6-3.9-6.8-9.1s2.4-9.6 6-9.7c3.5-.2 6.5 3.9 6.8 9.1zm72.4-6c-.1 5.2-3 9.4-6.5 9.4s-6.3-4.3-6.3-9.5c.1-5.2 3-9.4 6.5-9.3 3.5-.1 6.4 4.2 6.3 9.4z" class="Y"/><path d="M1621.1 260.1c13.9-18.2 50.5-11.1 50.5-11.1s2.1 0 1.9-6.5c0 0 .1-5.7-4.5-5.4 0 .1-44.8-7.6-47.9 23zm121.9-18c.1-20.1-38.7-9.4-38.7-9.4-4.6-.1-4.2 5.7-4.2 5.7.1 6.5 2.3 6.4 2.3 6.4s35.1-9.6 40.1-1.2c1.4-4.2-.4.7.5-1.5z" class="e"/><path d="M1675.3 319.6c26.9-.6 28.8-7.5 28.8-7.5l-12.6-29c-.1-.1 1.7 28.4-16.2 36.5z" class="W"/><path d="m1663.3 334.9 51.6-3.4c2.7-.1 4.2 1.8 3.2 4.4 0 0-10 26.3-26.7 27.4-16.7 1-29.9-23.9-29.9-23.9-1.3-2.2-.4-4 1.8-4.5z" class="i"/><path d="M1709.9 350.6c-4.5 6.3-10.9 12.2-18.6 12.7-7.8.5-14.9-4.7-20.1-10.4 9.2-11.6 27.4-12.5 38.7-2.3z" class="j"/><path d="M1662.8 335.1c.2-.1.3-.2.5-.2l51.6-3.4c.5 0 1 .1 1.4.2 1.5 2.2.1 6.4-4 9.1-7.8 2-25.7 5.6-44.7 2.8-4.8-4-6.7-7.3-4.8-8.5zm-96.6-3.9c-.3 4.9-4.4 8.7-9.3 8.4-4.9-.2-8.6-4.4-8.4-9.3s4.4-8.7 9.3-8.4c4.8.2 8.6 4.4 8.4 9.3z" class="Z"/><g class="k"><path d="M1799.4 515.9s33.5 0 52.5 84.8c0 0 92.9 282.1 33.3 298.4 0 0-89-17.5-172.7-242.2-.1.1-7.7-135.6 86.9-141z"/><path d="m1724.2 498.5 58.9 10.6s42.9 9.4 44.4 46.1c0 0 2.4 69.6-35.5 195.5-.1 0-62.7-193.1-67.8-252.2z"/><path d="m1709.1 496.2 26.5 4.1s51.5 99.6 63.7 205c-13 86.6-39.1 217.6-70.8 227-107.3 31.7-219.4-18.1-219.4-18.1l-51.3-204.9c137.8-53.7 68.2-211.2 68.2-211.2l29-6.9 121.8 123.2 32.3-118.2"/></g><path d="M1763.6 564.2s53.9 74.6 63.2 113c6.2 25.3-37.9 82.2-73.4 92.2-19.4 5.5-19.9-200.2 10.2-205.2z" class="g"/><g class="b"><path d="M1763.6 564.2s53.9 74.6 63.2 113c6.2 25.3-37.9 82.2-73.4 92.2-19.4 5.5-19.9-200.2 10.2-205.2z"/><path d="M1739.8 500.3s49.1 100.2 61.2 205.7c-13 86.6-40.8 217-72.4 226.4-107.3 31.7-219.4-18.1-219.4-18.1l-51.3-204.9c137.8-53.7 68.2-211.2 68.2-211.2l29-6.9L1684 675.5l25.2-179.1 30.6 3.9z"/></g><path fill="#222b35" d="m1555 491.1 128.9 184.2-92.7-25.1s-13.5-11.4-4.9-23.9l12.8-24.9-17-5s-22.3-2.6-26-20.8l-13.9-81.5 12.8-3zm153.7 5.4-24.8 178.9 50.4-46.8s20.7-16.8 1.3-25.3l-24-7.4 28.1-25.3s5.9-7.7 0-22.3l-16.9-50.2-14.1-1.6z"/><path fill="#7081ab" d="m1658.5 525.4-1.5 69.1-25.5-24.8z"/><path fill="#cdc5da" d="M1658.5 523.9s-77.2-31.6-96.4-63.1l-36.1 37.3 93.7 90.8 38.8-63.5m68.8 2s-7.5-28.9-44.2-53.4l4.8 99.8s20.3-51.1 39.4-46.4z"/><path fill="#7081ab" d="m1730.6 573.8-3.3-46.4c-11.2-2.7-21.2 12.9-29.4 25.8l32.7 20.6z"/><path d="M1834.8 1306.2c-14.6-81.6-33.8-156.3-59-202.6 0 0-356.6-33-373.3 100.3l-4.3 102.3h436.6z" class="b"/><path d="M1433.4 534s-14.3 14.9-25.9 57.8c0 0-56.5 206.6-14.9 311.5 0 0 13.6 21.3 48.6 30.8l111.1-267.3s47.4-111.9-27.9-169.8l-63 16.1c0 .1-18.3 7-28 20.9z" class="k"/><path d="m1531.2 757.3-39.7-31.3s-59.7-8.8-89.5-5c0 0-9.9 13.7 65.5 15.8 0 0-52.8 16.9-69.8 29.4 0 0-2.7 15.6 45.6-7.1l22-1.6-51.1 25.5s2 9.7 48.5-2.9l46.7 5.1 21.8-27.9z" class="V"/><path d="m1785.2 763.1-255.6-30.6c-12.8 15.6-25.1 43.9-19.6 73.6l326.5 103.6s86.3 15.3 63.5-88.6c0 .1-36.4-52.9-114.8-58z" class="k"/><path d="M1785.2 763.1s-45.9 24.8-63.2 26.7l-26.7-46.1 36.5-23.7 25-5.8s41.2-10.6 52 45.9l-23.6 3z" class="V"/><path fill="#a1a3c1" d="M1446.1 935.6s-70 6.4-52.5-69.8c15.1-42.9 70.9-60.4 70.9-60.4l230.9-69.7s22 8.4 31.7 62.1c0-.1-201.9 139.8-281 137.8z"/><path d="M1588.8 315.4c-8.5 65.7-9.7 131.7 13.8 195.2 6.5 17.6 13 36.2 24 51.6-55.2 0-194-29.9-198.5-113.3-2.9-54.5 5.5-109.2 18.7-162 11.9-47.7 24.4-101.2 54.2-141.3 27.1-36.5 92.6-22 109.1 20.2 8 20.5-3.3 41.2-7 61.7-5.2 29.1-10.5 58.5-14.3 87.9z" class="e"/><g class="X"><path d="M1494.5 1306.2c2.5-106.8-9.3-335.9-22.4-357-15.4-25-97.9 28.3-97.9 28.3s56.7 223.4 76.8 328.8h43.5z"/><path d="m1435.8 617.3 24.9 8.1s39.4 306.6 6.1 375.1c-33.4 68.5-71.8-.3-84.3-8.1-12.5-7.7-92.3-355-92.3-355l145.6-20.1z"/></g><g fill="#121d28"><path d="m1489.4 964.9-15.9-384.1c-18-94.3-114.6-66.2-114.6-66.2-78.3 20.4-74.5 108.1-74.5 108.1l67.3 367.9s14.1 56.3 86.5 56.3c0-.1 53.4-7.3 51.2-82z"/><path d="M1421 1306.2h84.1c-.4-98.5-3.7-292.6-23.2-369.3 0 0-133.1 2.8-123.6 66.7 0-.1 25 167.7 62.7 302.6z"/></g><path d="m1388.6 1045.1 70.2-429.3s24.2-64.5-24.2-96.8l-184.5-86.7H1120L898.2 563.5l145.4 481.7h345z" class="V"/><path fill="#00264e" d="m1388.1 1306.2.5-261h-344.9s-34.9 79.6-47.2 261h391.6z"/><g fill="#101b26"><path d="M1234.2 1306.2c-16.1-51.4-62.9-88.4-118-88-54.4.4-100.3 37.3-116.1 88h234.1z"/><path d="M1136.8 1306.2c-9.5-1.4-19.7-1.5-30.9 0h30.9zm242.9 0c-15.1-49.3-49.3-82.5-103.4-77-46.4 4.7-84.1 35.5-100.8 77h204.2z"/></g><g class="V"><path d="M911.4 1306.2c-2.5-57-2.7-117.3 15.4-299.3 0 0-79.9-37-97.1 3-8 18.8 7.3 188 25.1 296.2h56.6z"/><path d="M983.1 571.3C897.5 551.9 868.2 631 868.2 631s-43 263.4-42.5 376.3c.4 76.2 93.3 14.8 99.4 1.4 13.4-29.5 111.1-346.9 111.1-346.9s5.2-74.5-53.1-90.5z"/></g><g class="l"><path d="m939.6 1013.2 111-360c-2.5-89.5-90.1-102.8-90.1-102.8-82.4-7.9-100.4 63-100.4 63l-39.8 360.4s-13.5 81 33.3 82.2c.1-.1 78.6 8.4 86-42.8z"/><path d="m930.1 1306.2 16.3-314.9c-37.8-65.8-126-17.6-126-17.6-15.7 66.1 10.6 238.4 27.1 332.5h82.6z"/></g><path d="M1119.4 337.6v139.1h147.1s-36.2-55.1-18.1-139.1h-129z" class="V"/><path d="M1194 455.7c13.3 8.5 41.4 26.7 57.5 16.1 4.3-2.9 6.3-6.6 7-10.8-9.5-22-22.5-65.9-10.1-123.4h-129v12.6c16.1 40.7 36.7 81.1 74.6 105.5z" class="c"/><path d="M1115.9 339.5s-25-10.9-53.4-72.8c0 0-61.5-73.2-17.9-156.4 0 0 25.8-70.3 150.6-50.6 0 0 11.2 188.4-79.3 279.8z" class="d"/><path d="m1269.6 377.1 8.3-21.8 23-81.2c2.9-10.2 3-23.8 1.2-34.3-2-11.4-3.3-23.3-.3-35.4 14.5-58.4-15.4-91.5-15.4-91.5-33-55-114-56.9-114-56.9-100.4 2.6-111.1 99.5-111.1 99.5-17.8 64.2 32.3 119.1 32.4 119.3 4 4.4 1.4 25.6 2.5 31.6 4.7 25.9 29 42.3 50.6 53.7 23.7 12.5 52.5 26 79.2 29 10.1 1.4 38.8.5 43.6-12z" class="V"/><path d="m1250 254.6-28 8.5s36.5 5 38.7-5.6c0 0-4-21.2-8.6-41.3.1 0 2 37.1-2.1 38.4z" class="W"/><path d="M1205.4 211.9c.3 5.8-2.7 10.5-6.6 10.7s-7.3-4.3-7.5-10.1c-.3-5.7 2.7-10.5 6.6-10.7s7.3 4.4 7.5 10.1zm79-2.9c.3 5.8-2.7 10.5-6.6 10.7s-7.3-4.3-7.6-10.1c-.3-5.7 2.7-10.6 6.6-10.7 3.9-.2 7.3 4.3 7.6 10.1z" class="Y"/><path fill="#d48a50" d="M1214.2 193.1c2.5.7 3.4-2.7 3.4-2.7 1-3.2.3-6.1.3-6.1-.9-2.4-2.8-3.3-2.8-3.3-6.5-1.4-19.3-.7-30.3 1.7-6.1 1.3-16.1 5.1-17.1 10.5-.3 1.6-.7 4.4 1.2 5.1-.1.1 20.9-4.8 45.3-5.2zm90.5-5.2c-7.1-.4-26 2.6-41.6 4.3-2.4 1-3.7-2.2-3.7-2.2-1.4-3.1-1.1-6-1.1-6 .5-2.5 2.4-3.6 2.4-3.6 6.2-2.2 23.2-5.9 34.4-4.9 3.4.3 8.7 1.9 10.3 5.1.1 0 1.4-.8-.7 7.3z"/><path fill="#95d7e3" d="M1019.7 1033.5c.3 14.3-21.4 163.9-12.3 165.8.1 0 248.2 57.2 380.6 0l.5-154.2 70.2-429.3s24.2-64.5-24.2-96.8L1250 432.3l12.4 37.4-26.7 75.9L1120 432.4 898.2 563.5l37.1 123.2 68.7 227.2c0-.1 19.5 81.8 15.7 119.6z"/><path fill="#3eaec6" d="m1219.9 459.4-1.5 69.1-25.5-24.9z"/><path fill="#cfeae6" d="M1252.3 570.8c0 5.4-4.4 9.9-9.9 9.9-5.4 0-9.9-4.4-9.9-9.9 0-5.4 4.4-9.9 9.9-9.9 5.5.1 9.9 4.5 9.9 9.9zm0 179.1c0 5.4-4.4 9.9-9.9 9.9-5.4 0-9.9-4.4-9.9-9.9a9.86 9.86 0 0 1 9.9-9.9c5.5 0 9.9 4.5 9.9 9.9zm0 179.1c0 5.4-4.4 9.9-9.9 9.9-5.4 0-9.9-4.4-9.9-9.9 0-5.4 4.4-9.9 9.9-9.9a9.86 9.86 0 0 1 9.9 9.9zm0 179c0 5.4-4.4 9.9-9.9 9.9-5.4 0-9.9-4.4-9.9-9.9 0-5.4 4.4-9.9 9.9-9.9 5.5.1 9.9 4.5 9.9 9.9z"/><path fill="none" stroke="#74cee2" d="M1219.9 536.4V1216" class="f o"/><path fill="#471f08" d="M1386.5 1213.5s-126.8 59.4-386.2-1.3c-4.3-1-2.5-12.1-2.5-12.1l2.5-25c1.1-8 5.6-7.6 5.6-7.6.1 0 248.2 57.2 380.6 0 0 0 5.3-.9 5.6 7.1v31.1s0 6.2-5.6 7.8z"/><g fill="none" stroke="#bcbec0" class="f p"><path d="M1257.7 1232.3c0 4-3.1 7.2-7 7.2h-50.5c-3.9 0-7-3.2-7-7.2V1196c0-3.9 3.1-7.2 7-7.2h50.5c3.9 0 7 3.2 7 7.2v36.3zM1193.3 1211.9h26.7"/></g><path d="M1219.9 457.8s-81.4-31.6-100.5-63.1l-24 45.8 85.8 82.3 38.8-63.5" class="h"/><path fill="#d48a50" d="M1216.7 108.2c15.9-4.5 34.3-7.6 50.8-4.6s25.7 25.1 42.7 13.9c6.9-4.5 20-14.5 24.3-21.3 6.6-10.5-7.7-30.3-17.5-33.8-11-4-9.9-7.6-15.3-18.4-4.6-9.2-5.7-17.6-17-20.7-10.8-3-21.2 4.2-31.8 2.7-18.2-2.7-21.6-22.3-40.7-25.7-21.1-3.7-32.3 31.7-53.2 30.3-18.1-1.2-29.8-17-49.4-13.2-20.2 3.9-25.4 25.6-43.7 31.9-18.7 6.4-39.3 3-44.9 27.2-4.5 19.7 4.1 33.1-9.9 49.9-15.5 18.7-9.9 38.1-1.6 57.8 14.9 35.4 29.7 70.3 52.8 101.3 6.4 8.6 13.5 17 21.3 24.4 1.3 1.3 7.9 5.5 8.2 7.2 0 0-13.3-75.3 26.4-65l6.9-.4s-13.7-44.1 14.7-65.9c-13.4-17.3-2.5-51.8.2-56.7 13.8-24.9 53.4-14.3 76.7-20.9z"/><path d="M1108.7 284.4c-3.6 3-8.2 4.9-14.1 5-16 .5-30-13.8-31.2-32s10.7-33.3 26.7-33.8c7.6-.2 14.7 2.9 20.2 8.1 8.1 7.7 9 22.5 7.7 32.8-1.1 8.2-4 15.3-9.3 19.9z" class="V"/><path d="M1097.3 240.2c-1.4-9.5-20.3.5-17.1 5.8 1.8 3 5.3 5.1 8.1 7.2 3.8 2.8 5.7 5.5 6.4 10.2.1.6.3 2.2-.3 2.6-2.4 1.8-11-7.1-12.9-9-3.7-3.7-4.5-10.3-3-15.2 1.6-5.2 4.8-7.8 10.3-7.7 4.3 0 8.8.1 8.8 5.6-.1.1-.2 1-.3.5zm-5.7 10.2c1.9-2.1 3.9-.5 6 .9 2 1.3 3.1 3.2 3.7 5.5 1.3 4.9 1 11.6-1.7 16.1-2.1 3.6-5.9 5.9-10.1 6-5.8.1-7.8-5-8.3-9.9-.1-1.3-.4-4.4.9-5.3s2.4 1.2 3.4 2.1c1.4 1.2 3.3 1.5 5 1.6 3.3.2 6.5-1.7 8.5-4.3.3-.5.6-1 .8-1.5.1 3.2 0 4-.4 2.2-.3-.8-.7-1.5-1.2-2.2-1.4-2.2-3.8-3.6-5.4-5.6-.6-1.1-2.1-4.5-1.2-5.6z" class="W"/><path d="M953.9 1306.2h216.2l11.7-505.5-98.6-346.5-185 109.3 95.9 429.1z" class="l"/><path fill="#2a3c45" d="m1083.2 454.2 98.6 346.5-.4 16.4L1057.2 690s-13.1-22.1 4.6-35.1l29.4-28.1-20.9-15s-29.4-14.2-25.8-40.9l8.4-100.4 30.3-16.3z"/><path d="m1444.4 1306.2-16.5-346.7 37-367c13.1-66.2-50.9-83.1-50.9-83.1l-112.3-52.8-15.7 334.8 38.5 514.8h119.9z" class="l"/><path d="M1288.6 461.3s-7.5-28.9-44.2-53.4l4.8 99.8s20.4-51 39.4-46.4z" class="h"/><path fill="#3eaec6" d="m1292 507.7-3.3-46.4c-11.2-2.8-21.2 12.9-29.4 25.8l32.7 20.6z"/><path fill="#00a8c1" d="m1211.9 484.4-3-5.6-20.5 31.4 17.6 6.2zm47.3 2.7 5.7-8.8s21.9 18.4-1.1 38.1c.1 0 .1-16.2-4.6-29.3z"/><path fill="#00b5c9" d="M1211.9 484.4s17.3 15.4 47.4 2.8c6.6 8.4 6.5 19 4.6 29.3l-15.5 32.1h-21.7l-20.6-32.1c-.1-.1-2.2-7.1 5.8-32.1z"/><path fill="#00a8c1" d="m1226.6 548.5-17.5 458.7 36.6 71.2 29.9-70.9-27.3-459z"/><path fill="#2a3c45" d="m1301.6 456.6 29 13.6 20.9 96.6s10.5 25-4.7 31.5l-27.3 15.9 38.5 24.4s20.3 12.7 7.8 31.4l-77.2 150.7-2.4-25.8 15.4-338.3z"/><path d="m1209.9 290 61.8-4c3.3-.2 5 2.2 3.8 5.3 0 0-12 31.6-32 32.8s-35.8-28.6-35.8-28.6c-1.5-2.7-.4-4.8 2.2-5.5z" class="i"/><path d="M1265.7 308.9c-5.4 7.5-13 14.6-22.3 15.2-9.4.6-17.8-5.6-24.1-12.5 11.1-13.9 32.9-14.9 46.4-2.7z" class="j"/><path d="m1209.3 290.3.6-.3 61.8-4c.6 0 1.2.1 1.7.3l-4.8 10.9c-9.4 2.4-30.8 6.7-53.6 3.4-1.8-3.5-3.7-7-5.7-10.3z" class="Z"/><g class="X"><path d="M502.1 1306.2c20.1-105.4 76.7-328.8 76.7-328.8s-82.5-53.3-97.9-28.3c-13.1 21.2-24.9 250.2-22.4 357h43.6z"/><path d="m517.3 617.3-24.9 8.1S453 932 486.3 1000.5c33.4 68.5 71.8-.3 84.3-8.1s92.3-355 92.3-355l-145.6-20.1z"/></g><g fill="#010c18"><path d="m463.7 964.9 15.9-384.1c18-94.3 114.6-66.2 114.6-66.2 78.3 20.4 74.5 108.1 74.5 108.1l-67.3 368s-14.1 56.2-86.5 56.3c-.1-.1-53.5-7.4-51.2-82.1z"/><path d="M532 1306.2c37.7-134.9 62.7-302.7 62.7-302.7 9.6-63.9-123.6-66.7-123.6-66.7-19.5 76.7-22.8 270.9-23.2 369.3H532z"/></g><path d="m564.5 1045.2-70.2-429.3s-24.2-64.5 24.2-96.8L703 432.4h130l221.8 131.1-145.4 481.7H564.5z" class="V"/><path fill="#00264e" d="M956.7 1306.2c-12.4-181.4-47.2-261-47.2-261h-345l.5 261h391.7z"/><g fill="#101b26"><path d="M953 1306.2c-15.8-50.7-61.7-87.6-116.1-88-55-.4-101.9 36.6-118 88H953z"/><path d="M847.2 1306.2c-11.2-1.5-21.5-1.4-30.9 0h30.9zm-69.6 0c-16.7-41.5-54.4-72.3-100.8-77-54.1-5.5-88.3 27.7-103.4 77h204.2z"/></g><g class="V"><path d="M1041.7 1306.2h56.6c17.8-108.3 33.1-277.5 25.1-296.2-17.2-40.1-97.1-3-97.1-3 18.1 181.8 17.9 242.2 15.4 299.2z"/><path d="M969.9 571.3c85.6-19.5 114.9 59.6 114.9 59.6s43 263.4 42.5 376.3c-.4 76.2-93.3 14.8-99.4 1.4-13.5-29.6-111.1-346.8-111.1-346.8s-5.2-74.5 53.1-90.5z"/></g><g class="m"><path d="m1013.4 1013.2-111-360c2.5-89.5 90.1-102.8 90.1-102.8 82.4-7.9 100.4 63 100.4 63l39.8 360.4s13.5 81-33.3 82.2c0-.1-78.6 8.4-86-42.8z"/><path d="M1105.6 1306.2c16.5-94.1 42.8-266.4 27.1-332.5 0 0-88.2-48.1-126 17.6l16.3 314.9h82.6z"/></g><path d="M833.7 337.6v139.1H686.6s36.2-55.1 18.1-139.1h129z" class="V"/><path d="M759.1 455.7c-13.3 8.5-41.4 26.7-57.5 16.1-4.3-2.9-6.3-6.6-7-10.8 9.5-22 22.5-66 10.1-123.4h129v12.6c-16.1 40.7-36.8 81.1-74.6 105.5z" class="c"/><path d="M837.2 339.5s25-10.9 53.4-72.8c0 0 61.5-73.2 17.9-156.4 0 0-25.8-70.3-150.6-50.6 0 0-11.3 188.4 79.3 279.8z" class="d"/><path d="m683.4 377.1-8.3-21.8-23-81.1c-2.9-10.2-3-23.8-1.2-34.3 2-11.4 3.3-23.3.3-35.4-14.5-58.3 15.4-91.5 15.4-91.5 32.9-55 114.1-56.9 114.1-56.9 100.4 2.6 111.1 99.5 111.1 99.5 17.8 64.2-32.3 119.1-32.4 119.2-4 4.4-1.4 25.6-2.5 31.7-4.7 25.9-29 42.3-50.6 53.7-23.7 12.5-52.5 26-79.2 29-10.2 1.3-38.9.4-43.7-12.1z" class="V"/><path d="m703.1 254.6 27.9 8.5s-36.5 5-38.7-5.6c0 0 4-21.2 8.6-41.3 0 0-2 37.1 2.2 38.4z" class="W"/><path d="M747.6 211.9c-.3 5.7 2.7 10.5 6.6 10.7s7.3-4.3 7.5-10.1c.3-5.8-2.7-10.5-6.6-10.7-3.8-.2-7.2 4.4-7.5 10.1zm-79-2.9c-.3 5.8 2.7 10.5 6.6 10.7s7.3-4.3 7.6-10.1-2.7-10.6-6.6-10.8c-3.9-.1-7.3 4.4-7.6 10.2zm70.2-15.9c-2.5.7-3.4-2.6-3.4-2.6-1.1-3.2-.3-6.1-.3-6.1.9-2.4 2.8-3.3 2.8-3.3 6.5-1.4 19.3-.7 30.3 1.7 6.1 1.3 16.1 5.1 17.1 10.5.3 1.6.7 4.5-1.2 5.1.1 0-20.9-4.9-45.3-5.3zm-90.4-5.3c7.1-.4 26 2.6 41.6 4.4 2.4 1 3.7-2.2 3.7-2.2 1.4-3.1 1.1-6 1.1-6-.5-2.5-2.3-3.6-2.3-3.6-6.2-2.2-23.2-5.9-34.4-4.9-3.4.3-8.7 1.9-10.3 5.1-.2 0-1.5-.8.6 7.2z" class="Y"/><path d="M933.3 1033.5c-.3 14.3 21.4 163.9 12.3 165.8-.1 0-248.2 57.2-380.6 0l-.5-154.2-70.2-429.3s-24.2-64.5 24.2-96.8L703 432.3l-12.5 37.4 26.7 75.9L833 432.4l221.8 131.1-37.1 123.2L949 913.8s-19.4 81.9-15.7 119.7z" class="Z"/><path fill="#d1d3d4" d="m733.1 459.4 1.6 69.1 25.4-24.9z"/><path d="M700.7 570.8a9.86 9.86 0 0 0 9.9 9.9c5.4 0 9.9-4.4 9.9-9.9 0-5.4-4.4-9.8-9.9-9.8s-9.9 4.4-9.9 9.8zm0 179.1c0 5.4 4.4 9.8 9.9 9.8 5.4 0 9.9-4.4 9.9-9.8a9.86 9.86 0 0 0-9.9-9.9c-5.5 0-9.9 4.5-9.9 9.9zm0 179.1a9.86 9.86 0 0 0 9.9 9.9c5.4 0 9.9-4.4 9.9-9.9 0-5.4-4.4-9.8-9.9-9.8-5.5-.1-9.9 4.3-9.9 9.8zm0 179.1c0 5.4 4.4 9.9 9.9 9.9 5.4 0 9.9-4.4 9.9-9.9 0-5.4-4.4-9.9-9.9-9.9a9.86 9.86 0 0 0-9.9 9.9z" class="n"/><path fill="none" stroke="#e6e7e8" d="M733.1 536.4V1216" class="f o"/><path fill="#471f08" d="M566.5 1213.5s126.8 59.4 386.2-1.3c4.3-1 2.5-12.1 2.5-12.1l-2.5-25c-1.1-8-5.6-7.6-5.6-7.6-.1 0-248.2 57.2-380.6 0 0 0-5.3-.9-5.6 7.1v31.1c.1 0 .1 6.2 5.6 7.8z"/><g fill="none" stroke="#bcbec0" class="f p"><path d="M695.3 1232.3c0 4 3.1 7.2 7 7.2h50.5c3.9 0 7-3.2 7-7.2V1196c0-4-3.1-7.2-7-7.2h-50.5c-3.9 0-7 3.2-7 7.2v36.3zM759.8 1211.9h-26.7"/></g><path d="M733.1 457.8s81.4-31.6 100.5-63.1l24 45.8-85.8 82.3-38.8-63.5" class="n"/><path d="M619.8 37.2c10.7 26.2 34.1 34.1 34.1 34.1-2.8 8.8-21.4 15.5-21.4 15.5 16.5 28.2 53.1 16.9 53.1 16.9 16.5-3 34.9.1 50.8 4.6 23.2 6.6 62.9-4 76.7 20.8 2.7 4.9 13.6 39.5.2 56.7 28.4 21.8 14.7 65.9 14.7 65.9l6.9.4c39.8-10.3 26.4 64.9 26.4 65 .3-1.7 6.9-5.9 8.2-7.2 7.8-7.5 24.2-34.2 29.3-43.7 28-51.3 25.4-53.9 32.9-84.2 5.1-20.7 2.9-76.7-27.2-104.9 0 0 9.4-36.9-48.9-59.2 0 0-124.3-31.2-184.5 9.9-.1-.2-27 13.3-51.3 9.4z" class="Y"/><path d="M844.4 284.4c3.6 3 8.2 4.9 14.1 5 16 .5 30-13.8 31.2-32S879 224.1 863 223.6c-7.6-.2-14.7 2.9-20.2 8.1-8 7.7-9 22.5-7.6 32.8 1 8.2 3.8 15.3 9.2 19.9z" class="V"/><path d="M855.7 240.2c1.4-9.5 20.3.5 17.1 5.8-1.8 3-5.3 5.1-8.1 7.2-3.8 2.8-5.7 5.4-6.4 10.2-.1.5-.3 2.2.3 2.6 2.4 1.9 11-7.1 12.9-9 3.7-3.7 4.5-10.3 3-15.2-1.6-5.2-4.8-7.7-10.3-7.6-4.3 0-8.8.1-8.8 5.5.1.1.2 1 .3.5zm5.7 10.2c-1.9-2.1-3.9-.5-6 .9-2 1.3-3.1 3.2-3.7 5.5-1.3 4.9-1 11.6 1.7 16 2.1 3.6 5.9 5.9 10.1 6 5.8.1 7.8-5 8.2-9.9.1-1.3.4-4.4-.9-5.3s-2.4 1.2-3.4 2.1c-1.4 1.2-3.3 1.6-5 1.6-3.3.1-6.5-1.7-8.5-4.3-.3-.5-.6-1-.8-1.5-.1 3.2 0 4 .4 2.2.3-.8.7-1.5 1.2-2.2 1.4-2.2 3.8-3.6 5.4-5.6.8-1 2.3-4.4 1.3-5.5z" class="W"/><path d="m999.2 1306.2-40.3-313.6 95.9-429.1-184.9-109.3-98.7 346.5 11.8 505.5z" class="m"/><path fill="#1f3038" d="m869.9 454.2-98.7 346.5.4 16.5L895.9 690s13.1-22.1-4.6-35.1l-29.4-28.1 20.9-15s29.4-14.2 25.8-40.9l-8.4-100.3-30.3-16.4z"/><path d="m525.1 959.5-16.5 346.7h120L667 791.4l-15.7-334.7L539 509.5s-63.9 16.9-50.9 83.1l37 366.9z" class="m"/><path d="M664.4 461.3s7.5-29 44.2-53.4l-4.8 99.8s-20.4-51-39.4-46.4z" class="n"/><path fill="#d1d3d4" d="m661.1 507.7 3.3-46.4c11.2-2.8 21.2 12.9 29.4 25.8l-32.7 20.6z"/><path fill="#1f3038" d="m651.4 456.6-29 13.6-20.9 96.6s-10.5 25 4.7 31.6l27.3 15.9-38.5 24.4s-20.3 12.7-7.8 31.4l77.2 150.7 2.4-25.8-15.4-338.4z"/><path d="m743.2 290-61.8-4c-3.2-.2-5 2.2-3.8 5.3 0 0 12 31.6 32 32.8s35.8-28.6 35.8-28.6c1.4-2.7.3-4.8-2.2-5.5z" class="i"/><path d="M687.3 308.9c5.5 7.5 13 14.6 22.3 15.2 9.4.6 17.8-5.7 24.1-12.5-11.1-13.9-32.8-14.9-46.4-2.7z" class="j"/><path d="m743.8 290.3-.6-.3-61.8-4c-.6 0-1.2.1-1.7.2l4.8 10.9c9.4 2.4 30.8 6.7 53.6 3.4 1.7-3.4 3.6-6.9 5.7-10.2z" class="Z"/><path d="M845.5 298.9 834.8 252l-6.9-.4s-6.9 31.1-44.1 36.6l-22.9 3.3c-.9.1-10.8-9.7-12.1-10.5-11-7.2-24.2-9.1-37-10.1-13.1-1-27.1-2.3-39.7 2.5-1.7.6-17.7 8.8-18.2 6.5 0 0 17 75.1 28.9 96.6 0 0 5.2 16.5 43.8 12.5 0 0 66.3-5.9 117.8-53.9 8.5-6.3 1.1-36.2 1.1-36.2zm-173-3.2c1.5-7.8 1.8-12.7 8.5-14 13.2-2.4 27.7-.2 40.8 1.5 10.6 1.3 23.8 2.7 28.2 14.4 3.8 10.2 1 25.2-4.4 34.5-9.1 15.8-38.5 23.9-53.5 13.7-12.6-8.7-22.5-35.3-19.6-50.1z" class="Y"/><path fill="#db4849" d="m741.2 484.4 3-5.6 20.4 31.4-17.6 6.2zm-47.4 2.7-5.7-8.8s-21.9 18.4 1.1 38.1c0 0 0-16.2 4.6-29.3z"/><path fill="#ec524f" d="M741.2 484.4s-17.3 15.4-47.3 2.8c-6.6 8.3-6.5 19-4.6 29.3l15.5 32.1h21.7l20.6-32.1c-.1-.1 2.1-7.1-5.9-32.1z"/><path fill="#db4849" d="m726.4 548.5 17.6 458.7-36.7 71.2-29.8-70.9 27.2-459z"/></svg>