<svg xmlns="http://www.w3.org/2000/svg" xmlns:xlink="http://www.w3.org/1999/xlink" width="30" height="30" fill="none"><use xlink:href="#a" fill="#f90"/><use xlink:href="#b" fill="#000" fill-rule="evenodd"/><use xlink:href="#a" fill="#f90"/><use xlink:href="#b" fill="#000" fill-rule="evenodd"/><defs><path id="a" d="M25.535 24.696c-12.382 5.893-20.067.962-24.986-2.032-.304-.189-.822.044-.373.56C1.815 25.211 7.185 30 14.196 30s11.189-3.828 11.711-4.496c.518-.662.152-1.027-.372-.808zm3.477-1.921c-.332-.433-2.022-.514-3.085-.383s-2.663.778-2.524 1.168c.071.146.217.081.948.015.733-.073 2.788-.333 3.217.227s-.655 3.248-.854 3.681c-.191.433.073.545.433.256s.997-1.035 1.429-2.091c.428-1.062.689-2.544.437-2.874z"/><path id="b" d="M17.209 12.671c0 1.546.039 2.836-.742 4.209-.631 1.117-1.63 1.803-2.746 1.803-1.524 0-2.411-1.161-2.411-2.875 0-3.383 3.031-3.997 5.9-3.997v.86zm4.002 9.674c-.262.234-.642.251-.938.095-1.317-1.094-1.552-1.602-2.277-2.646-2.177 2.222-3.718 2.886-6.542 2.886-3.338 0-5.939-2.06-5.939-6.185 0-3.221 1.747-5.415 4.231-6.486 2.155-.949 5.164-1.117 7.463-1.379v-.514c0-.943.073-2.06-.48-2.875-.486-.731-1.412-1.033-2.227-1.033-1.513 0-2.864.776-3.193 2.384-.067.357-.329.709-.687.726L6.77 6.905c-.324-.073-.681-.335-.592-.832C7.066 1.407 11.281 0 15.054 0c1.931 0 4.455.514 5.978 1.976 1.931 1.803 1.747 4.209 1.747 6.827v6.185c0 1.859.77 2.674 1.496 3.679.257.357.313.787-.011 1.055-.809.675-2.25 1.931-3.042 2.635l-.011-.011"/></defs></svg>