<svg width="80" height="55" viewBox="0 0 80 55" fill="none" xmlns="http://www.w3.org/2000/svg">
<path d="M4.81105 29.8319C6.56241 25.1891 9.21512 20.9387 12.6164 17.3255C16.0176 13.7124 20.1001 10.808 24.6288 8.77957C29.1574 6.75116 34.0427 5.63886 39.0031 5.50675C43.9635 5.37464 48.9011 6.22534 53.5313 8.00983L56.2103 4.60703C56.3356 4.45663 56.4609 4.3125 56.5863 4.17463C51.3362 1.93834 45.6881 0.78708 39.9816 0.790106C34.2751 0.793132 28.6281 1.95038 23.3805 4.19223C18.1328 6.43409 13.3928 9.71423 9.44555 13.8354C5.49835 17.9565 2.4255 22.8334 0.411848 28.1728C0.30291 28.4617 0.251933 28.7692 0.261828 29.0777C0.271723 29.3863 0.342295 29.6899 0.469516 29.9711C0.596737 30.2524 0.778114 30.5059 1.00329 30.7171C1.22847 30.9283 1.49304 31.093 1.7819 31.202C2.07075 31.3109 2.37824 31.3619 2.68679 31.352C2.99535 31.3421 3.29894 31.2715 3.58022 31.1443C3.8615 31.0171 4.11497 30.8357 4.32616 30.6105C4.53735 30.3854 4.70211 30.1208 4.81105 29.8319ZM68.2752 11.6382C73.3168 16.1625 77.1982 21.8314 79.5928 28.1681C79.8134 28.7515 79.7933 29.3986 79.5368 29.9671C79.2803 30.5357 78.8084 30.979 78.2251 31.1996C77.6417 31.4203 76.9946 31.4001 76.426 31.1436C75.8575 30.8871 75.4142 30.4153 75.1936 29.8319C73.274 24.7487 70.2755 20.1419 66.4046 16.3288L67.6454 13.2174L68.2752 11.6382ZM40.0047 12.55C43.0256 12.547 46.0302 12.9921 48.9206 13.8707L45.7669 17.8939C39.204 16.395 32.3154 17.514 26.5644 21.013C20.8134 24.512 16.6533 30.1155 14.9677 36.6328C14.8909 36.9319 14.7559 37.2128 14.5705 37.4597C14.3851 37.7066 14.1528 37.9145 13.887 38.0716C13.6212 38.2287 13.3271 38.332 13.0214 38.3754C12.7157 38.4189 12.4045 38.4017 12.1054 38.3248C11.8064 38.248 11.5254 38.113 11.2786 37.9276C11.0317 37.7421 10.8238 37.5099 10.6666 37.2441C10.5095 36.9783 10.4063 36.6842 10.3629 36.3785C10.3194 36.0728 10.3366 35.7616 10.4134 35.4625C12.1071 28.9029 15.9332 23.0924 21.2898 18.9447C26.6465 14.797 33.2299 12.5475 40.0047 12.55ZM63.5047 23.5762L61.4555 28.671C63.0723 31.068 64.2943 33.7564 65.0369 36.6375C65.1927 37.2415 65.582 37.7588 66.1192 38.0756C66.6565 38.3925 67.2976 38.483 67.9015 38.3272C68.5054 38.1714 69.0228 37.782 69.3396 37.2448C69.6565 36.7076 69.747 36.0665 69.5912 35.4625C68.4623 31.0997 66.3822 27.0406 63.5 23.5762M40 24.3L40.752 24.3141C39.3984 26.0437 38.0777 27.7451 36.8369 29.3572C33.728 30.0729 30.9538 31.8216 28.9673 34.3178C26.9808 36.8139 25.8995 39.9099 25.9 43.1C25.9 43.7233 25.6524 44.321 25.2117 44.7617C24.7709 45.2024 24.1732 45.45 23.55 45.45C22.9267 45.45 22.329 45.2024 21.8883 44.7617C21.4475 44.321 21.2 43.7233 21.2 43.1C21.2 38.114 23.1807 33.3321 26.7063 29.8064C30.232 26.2807 35.0139 24.3 40 24.3ZM54.8896 44.7497L54.8567 44.8296C55.1925 45.1394 55.6114 45.3446 56.062 45.42C56.5126 45.4954 56.9755 45.4378 57.3939 45.2543C57.8123 45.0708 58.1682 44.7693 58.4179 44.3867C58.6676 44.004 58.8004 43.5569 58.8 43.1C58.8 41.1072 58.4945 39.1896 57.9211 37.3895C56.8401 40.0356 55.8014 42.5501 54.8896 44.7497ZM55.9377 12.5547L58.8141 8.89813L59.9045 7.52103L60.0784 7.32363C60.4115 6.98706 60.8385 6.75899 61.3035 6.66929C61.7684 6.57959 62.2496 6.63245 62.684 6.82095C63.1184 7.00944 63.4858 7.32478 63.7379 7.72563C63.99 8.12648 64.1151 8.59414 64.0969 9.06733L63.9277 9.84753L63.2791 11.4784C60.9326 17.3574 58.5764 23.2324 56.2103 29.1034C54.3471 33.726 52.4624 38.3399 50.5562 42.9449C49.7337 44.9189 49.0052 46.6391 48.4365 47.9598C48.0407 48.9062 47.6064 49.836 47.1346 50.7469C46.0276 52.6048 44.2338 53.9522 42.1411 54.4979C40.0484 55.0435 37.825 54.7435 35.9518 53.6627C34.0786 52.5818 32.7061 50.8071 32.1312 48.7223C31.5562 46.6375 31.825 44.4101 32.8795 42.5219C33.1615 42.0237 33.8289 41.0978 34.642 39.9933C35.5021 38.8371 36.6254 37.3519 37.9273 35.6552C40.5264 32.2571 43.8352 27.9989 47.0876 23.8347C50.34 19.6705 53.5454 15.5909 55.9377 12.5547ZM64.0969 9.06733C64.0854 9.33514 64.0281 9.59902 63.9277 9.84753L64.0969 9.06733Z" fill="#341CBE"/>
</svg>
