<svg width="50" height="50" viewBox="0 0 50 50" fill="none" xmlns="http://www.w3.org/2000/svg">
<path fill-rule="evenodd" clip-rule="evenodd" d="M10.1906 6.83121C11.2438 5.97495 12.7813 6.34995 13.4531 7.52808C14.0688 8.60308 13.7344 9.9562 12.7969 10.7625C10.7416 12.5216 9.09208 14.7053 7.96187 17.1631C6.83165 19.621 6.24762 22.2947 6.25001 25C6.24762 27.7052 6.83165 30.3789 7.96187 32.8368C9.09208 35.2947 10.7416 37.4783 12.7969 39.2375C13.7344 40.0437 14.0688 41.3937 13.4531 42.4718C12.7813 43.65 11.2438 44.025 10.1906 43.1687C7.49249 40.9719 5.31804 38.2013 3.8255 35.0584C2.33295 31.9154 1.55987 28.4793 1.56251 25C1.55987 21.5206 2.33295 18.0845 3.8255 14.9415C5.31804 11.7986 7.49249 9.02796 10.1906 6.83121ZM36.5469 7.52808C35.9313 8.60308 36.2656 9.9562 37.2031 10.7625C39.2584 12.5216 40.9079 14.7053 42.0381 17.1631C43.1684 19.621 43.7524 22.2947 43.75 25C43.7524 27.7052 43.1684 30.3789 42.0381 32.8368C40.9079 35.2947 39.2584 37.4783 37.2031 39.2375C36.2656 40.0437 35.9313 41.3937 36.5469 42.4718C37.2188 43.65 38.7563 44.025 39.8094 43.1687C42.5075 40.9719 44.682 38.2013 46.1745 35.0584C47.6671 31.9154 48.4401 28.4793 48.4375 25C48.4401 21.5206 47.6671 18.0845 46.1745 14.9415C44.682 11.7986 42.5075 9.02796 39.8094 6.83121C38.7563 5.97495 37.2188 6.34995 36.5469 7.52808ZM14.8719 15.2437C15.8563 14.2218 17.4875 14.5875 18.1906 15.8187C18.7844 16.85 18.4938 18.1437 17.7406 19.0687C16.3726 20.7427 15.6252 22.8381 15.625 25C15.625 27.25 16.4188 29.3156 17.7406 30.9343C18.4938 31.8562 18.7813 33.1468 18.1906 34.1843C17.4875 35.4125 15.8563 35.7781 14.8719 34.7562C12.3476 32.1356 10.9374 28.6386 10.9375 25C10.9375 21.2093 12.4375 17.7718 14.875 15.2437M31.8125 15.8187C31.2188 16.85 31.5063 18.1437 32.2625 19.0687C33.5813 20.6812 34.375 22.75 34.375 25C34.375 27.25 33.5813 29.3156 32.2594 30.9343C31.5031 31.8562 31.2188 33.1468 31.8094 34.1843C32.5125 35.4125 34.1438 35.7781 35.1281 34.7562C37.658 32.1392 39.0692 28.6398 39.0625 25C39.0625 21.2093 37.5625 17.7718 35.125 15.2437C34.1438 14.2218 32.5125 14.5875 31.8094 15.8187M25 29.6875C26.2432 29.6875 27.4355 29.1936 28.3146 28.3145C29.1936 27.4354 29.6875 26.2432 29.6875 25C29.6875 23.7568 29.1936 22.5645 28.3146 21.6854C27.4355 20.8063 26.2432 20.3125 25 20.3125C23.7568 20.3125 22.5645 20.8063 21.6854 21.6854C20.8064 22.5645 20.3125 23.7568 20.3125 25C20.3125 26.2432 20.8064 27.4354 21.6854 28.3145C22.5645 29.1936 23.7568 29.6875 25 29.6875Z" fill="#0F2D68"/>
</svg>
